<svg xmlns="http://www.w3.org/2000/svg" xmlns:xlink="http://www.w3.org/1999/xlink" width="864.331" height="606.847" viewBox="0 0 864.331 606.847">
  <defs>
    <filter id="Path_134" x="0" y="0" width="860.484" height="606.847" filterUnits="userSpaceOnUse">
      <feOffset dy="3" input="SourceAlpha"/>
      <feGaussianBlur stdDeviation="20" result="blur"/>
      <feFlood flood-opacity="0.31"/>
      <feComposite operator="in" in2="blur"/>
      <feComposite in="SourceGraphic"/>
    </filter>
    <linearGradient id="linear-gradient" x1="-2.055" y1="1" x2="-2.055" gradientUnits="objectBoundingBox">
      <stop offset="0" stop-color="gray" stop-opacity="0.251"/>
      <stop offset="0.54" stop-color="gray" stop-opacity="0.122"/>
      <stop offset="1" stop-color="gray" stop-opacity="0.102"/>
    </linearGradient>
  </defs>
  <g id="art" transform="translate(-833.111 -185.894)">
    <g id="Group_22" data-name="Group 22" transform="translate(872.371 242.894)">
      <g transform="matrix(1, 0, 0, 1, -39.26, -57)" filter="url(#Path_134)">
        <path id="Path_134-2" data-name="Path 134" d="M350.607,87.579c25.123-22.362,64.558-26.955,100.458-25.166,112.749,5.616,214.506,60.034,302.562,121.6,31.823,22.294,63.251,46.316,83.936,77,42.144,62.485,29.622,149.045-28.942,200.521-19.92,17.511-44.071,30.963-68.867,42.841-44.088,21.158-91.66,38.153-141.7,43-35.676,3.44-71.8.645-107.279-4.171-99.108-13.435-196.393-43.159-277.938-94.016-35.8-22.319-69.469-50.031-84.211-86.155s-5.307-81.777,31.213-103.133c15.1-8.833,33.156-12.824,50.84-16.565,26.026-5.513,52.465-10.949,75.946-22.164,24.255-11.577,52.982-33.965,48.165-59.587C329.646,134.093,325.518,109.942,350.607,87.579Z" transform="translate(-61.96 -5.06)" fill="#b76e19" opacity="0.97"/>
      </g>
      <path id="Path_135" data-name="Path 135" d="M335.039,229.892,318.1,236.445l-24.762,9.573c-.937-1.72-2.314-4.111-4.017-6.881-5.866-9.719-15.576-24.839-24.211-38.128C255.386,186,247,173.384,247,173.384l6.072-1.72L302.6,157.3Z" transform="translate(-137.585 -52.422)" fill="#e6ecf8"/>
      <path id="Path_136" data-name="Path 136" d="M336.026,229.882l-16.935,6.554a127.748,127.748,0,0,1-28.779,2.649c-5.866-9.719-15.576-24.839-24.212-38.128L254.06,171.593l49.533-14.363Z" transform="translate(-138.572 -52.412)" opacity="0.1"/>
      <path id="Path_137" data-name="Path 137" d="M348.231,224.667s-26.319,15.568-65.616,12.041L251.29,160.341l15.017-2.58,51.9-8.911,29.432,74.329Z" transform="translate(-138.185 -51.24)" fill="#dcccba"/>
      <path id="Path_138" data-name="Path 138" d="M350.107,223.149a123.855,123.855,0,0,1-20.573-.585c-7.81-.92-15.662-2.8-22.362-6.279a67.7,67.7,0,0,1-14.622-9.831c-10.914-9.814-17.666-23.859-23.73-48.724l51.9-8.911Z" transform="translate(-140.637 -51.236)" opacity="0.1"/>
      <path id="Path_139" data-name="Path 139" d="M368.844,215.265s-19.412,3.8-39.143,1.462c-7.81-.92-15.662-2.812-22.362-6.279a68.223,68.223,0,0,1-14.622-9.831c-13.5-12.153-20.642-30.774-27.987-68.386,0,0,32.245,7.741,64.12-9.272C328.807,122.994,339.558,190.081,368.844,215.265Z" transform="translate(-140.065 -47.618)" fill="#f9fafb"/>
      <path id="Path_140" data-name="Path 140" d="M334.254,228.2c-7.81-.92-15.662-2.812-22.362-6.279a68.221,68.221,0,0,1-14.622-9.831c11.5-.937,13.151-7.225,13.151-7.225C318.91,218.382,334.254,228.2,334.254,228.2Z" transform="translate(-144.618 -59.078)" opacity="0.1"/>
      <path id="Path_141" data-name="Path 141" d="M284.07,148.63s26.224-1.479,33.543-7.13l1.118,3.561S301.4,152.707,284.07,152.8Z" transform="translate(-142.771 -50.211)" fill="#6c63ff" opacity="0.3"/>
      <path id="Path_142" data-name="Path 142" d="M284.07,168.527s25.39-1.385,44.57-10.656l.654,1.488s-15.232,8.885-45.224,11.181Z" transform="translate(-142.771 -52.502)" fill="#6c63ff" opacity="0.3"/>
      <path id="Path_143" data-name="Path 143" d="M286.44,176.526s25.4-1.393,44.578-10.656l.645,1.479s-15.224,8.885-45.224,11.181Z" transform="translate(-143.103 -53.621)" fill="#6c63ff" opacity="0.3"/>
      <path id="Path_144" data-name="Path 144" d="M288.82,184.516s25.39-1.385,44.57-10.656l.654,1.488s-15.232,8.885-45.224,11.181Z" transform="translate(-143.436 -54.739)" fill="#6c63ff" opacity="0.3"/>
      <path id="Path_145" data-name="Path 145" d="M291.19,192.517s25.4-1.393,44.578-10.657l.645,1.479s-15.224,8.885-45.223,11.181Z" transform="translate(-143.767 -55.858)" fill="#6c63ff" opacity="0.3"/>
      <path id="Path_146" data-name="Path 146" d="M293.57,200.507s25.39-1.385,44.57-10.656l.654,1.488s-15.232,8.885-45.223,11.181Z" transform="translate(-144.1 -56.976)" fill="#6c63ff" opacity="0.3"/>
      <path id="Path_147" data-name="Path 147" d="M957.4,285.244l.507.37.077-.8-.335-.714-.542.086Z" transform="translate(-132.918 -38.021)" fill="#464a5f"/>
      <path id="Path_148" data-name="Path 148" d="M957.4,285.244l.507.37.077-.8-.335-.714-.542.086Z" transform="translate(-132.918 -38.021)" opacity="0.1"/>
      <path id="Path_149" data-name="Path 149" d="M957.372,285.43l.5.378-.344.576-.49-.1-.146-.2Z" transform="translate(-132.887 -38.207)" fill="#9c9ca1"/>
      <path id="Path_150" data-name="Path 150" d="M957.372,285.43l.5.378-.344.576-.49-.1-.146-.2Z" transform="translate(-132.887 -38.207)" opacity="0.1"/>
      <path id="Path_151" data-name="Path 151" d="M962.055,245.09,921.717,301.2a4.713,4.713,0,0,0,1.058,6.554l86.112,62.417a4.7,4.7,0,0,0,6.554-1.032l41.052-56.258Z" transform="translate(-231.862 -64.705)" fill="#9c9ca1"/>
      <path id="Path_152" data-name="Path 152" d="M962.055,245.09,921.717,301.2a4.713,4.713,0,0,0,1.058,6.554l86.112,62.417a4.7,4.7,0,0,0,6.554-1.032l41.052-56.258Z" transform="translate(-231.862 -64.705)" opacity="0.1"/>
      <path id="Path_153" data-name="Path 153" d="M961.875,244l-40.338,56.112a4.7,4.7,0,0,0,1.058,6.545l86.086,62.408a4.7,4.7,0,0,0,6.554-1.041l41.052-56.25Z" transform="translate(-231.836 -64.552)" fill="#9c9ca1"/>
      <path id="Path_154" data-name="Path 154" d="M968,203.43l1.066,34.3,94.438,67.792-.895-34.9a5,5,0,0,0-2.116-3.965l-90.9-64.077a1,1,0,0,0-1.591.852Z" transform="translate(-238.46 -58.729)" fill="#464a5f"/>
      <path id="Path_155" data-name="Path 155" d="M968,203.43l1.066,34.3,94.438,67.792-.895-34.9a5,5,0,0,0-2.116-3.965l-90.9-64.077a1,1,0,0,0-1.591.852Z" transform="translate(-238.46 -58.729)" opacity="0.1"/>
      <path id="Path_156" data-name="Path 156" d="M967.34,203.926l1.066,34.326,94.438,67.792-.92-34.9a5.006,5.006,0,0,0-2.125-3.965L968.905,203.1a.989.989,0,0,0-1.565.826Z" transform="translate(-238.368 -58.804)" fill="#464a5f"/>
      <g id="Group_10" data-name="Group 10" transform="translate(716.025 194.454)" opacity="0.1">
        <path id="Path_157" data-name="Path 157" d="M971.345,261.819l-2.443,3.44a.946.946,0,0,0,.215,1.307l3.44,2.58a.938.938,0,0,0,1.307-.189l2.468-3.234a.937.937,0,0,0-.163-1.316l-3.509-2.77a.938.938,0,0,0-1.316.181Z" transform="translate(-954.587 -261.447)"/>
        <path id="Path_158" data-name="Path 158" d="M978.745,267.138l-2.443,3.44a.946.946,0,0,0,.215,1.307l3.44,2.58a.938.938,0,0,0,1.307-.189l2.468-3.234a.938.938,0,0,0-.163-1.316l-3.475-2.761a.937.937,0,0,0-1.35.172Z" transform="translate(-955.622 -262.19)"/>
        <path id="Path_159" data-name="Path 159" d="M986.515,272.72l-2.443,3.44a.946.946,0,0,0,.215,1.307l3.44,2.58a.938.938,0,0,0,1.307-.189l2.468-3.234a.946.946,0,0,0-.163-1.316l-3.509-2.761a.938.938,0,0,0-1.316.172Z" transform="translate(-956.71 -262.973)"/>
        <path id="Path_160" data-name="Path 160" d="M994.374,278.371l-2.443,3.44a.946.946,0,0,0,.206,1.307l3.44,2.58a.937.937,0,0,0,1.307-.189l2.469-3.234a.946.946,0,0,0-.163-1.316l-3.509-2.761a.937.937,0,0,0-1.307.172Z" transform="translate(-957.809 -263.764)"/>
        <path id="Path_161" data-name="Path 161" d="M1002.234,284.02l-2.443,3.44a.946.946,0,0,0,.206,1.307l3.44,2.58a.946.946,0,0,0,1.316-.189l2.469-3.234a.946.946,0,0,0-.164-1.316l-3.509-2.761a.938.938,0,0,0-1.316.172Z" transform="translate(-958.908 -264.554)"/>
        <path id="Path_162" data-name="Path 162" d="M1010.365,289.2l-3.028,4.3a.447.447,0,0,0,.095.611l4.3,3.148a.439.439,0,0,0,.611-.086l3.071-4.025a.439.439,0,0,0-.078-.611l-4.3-3.44a.447.447,0,0,0-.671.1Z" transform="translate(-959.977 -265.3)"/>
        <path id="Path_163" data-name="Path 163" d="M1018.224,294.846l-3.028,4.3a.447.447,0,0,0,.095.611l4.3,3.148a.439.439,0,0,0,.611-.086l3.071-4.025a.439.439,0,0,0-.077-.611l-4.3-3.44a.447.447,0,0,0-.671.1Z" transform="translate(-961.077 -266.091)"/>
        <path id="Path_164" data-name="Path 164" d="M1025.183,299.844l-3.036,4.3a.439.439,0,0,0,.1.611l4.3,3.148a.447.447,0,0,0,.619-.086l3.07-4.017a.447.447,0,0,0-.077-.619l-4.3-3.44a.439.439,0,0,0-.679.1Z" transform="translate(-962.049 -266.789)"/>
        <path id="Path_165" data-name="Path 165" d="M1032.973,305.448l-3.028,4.3a.43.43,0,0,0,.095.611l4.3,3.148a.447.447,0,0,0,.619-.086l3.071-4.017a.447.447,0,0,0-.077-.619l-4.3-3.4a.439.439,0,0,0-.679.06Z" transform="translate(-963.14 -267.576)"/>
        <path id="Path_166" data-name="Path 166" d="M1040.494,310.879l-3.027,4.3a.439.439,0,0,0,.1.611l4.3,3.157a.439.439,0,0,0,.611-.095l3.071-4.017a.448.448,0,0,0-.077-.619l-4.3-3.4a.447.447,0,0,0-.679.06Z" transform="translate(-964.193 -268.337)"/>
        <path id="Path_167" data-name="Path 167" d="M1048.064,316.3l-3.028,4.3a.447.447,0,0,0,.095.611l4.3,3.148a.439.439,0,0,0,.61-.086l3.071-4.025a.439.439,0,0,0-.077-.611l-4.3-3.4a.439.439,0,0,0-.671.06Z" transform="translate(-965.252 -269.095)"/>
        <path id="Path_168" data-name="Path 168" d="M1055.613,321.724l-3.036,4.3a.439.439,0,0,0,.1.611l4.3,3.157a.447.447,0,0,0,.619-.095l3.07-4.017a.447.447,0,0,0-.077-.619l-4.3-3.44a.439.439,0,0,0-.679.1Z" transform="translate(-966.307 -269.85)"/>
        <path id="Path_169" data-name="Path 169" d="M966.176,269l-2.434,3.44a.946.946,0,0,0,.206,1.307l3.44,2.58a.955.955,0,0,0,1.316-.189l2.468-3.234a.946.946,0,0,0-.163-1.316l-3.509-2.769a.955.955,0,0,0-1.325.181Z" transform="translate(-953.865 -262.452)"/>
        <path id="Path_170" data-name="Path 170" d="M954.9,284.7l-2.434,3.44a.946.946,0,0,0,.206,1.307l3.44,2.58a.955.955,0,0,0,1.316-.181l2.468-3.234a.946.946,0,0,0-.164-1.316l-3.509-2.77a.946.946,0,0,0-1.324.172Z" transform="translate(-952.286 -264.649)"/>
        <path id="Path_171" data-name="Path 171" d="M973.574,274.32l-2.443,3.44a.946.946,0,0,0,.206,1.307l3.44,2.58a.955.955,0,0,0,1.316-.189l2.469-3.234a.946.946,0,0,0-.163-1.316l-3.509-2.769A.946.946,0,0,0,973.574,274.32Z" transform="translate(-954.899 -263.197)"/>
        <path id="Path_172" data-name="Path 172" d="M981.346,279.94l-2.434,3.44a.946.946,0,0,0,.206,1.307l3.44,2.58a.955.955,0,0,0,1.316-.181l2.468-3.234a.946.946,0,0,0-.163-1.316l-3.509-2.769A.946.946,0,0,0,981.346,279.94Z" transform="translate(-955.987 -263.983)"/>
        <path id="Path_173" data-name="Path 173" d="M989.206,285.56,986.772,289a.946.946,0,0,0,.206,1.307l3.44,2.58a.955.955,0,0,0,1.316-.181l2.469-3.242a.938.938,0,0,0-.163-1.307l-3.509-2.769a.946.946,0,0,0-1.324.172Z" transform="translate(-957.087 -264.769)"/>
        <path id="Path_174" data-name="Path 174" d="M962.476,289.77l-2.434,3.44a.946.946,0,0,0,.206,1.307l3.44,2.58a.955.955,0,0,0,1.316-.181l2.469-3.243a.938.938,0,0,0-.163-1.307L963.8,289.6A.946.946,0,0,0,962.476,289.77Z" transform="translate(-953.347 -265.358)"/>
        <path id="Path_175" data-name="Path 175" d="M970.246,295.35l-2.434,3.44a.946.946,0,0,0,.206,1.307l3.44,2.58a.955.955,0,0,0,1.316-.189l2.469-3.234a.946.946,0,0,0-.164-1.316l-3.509-2.769a.955.955,0,0,0-1.324.181Z" transform="translate(-954.434 -266.139)"/>
        <path id="Path_176" data-name="Path 176" d="M978.106,301l-2.434,3.44a.946.946,0,0,0,.206,1.307l3.44,2.58a.955.955,0,0,0,1.316-.189L983.1,304.9a.946.946,0,0,0-.172-1.316l-3.5-2.77A.946.946,0,0,0,978.106,301Z" transform="translate(-955.534 -266.929)"/>
        <path id="Path_177" data-name="Path 177" d="M997.066,291.2l-2.434,3.44a.946.946,0,0,0,.206,1.307l3.44,2.58a.955.955,0,0,0,1.316-.181l2.469-3.242a.938.938,0,0,0-.163-1.307l-3.475-2.83a.946.946,0,0,0-1.359.232Z" transform="translate(-958.186 -265.551)"/>
        <path id="Path_178" data-name="Path 178" d="M1004.926,296.85l-2.434,3.44a.946.946,0,0,0,.206,1.307l3.44,2.58a.955.955,0,0,0,1.316-.181l2.469-3.243a.938.938,0,0,0-.164-1.307l-3.509-2.77A.946.946,0,0,0,1004.926,296.85Z" transform="translate(-959.286 -266.349)"/>
        <path id="Path_179" data-name="Path 179" d="M1013.063,302.024l-3.036,4.3a.439.439,0,0,0,.1.611l4.3,3.148a.447.447,0,0,0,.619-.086l3.07-4.017a.447.447,0,0,0-.077-.619l-4.3-3.44a.439.439,0,0,0-.679.1Z" transform="translate(-960.354 -267.094)"/>
        <path id="Path_180" data-name="Path 180" d="M1020.014,307.025l-3.027,4.3a.439.439,0,0,0,.1.611l4.3,3.148A.43.43,0,0,0,1022,315l3.07-4.017a.447.447,0,0,0-.077-.619l-4.3-3.44a.447.447,0,0,0-.68.1Z" transform="translate(-961.327 -267.794)"/>
        <path id="Path_181" data-name="Path 181" d="M1027.813,312.629l-3.036,4.3a.439.439,0,0,0,.1.611l4.3,3.148a.43.43,0,0,0,.611-.086l3.071-4.017a.447.447,0,0,0-.077-.619l-4.3-3.4a.439.439,0,0,0-.671.06Z" transform="translate(-962.417 -268.582)"/>
        <path id="Path_182" data-name="Path 182" d="M1035.354,318.056l-3.027,4.3a.447.447,0,0,0,.095.611l4.3,3.148a.439.439,0,0,0,.61-.086L1040.4,322a.439.439,0,0,0-.077-.611l-4.3-3.44a.447.447,0,0,0-.671.1Z" transform="translate(-963.474 -269.338)"/>
        <path id="Path_183" data-name="Path 183" d="M975.984,287.364l-2.443,3.44a.946.946,0,0,0,.206,1.307l3.44,2.58a.946.946,0,0,0,1.316-.189l2.468-3.234a.946.946,0,0,0-.163-1.316l-3.458-2.778a.937.937,0,0,0-1.368.189Z" transform="translate(-955.236 -265.017)"/>
        <path id="Path_184" data-name="Path 184" d="M983.844,293.02l-2.443,3.44a.946.946,0,0,0,.206,1.307l3.44,2.58a.946.946,0,0,0,1.316-.189l2.469-3.234a.946.946,0,0,0-.164-1.316l-3.509-2.761a.938.938,0,0,0-1.316.172Z" transform="translate(-956.335 -265.813)"/>
        <path id="Path_185" data-name="Path 185" d="M991.7,298.67l-2.434,3.44a.946.946,0,0,0,.206,1.307l3.44,2.58a.946.946,0,0,0,1.316-.189l2.469-3.234a.955.955,0,0,0-.164-1.316L993.02,298.5A.946.946,0,0,0,991.7,298.67Z" transform="translate(-957.435 -266.604)"/>
        <path id="Path_186" data-name="Path 186" d="M999.576,304.32l-2.434,3.44a.946.946,0,0,0,.206,1.307l3.44,2.58a.946.946,0,0,0,1.316-.189l2.469-3.234a.946.946,0,0,0-.163-1.316l-3.509-2.761A.946.946,0,0,0,999.576,304.32Z" transform="translate(-958.538 -267.394)"/>
        <path id="Path_187" data-name="Path 187" d="M1007.693,309.5l-3.028,4.3a.43.43,0,0,0,.095.611l4.3,3.148a.447.447,0,0,0,.619-.086l3.07-4.025a.439.439,0,0,0-.077-.611l-4.3-3.4a.439.439,0,0,0-.679.06Z" transform="translate(-959.603 -268.143)"/>
        <path id="Path_188" data-name="Path 188" d="M1014.653,314.5l-3.036,4.3a.439.439,0,0,0,.1.611l4.3,3.148a.447.447,0,0,0,.619-.086l3.062-4.017a.43.43,0,0,0-.077-.619l-4.3-3.4a.43.43,0,0,0-.671.06Z" transform="translate(-960.576 -268.843)"/>
        <path id="Path_189" data-name="Path 189" d="M1022.493,320.093l-3.036,4.3a.439.439,0,0,0,.1.611l4.3,3.148a.447.447,0,0,0,.619-.086l3.07-4.017a.447.447,0,0,0-.077-.619l-4.3-3.44a.43.43,0,0,0-.679.1Z" transform="translate(-961.673 -269.621)"/>
        <path id="Path_190" data-name="Path 190" d="M1029.984,325.527l-3.027,4.3a.456.456,0,0,0,.094.619l4.3,3.148a.447.447,0,0,0,.611-.086l3.07-4.025a.439.439,0,0,0-.077-.611l-4.3-3.44a.447.447,0,0,0-.671.095Z" transform="translate(-962.722 -270.384)"/>
        <path id="Path_191" data-name="Path 191" d="M1042.9,323.479l-3.036,4.3a.439.439,0,0,0,.1.611l4.3,3.148a.439.439,0,0,0,.619-.086l3.07-4.017a.447.447,0,0,0-.077-.619l-4.3-3.4a.447.447,0,0,0-.679.06Z" transform="translate(-964.528 -270.1)"/>
        <path id="Path_192" data-name="Path 192" d="M1050.494,328.907l-3.027,4.3a.456.456,0,0,0,.094.619l4.3,3.148a.447.447,0,0,0,.611-.086l3.07-4.025a.439.439,0,0,0-.077-.611l-4.3-3.44a.447.447,0,0,0-.671.095Z" transform="translate(-965.592 -270.857)"/>
        <path id="Path_193" data-name="Path 193" d="M1016.628,328.212l-2.855,4.017a.585.585,0,0,0,.138.817l4.025,2.976a.585.585,0,0,0,.86-.112l2.89-3.784a.585.585,0,0,0-.1-.86l-4.068-3.217a.593.593,0,0,0-.886.163Z" transform="translate(-960.874 -270.747)"/>
        <path id="Path_194" data-name="Path 194" d="M1024.177,333.633l-2.856,4.025a.585.585,0,0,0,.129.817l4.034,2.976a.6.6,0,0,0,.86-.12l2.89-3.784a.593.593,0,0,0-.1-.86l-4.077-3.208a.585.585,0,0,0-.877.155Z" transform="translate(-961.93 -271.506)"/>
        <path id="Path_195" data-name="Path 195" d="M1031.715,339.061l-2.855,4.025a.593.593,0,0,0,.138.86l4.034,2.976a.585.585,0,0,0,.86-.112l2.89-3.793a.576.576,0,0,0-.1-.817l-4.068-3.217a.6.6,0,0,0-.895.077Z" transform="translate(-962.982 -272.272)"/>
        <path id="Path_196" data-name="Path 196" d="M1039.344,344.346l-3.027,4.3a.447.447,0,0,0,.1.619l4.3,3.148a.439.439,0,0,0,.611-.086l3.071-4.025a.439.439,0,0,0-.077-.611l-4.3-3.44a.447.447,0,0,0-.679.095Z" transform="translate(-964.032 -273.016)"/>
        <path id="Path_197" data-name="Path 197" d="M960.552,276.415l-2.58,3.69a.946.946,0,0,0,.224,1.316l10.1,7.19a.937.937,0,0,0,1.29-.2l2.752-3.587a.937.937,0,0,0-.206-1.342l-10.261-7.294a.938.938,0,0,0-1.316.224Z" transform="translate(-953.058 -263.485)"/>
        <path id="Path_198" data-name="Path 198" d="M1037.361,331.027l-3.174,4.515a.439.439,0,0,0,.1.611l10.914,7.741a.447.447,0,0,0,.611-.095l3.354-4.386a.439.439,0,0,0-.095-.628l-11.1-7.887a.439.439,0,0,0-.619.129Z" transform="translate(-963.734 -271.153)"/>
        <path id="Path_199" data-name="Path 199" d="M986.023,306.229l-3.036,4.2a.456.456,0,0,0,.095.619l23.652,17.443a.447.447,0,0,0,.611-.086l3.337-4.378a.438.438,0,0,0-.095-.628l-23.928-17.262a.439.439,0,0,0-.636.095Z" transform="translate(-956.57 -267.686)"/>
      </g>
      <path id="Path_200" data-name="Path 200" d="M971.224,261.08l-2.443,3.44a.946.946,0,0,0,.206,1.307l3.44,2.58a.946.946,0,0,0,1.316-.181l2.469-3.234a.938.938,0,0,0-.163-1.316l-3.509-2.769a.937.937,0,0,0-1.316.172Z" transform="translate(-238.545 -66.891)" fill="#464a5f"/>
      <path id="Path_201" data-name="Path 201" d="M978.624,266.4l-2.443,3.44a.946.946,0,0,0,.206,1.307l3.44,2.58a.937.937,0,0,0,1.307-.181l2.469-3.234a.938.938,0,0,0-.164-1.316l-3.509-2.77A.937.937,0,0,0,978.624,266.4Z" transform="translate(-239.581 -67.636)" fill="#464a5f"/>
      <path id="Path_202" data-name="Path 202" d="M986.4,271.939l-2.425,3.44a.946.946,0,0,0,.206,1.307l3.44,2.58a.955.955,0,0,0,1.316-.189l2.468-3.234a.938.938,0,0,0-.164-1.316l-3.509-2.77a.946.946,0,0,0-1.333.181Z" transform="translate(-240.671 -68.409)" fill="#464a5f"/>
      <path id="Path_203" data-name="Path 203" d="M994.254,277.629l-2.443,3.44a.946.946,0,0,0,.206,1.307l3.44,2.58a.955.955,0,0,0,1.316-.189l2.468-3.234a.937.937,0,0,0-.163-1.316l-3.509-2.77a.938.938,0,0,0-1.316.181Z" transform="translate(-241.767 -69.205)" fill="#464a5f"/>
      <path id="Path_204" data-name="Path 204" d="M1002.106,283.28l-2.434,3.44a.946.946,0,0,0,.206,1.307l3.44,2.58a.955.955,0,0,0,1.316-.189l2.468-3.234a.946.946,0,0,0-.163-1.316l-3.509-2.77a.954.954,0,0,0-1.324.181Z" transform="translate(-242.867 -69.996)" fill="#464a5f"/>
      <path id="Path_205" data-name="Path 205" d="M1010.244,288.455l-3.028,4.3a.439.439,0,0,0,.095.611l4.3,3.148a.447.447,0,0,0,.619-.086l3.071-4.025a.439.439,0,0,0-.078-.611l-4.3-3.44a.447.447,0,0,0-.679.1Z" transform="translate(-243.936 -70.742)" fill="#464a5f"/>
      <path id="Path_206" data-name="Path 206" d="M1018.1,294.106l-3.028,4.3a.439.439,0,0,0,.094.619l4.3,3.148a.456.456,0,0,0,.619-.086l3.071-4.025a.439.439,0,0,0-.077-.611l-4.3-3.44a.447.447,0,0,0-.679.095Z" transform="translate(-245.034 -71.533)" fill="#464a5f"/>
      <path id="Path_207" data-name="Path 207" d="M1025.063,299.1l-3.036,4.3a.439.439,0,0,0,.1.611l4.3,3.148a.447.447,0,0,0,.619-.086l3.07-4.025a.439.439,0,0,0-.077-.611l-4.3-3.44a.439.439,0,0,0-.679.1Z" transform="translate(-246.008 -72.231)" fill="#464a5f"/>
      <path id="Path_208" data-name="Path 208" d="M1032.853,304.7l-3.036,4.3a.439.439,0,0,0,.1.611l4.3,3.148a.447.447,0,0,0,.619-.086l3.07-4.025a.439.439,0,0,0-.077-.611l-4.3-3.44a.447.447,0,0,0-.679.1Z" transform="translate(-247.098 -73.015)" fill="#464a5f"/>
      <path id="Path_209" data-name="Path 209" d="M1040.395,310.13l-3.028,4.3a.447.447,0,0,0,.095.611l4.3,3.148a.43.43,0,0,0,.61-.086l3.071-4.017a.447.447,0,0,0-.077-.619l-4.3-3.4a.447.447,0,0,0-.671.06Z" transform="translate(-248.154 -73.779)" fill="#464a5f"/>
      <path id="Path_210" data-name="Path 210" d="M1047.943,315.555l-3.028,4.3a.43.43,0,0,0,.095.611l4.3,3.148a.447.447,0,0,0,.619-.086L1053,319.5a.439.439,0,0,0-.077-.611l-4.3-3.44a.447.447,0,0,0-.679.1Z" transform="translate(-249.21 -74.533)" fill="#464a5f"/>
      <path id="Path_211" data-name="Path 211" d="M1055.493,320.969l-3.036,4.3a.438.438,0,0,0,.1.611l4.3,3.148a.439.439,0,0,0,.611-.086l3.071-4.017a.438.438,0,0,0-.077-.619l-4.3-3.4a.439.439,0,0,0-.671.06Z" transform="translate(-250.265 -75.295)" fill="#464a5f"/>
      <path id="Path_212" data-name="Path 212" d="M966.056,268.26l-2.434,3.44a.946.946,0,0,0,.206,1.307l3.44,2.58a.955.955,0,0,0,1.316-.189l2.469-3.234a.946.946,0,0,0-.163-1.316l-3.509-2.769A.955.955,0,0,0,966.056,268.26Z" transform="translate(-237.823 -67.895)" fill="#464a5f"/>
      <path id="Path_213" data-name="Path 213" d="M954.775,283.94l-2.443,3.44a.955.955,0,0,0,.215,1.307l3.44,2.58a.938.938,0,0,0,1.307-.181l2.477-3.242a.937.937,0,0,0-.172-1.307l-3.5-2.77a.946.946,0,0,0-1.325.172Z" transform="translate(-236.245 -70.089)" fill="#464a5f"/>
      <path id="Path_214" data-name="Path 214" d="M973.456,273.58l-2.434,3.44a.946.946,0,0,0,.206,1.307l3.44,2.58a.955.955,0,0,0,1.316-.189l2.468-3.234a.946.946,0,0,0-.163-1.316L974.78,273.4A.955.955,0,0,0,973.456,273.58Z" transform="translate(-238.859 -68.639)" fill="#464a5f"/>
      <path id="Path_215" data-name="Path 215" d="M981.226,279.156l-2.434,3.44A.946.946,0,0,0,979,283.9l3.44,2.58a.946.946,0,0,0,1.316-.189l2.468-3.234a.955.955,0,0,0-.163-1.316l-3.475-2.778a.946.946,0,0,0-1.359.189Z" transform="translate(-239.946 -69.416)" fill="#464a5f"/>
      <path id="Path_216" data-name="Path 216" d="M989.086,284.81l-2.434,3.44a.946.946,0,0,0,.206,1.307l3.44,2.58a.946.946,0,0,0,1.316-.189l2.468-3.234a.955.955,0,0,0-.163-1.316l-3.509-2.761a.946.946,0,0,0-1.325.172Z" transform="translate(-241.045 -70.211)" fill="#464a5f"/>
      <path id="Path_217" data-name="Path 217" d="M962.356,289.02l-2.434,3.44a.946.946,0,0,0,.206,1.307l3.44,2.58a.946.946,0,0,0,1.316-.189l2.469-3.234a.946.946,0,0,0-.172-1.316l-3.5-2.761A.946.946,0,0,0,962.356,289.02Z" transform="translate(-237.306 -70.8)" fill="#464a5f"/>
      <path id="Path_218" data-name="Path 218" d="M970.126,294.608l-2.434,3.44a.937.937,0,0,0,.206,1.3l3.44,2.58a.946.946,0,0,0,1.307-.189l2.477-3.234a.946.946,0,0,0-.172-1.316l-3.5-2.77a.946.946,0,0,0-1.325.189Z" transform="translate(-238.393 -71.58)" fill="#464a5f"/>
      <path id="Path_219" data-name="Path 219" d="M977.985,300.254l-2.443,3.44a.946.946,0,0,0,.215,1.3l3.44,2.58a.946.946,0,0,0,1.307-.189l2.477-3.234a.946.946,0,0,0-.172-1.316l-3.458-2.778a.946.946,0,0,0-1.368.2Z" transform="translate(-239.492 -72.366)" fill="#464a5f"/>
      <path id="Path_220" data-name="Path 220" d="M996.946,290.452l-2.434,3.44a.946.946,0,0,0,.206,1.307l3.44,2.58a.946.946,0,0,0,1.316-.189l2.468-3.234a.946.946,0,0,0-.172-1.316l-3.423-2.778a.946.946,0,0,0-1.4.189Z" transform="translate(-242.145 -70.993)" fill="#464a5f"/>
      <path id="Path_221" data-name="Path 221" d="M1004.806,296.11l-2.434,3.44a.946.946,0,0,0,.206,1.307l3.44,2.58a.938.938,0,0,0,1.307-.189l2.477-3.234a.946.946,0,0,0-.172-1.316l-3.5-2.761a.946.946,0,0,0-1.325.172Z" transform="translate(-243.245 -71.792)" fill="#464a5f"/>
      <path id="Path_222" data-name="Path 222" d="M1012.943,301.288l-3.036,4.3a.439.439,0,0,0,.1.611l4.3,3.148a.447.447,0,0,0,.619-.086l3.07-4.025a.43.43,0,0,0-.086-.611l-4.3-3.4a.43.43,0,0,0-.671.06Z" transform="translate(-244.312 -72.54)" fill="#464a5f"/>
      <path id="Path_223" data-name="Path 223" d="M1019.894,306.289l-3.028,4.3a.447.447,0,0,0,.095.611l4.3,3.148a.439.439,0,0,0,.611-.086l3.071-4.017a.447.447,0,0,0-.077-.619l-4.3-3.4a.439.439,0,0,0-.671.06Z" transform="translate(-245.286 -73.241)" fill="#464a5f"/>
      <path id="Path_224" data-name="Path 224" d="M1027.684,311.889l-3.027,4.3a.447.447,0,0,0,.095.611l4.3,3.148a.439.439,0,0,0,.61-.086l3.071-4.017a.447.447,0,0,0-.078-.619l-4.3-3.4a.439.439,0,0,0-.671.06Z" transform="translate(-246.376 -74.024)" fill="#464a5f"/>
      <path id="Path_225" data-name="Path 225" d="M1035.234,317.32l-3.028,4.3a.439.439,0,0,0,.095.611l4.3,3.157a.447.447,0,0,0,.611-.086l3.07-4.025a.447.447,0,0,0-.077-.619l-4.3-3.4a.447.447,0,0,0-.671.06Z" transform="translate(-247.432 -74.785)" fill="#464a5f"/>
      <path id="Path_226" data-name="Path 226" d="M975.856,286.63l-2.434,3.44a.946.946,0,0,0,.206,1.307l3.44,2.58a.946.946,0,0,0,1.316-.189l2.468-3.234a.946.946,0,0,0-.163-1.316l-3.509-2.761a.946.946,0,0,0-1.325.172Z" transform="translate(-239.194 -70.465)" fill="#464a5f"/>
      <path id="Path_227" data-name="Path 227" d="M983.716,292.28l-2.434,3.44a.946.946,0,0,0,.206,1.307l3.44,2.58a.946.946,0,0,0,1.316-.189l2.468-3.234a.946.946,0,0,0-.164-1.316l-3.509-2.761a.946.946,0,0,0-1.325.172Z" transform="translate(-240.294 -71.256)" fill="#464a5f"/>
      <path id="Path_228" data-name="Path 228" d="M991.576,297.94l-2.434,3.44a.946.946,0,0,0,.206,1.307l3.44,2.58a.955.955,0,0,0,1.316-.189l2.469-3.234a.946.946,0,0,0-.163-1.316l-3.509-2.77a.955.955,0,0,0-1.324.181Z" transform="translate(-241.394 -72.047)" fill="#464a5f"/>
      <path id="Path_229" data-name="Path 229" d="M999.436,303.58,997,307.02a.946.946,0,0,0,.206,1.307l3.441,2.58a.955.955,0,0,0,1.316-.189l2.469-3.234a.946.946,0,0,0-.164-1.316l-3.509-2.769A.955.955,0,0,0,999.436,303.58Z" transform="translate(-242.493 -72.837)" fill="#464a5f"/>
      <path id="Path_230" data-name="Path 230" d="M1007.573,308.755l-3.036,4.3a.439.439,0,0,0,.1.611l4.3,3.148a.447.447,0,0,0,.619-.086l3.07-4.025a.439.439,0,0,0-.077-.611l-4.3-3.44a.447.447,0,0,0-.679.1Z" transform="translate(-243.561 -73.582)" fill="#464a5f"/>
      <path id="Path_231" data-name="Path 231" d="M1014.494,313.755l-3.027,4.3a.439.439,0,0,0,.1.611l4.3,3.148a.439.439,0,0,0,.611-.086l3.071-4.025a.439.439,0,0,0-.077-.611l-4.3-3.44a.447.447,0,0,0-.679.1Z" transform="translate(-244.531 -74.282)" fill="#464a5f"/>
      <path id="Path_232" data-name="Path 232" d="M1022.323,319.355l-3.036,4.3a.439.439,0,0,0,.1.611l4.3,3.148a.439.439,0,0,0,.611-.086l3.07-4.025a.43.43,0,0,0-.077-.611l-4.3-3.44a.439.439,0,0,0-.671.1Z" transform="translate(-245.625 -75.065)" fill="#464a5f"/>
      <path id="Path_233" data-name="Path 233" d="M1029.865,324.786l-3.027,4.3a.447.447,0,0,0,.095.611l4.3,3.157a.439.439,0,0,0,.611-.095l3.07-4.017a.447.447,0,0,0-.077-.619l-4.3-3.44a.447.447,0,0,0-.671.1Z" transform="translate(-246.681 -75.826)" fill="#464a5f"/>
      <path id="Path_234" data-name="Path 234" d="M1042.783,322.738l-3.036,4.3a.439.439,0,0,0,.1.611l4.3,3.148a.447.447,0,0,0,.619-.086l3.071-4.017a.448.448,0,0,0-.077-.619l-4.3-3.4a.43.43,0,0,0-.679.06Z" transform="translate(-248.487 -75.541)" fill="#464a5f"/>
      <path id="Path_235" data-name="Path 235" d="M1050.324,328.166l-3.027,4.3a.447.447,0,0,0,.095.611l4.3,3.157a.438.438,0,0,0,.61-.095l3.071-4.017a.447.447,0,0,0-.077-.619l-4.3-3.44a.447.447,0,0,0-.671.1Z" transform="translate(-249.544 -76.299)" fill="#464a5f"/>
      <path id="Path_236" data-name="Path 236" d="M1016.517,327.464l-2.856,4.025a.585.585,0,0,0,.129.817l4.034,2.976a.6.6,0,0,0,.86-.12l2.89-3.784a.593.593,0,0,0-.1-.86l-4.068-3.208a.6.6,0,0,0-.886.155Z" transform="translate(-244.833 -76.19)" fill="#464a5f"/>
      <path id="Path_237" data-name="Path 237" d="M1024.046,332.9l-2.847,4.017a.6.6,0,0,0,.129.86l4.034,2.976a.585.585,0,0,0,.86-.12l2.9-3.784a.593.593,0,0,0-.112-.86l-4.068-3.208a.593.593,0,0,0-.895.12Z" transform="translate(-245.886 -76.952)" fill="#464a5f"/>
      <path id="Path_238" data-name="Path 238" d="M1031.6,338.314l-2.855,4.025a.594.594,0,0,0,.138.817l4.025,2.976a.594.594,0,0,0,.86-.12l2.89-3.784a.585.585,0,0,0-.1-.86l-4.068-3.208a.6.6,0,0,0-.886.155Z" transform="translate(-246.944 -77.708)" fill="#464a5f"/>
      <path id="Path_239" data-name="Path 239" d="M1039.224,343.606l-3.027,4.3a.447.447,0,0,0,.095.611l4.3,3.157a.439.439,0,0,0,.611-.095l3.07-4.017a.447.447,0,0,0-.077-.619l-4.3-3.44a.447.447,0,0,0-.671.1Z" transform="translate(-247.991 -78.459)" fill="#464a5f"/>
      <path id="Path_240" data-name="Path 240" d="M960.382,275.674l-2.58,3.69a.946.946,0,0,0,.224,1.316l10.106,7.19a.946.946,0,0,0,1.3-.2l2.752-3.587a.938.938,0,0,0-.206-1.342l-10.261-7.294a.946.946,0,0,0-1.333.224Z" transform="translate(-237.009 -68.927)" fill="#464a5f"/>
      <path id="Path_241" data-name="Path 241" d="M1037.241,330.287l-3.174,4.515a.439.439,0,0,0,.1.611l10.914,7.741a.438.438,0,0,0,.6-.095l3.363-4.386a.439.439,0,0,0-.095-.628l-11.1-7.887a.439.439,0,0,0-.619.129Z" transform="translate(-247.693 -76.596)" fill="#464a5f"/>
      <path id="Path_242" data-name="Path 242" d="M985.9,305.49l-3.053,4.2a.456.456,0,0,0,.095.619l23.652,17.443a.439.439,0,0,0,.611-.095l3.337-4.378a.439.439,0,0,0-.095-.628L986.519,305.4a.439.439,0,0,0-.619.095Z" transform="translate(-240.526 -73.13)" fill="#464a5f"/>
      <path id="Path_243" data-name="Path 243" d="M968.039,310.995l-13.383,18.518a2.4,2.4,0,0,0,.516,3.337l34.541,25.536a2.408,2.408,0,0,0,3.372-.516l13.813-18.922a2.4,2.4,0,0,0-.533-3.372l-34.971-25.158a2.408,2.408,0,0,0-3.354.576Z" transform="translate(-236.529 -73.783)" opacity="0.1"/>
      <path id="Path_244" data-name="Path 244" d="M967.918,310.255l-13.392,18.509a2.417,2.417,0,0,0,.525,3.346l34.541,25.536a2.408,2.408,0,0,0,3.372-.516l13.813-18.922a2.408,2.408,0,0,0-.542-3.372l-34.963-25.158A2.408,2.408,0,0,0,967.918,310.255Z" transform="translate(-236.512 -73.68)" fill="#939498"/>
      <path id="Path_245" data-name="Path 245" d="M972.18,210.425l.576,28.959,87.239,62.5-.774-28.684a5.023,5.023,0,0,0-2.047-3.939l-83.429-59.673a1,1,0,0,0-1.565.834Z" transform="translate(-239.045 -59.713)" fill="#eee7df"/>
      <rect id="Rectangle_37" data-name="Rectangle 37" width="52.5" height="78.062" rx="2.91" transform="translate(0 306.637) rotate(-35.68)" fill="#3a3768"/>
      <rect id="Rectangle_38" data-name="Rectangle 38" width="43.538" height="15.344" rx="0.18" transform="translate(7.811 309.286) rotate(-35.68)" opacity="0.1"/>
      <rect id="Rectangle_39" data-name="Rectangle 39" width="42.884" height="14.845" rx="3.35" transform="translate(8.212 309.358) rotate(-35.68)" fill="#e6e8ec"/>
      <rect id="Rectangle_40" data-name="Rectangle 40" width="8.661" height="9.624" rx="1.39" transform="translate(21.726 326.058) rotate(-35.68)" opacity="0.1"/>
      <rect id="Rectangle_41" data-name="Rectangle 41" width="8.629" height="9.588" rx="1.385" transform="translate(28.88 319.537) rotate(-35.605)" opacity="0.1"/>
      <rect id="Rectangle_42" data-name="Rectangle 42" width="8.661" height="9.624" rx="1.39" transform="translate(38.917 313.711) rotate(-35.68)" opacity="0.1"/>
      <rect id="Rectangle_43" data-name="Rectangle 43" width="8.661" height="9.624" rx="1.59" transform="translate(47.636 307.709) rotate(-35.68)" opacity="0.1"/>
      <rect id="Rectangle_44" data-name="Rectangle 44" width="8.661" height="9.624" rx="1.39" transform="translate(27.89 334.66) rotate(-35.68)" opacity="0.1"/>
      <rect id="Rectangle_45" data-name="Rectangle 45" width="8.661" height="9.624" rx="1.39" transform="translate(36.495 328.48) rotate(-35.68)" opacity="0.1"/>
      <rect id="Rectangle_46" data-name="Rectangle 46" width="8.661" height="9.624" rx="1.39" transform="translate(45.085 322.305) rotate(-35.68)" opacity="0.1"/>
      <rect id="Rectangle_47" data-name="Rectangle 47" width="8.661" height="9.624" rx="1.39" transform="translate(34.715 344.142) rotate(-35.68)" opacity="0.1"/>
      <rect id="Rectangle_48" data-name="Rectangle 48" width="8.661" height="9.624" rx="1.39" transform="translate(43.304 337.967) rotate(-35.68)" opacity="0.1"/>
      <rect id="Rectangle_49" data-name="Rectangle 49" width="8.661" height="9.624" rx="1.39" transform="translate(51.906 331.803) rotate(-35.68)" opacity="0.1"/>
      <rect id="Rectangle_50" data-name="Rectangle 50" width="8.661" height="9.624" rx="1.39" transform="translate(58.715 341.29) rotate(-35.68)" opacity="0.1"/>
      <rect id="Rectangle_51" data-name="Rectangle 51" width="8.661" height="9.624" rx="0.91" transform="translate(53.802 316.298) rotate(-35.68)" opacity="0.1"/>
      <rect id="Rectangle_52" data-name="Rectangle 52" width="19.24" height="9.624" rx="2.18" transform="translate(41.519 353.629) rotate(-35.68)" opacity="0.1"/>
      <rect id="Rectangle_53" data-name="Rectangle 53" width="9.487" height="21.304" rx="2.07" transform="translate(59.822 326.106) rotate(-35.68)" opacity="0.1"/>
      <rect id="Rectangle_54" data-name="Rectangle 54" width="3.793" height="0.413" transform="translate(45.55 297.643) rotate(-35.68)" fill="#6c63ff"/>
      <rect id="Rectangle_55" data-name="Rectangle 55" width="3.793" height="0.413" transform="translate(41.04 300.877) rotate(-35.68)" fill="#6c63ff"/>
      <rect id="Rectangle_56" data-name="Rectangle 56" width="3.793" height="0.413" transform="translate(36.53 304.112) rotate(-35.68)" fill="#6c63ff"/>
      <rect id="Rectangle_57" data-name="Rectangle 57" width="3.793" height="0.413" transform="translate(32.026 307.353) rotate(-35.68)" fill="#6c63ff"/>
      <g id="Group_12" data-name="Group 12" transform="translate(488.104 60.11)" opacity="0.1">
        <path id="Path_246" data-name="Path 246" d="M743.806,105.25H690.094a2.813,2.813,0,0,0-2.8,2.8v33.965a2.821,2.821,0,0,0,2.8,2.812h42.144s1.092,5.788-2.494,6.416c0,0,8.033.576,6.631-6.416h7.431a2.821,2.821,0,0,0,2.812-2.812V108.054A2.821,2.821,0,0,0,743.806,105.25Z" transform="translate(-687.29 -105.25)"/>
        <g id="Group_11" data-name="Group 11" transform="translate(7.913 9.005)" opacity="0.2">
          <rect id="Rectangle_58" data-name="Rectangle 58" width="43.503" height="2.649" rx="1.325"/>
          <rect id="Rectangle_59" data-name="Rectangle 59" width="43.503" height="2.649" rx="1.325" transform="translate(0 11.852)"/>
          <rect id="Rectangle_60" data-name="Rectangle 60" width="36.485" height="2.649" rx="1.325" transform="translate(0 17.778)"/>
          <rect id="Rectangle_61" data-name="Rectangle 61" width="18.862" height="2.649" rx="1.325" transform="translate(0 5.926)"/>
        </g>
      </g>
      <path id="Path_247" data-name="Path 247" d="M744.346,105h-53.7a2.813,2.813,0,0,0-2.812,2.8v33.931a2.812,2.812,0,0,0,2.813,2.83h42.144s1.092,5.8-2.494,6.416c0,0,8.025.576,6.623-6.416h7.448a2.813,2.813,0,0,0,2.8-2.8V107.787A2.812,2.812,0,0,0,744.346,105Z" transform="translate(-199.262 -45.105)" fill="#f9fafb"/>
      <g id="Group_13" data-name="Group 13" transform="translate(496.481 68.883)" opacity="0.2">
        <rect id="Rectangle_62" data-name="Rectangle 62" width="43.503" height="2.649" rx="1.325" fill="#6c63ff"/>
        <rect id="Rectangle_63" data-name="Rectangle 63" width="43.503" height="2.649" rx="1.325" transform="translate(0 11.852)" fill="#6c63ff"/>
        <rect id="Rectangle_64" data-name="Rectangle 64" width="36.485" height="2.649" rx="1.325" transform="translate(0 17.769)" fill="#6c63ff"/>
        <rect id="Rectangle_65" data-name="Rectangle 65" width="18.862" height="2.649" rx="1.325" transform="translate(0 5.926)" fill="#6c63ff"/>
      </g>
      <g id="Group_15" data-name="Group 15" transform="translate(528.502 2.269)" opacity="0.1">
        <path id="Path_248" data-name="Path 248" d="M802.224,38H737.632a3.38,3.38,0,0,0-3.372,3.44V82.209a3.38,3.38,0,0,0,3.372,3.38h50.676s1.307,6.967-3,7.741c0,0,9.659.688,7.964-7.741h8.953a3.389,3.389,0,0,0,3.38-3.38V41.44a3.38,3.38,0,0,0-3.38-3.44Z" transform="translate(-734.259 -38)"/>
        <g id="Group_14" data-name="Group 14" transform="translate(9.513 10.854)" opacity="0.2">
          <rect id="Rectangle_66" data-name="Rectangle 66" width="52.328" height="3.191" rx="1.595"/>
          <rect id="Rectangle_67" data-name="Rectangle 67" width="43.176" height="3.191" rx="1.595" transform="translate(0 14.252)"/>
          <rect id="Rectangle_68" data-name="Rectangle 68" width="31.084" height="3.191" rx="1.595" transform="translate(0 7.13)"/>
        </g>
      </g>
      <path id="Path_249" data-name="Path 249" d="M803.2,37.37H738.612a3.38,3.38,0,0,0-3.372,3.38V81.561a3.38,3.38,0,0,0,3.371,3.372h50.677s1.307,6.967-3,7.741c0,0,9.659.7,7.973-7.741H803.2a3.389,3.389,0,0,0,3.38-3.372V40.75a3.389,3.389,0,0,0-3.38-3.38Z" transform="translate(-205.895 -35.643)" fill="#f9fafb"/>
      <g id="Group_16" data-name="Group 16" transform="translate(538.858 12.565)" opacity="0.2">
        <rect id="Rectangle_69" data-name="Rectangle 69" width="52.328" height="3.191" rx="1.595" fill="#6c63ff"/>
        <rect id="Rectangle_70" data-name="Rectangle 70" width="43.176" height="3.191" rx="1.595" transform="translate(0 14.252)" fill="#6c63ff"/>
        <rect id="Rectangle_71" data-name="Rectangle 71" width="31.084" height="3.191" rx="1.595" transform="translate(0 7.122)" fill="#6c63ff"/>
      </g>
      <path id="Path_250" data-name="Path 250" d="M321.378,549.957l58.34-21.795a5.539,5.539,0,0,1,7.139,3.26h0a5.548,5.548,0,0,1-3.251,7.139l-58.34,21.795L312.76,559.1Z" transform="translate(-146.785 -104.26)" fill="#be8b87"/>
      <path id="Path_251" data-name="Path 251" d="M385.093,529.834h0a5.556,5.556,0,0,1-3.251,7.147L323.5,558.776l-9.384-.946-1.359,1.436,12.506,1.256,58.34-21.795a5.548,5.548,0,0,0,3.251-7.139h0a5.53,5.53,0,0,0-2.271-2.778A5.4,5.4,0,0,1,385.093,529.834Z" transform="translate(-146.785 -104.4)" fill="#fff" opacity="0.1"/>
      <path id="Path_252" data-name="Path 252" d="M200.448,516.19l3.888,10.4-10.261-1.032-2.245-.224,3.062-3.251Z" transform="translate(-25.847 -70.493)" fill="#efc8c4"/>
      <path id="Path_253" data-name="Path 253" d="M315.831,560.41a2.253,2.253,0,0,1,.594.654.937.937,0,0,1,0,1.015,2.386,2.386,0,0,1-.559.4,1.875,1.875,0,0,0-.86,1.4l-2.245-.224Z" transform="translate(-146.785 -108.822)" fill="#727a9c"/>
      <path id="Path_344" data-name="Path 344" d="M18.2,0h0Z" transform="translate(549.427 468.739) rotate(-44.65)" fill="#f9fafb"/>
      <path id="Path_280" data-name="Path 280" d="M666.2,402.98c-.069.163-.112.241-.112.241l-29.011,27.007-.86.052-9.908.593-7.19-58.323s1.178,1.075,3.139,2.692c5.711,4.7,18.062,14.037,27.523,15.267C659.088,391.721,664.154,399.1,666.2,402.98Z" transform="translate(-189.648 -82.538)" fill="none"/>
    </g>
    <g id="Group_9" data-name="Group 9" transform="translate(1014.266 326.465)">
      <path id="Path_6" data-name="Path 6" d="M1004.4,155.777h25.061a171.349,171.349,0,0,0-13.343-16.32c-3.727-4.065-7.638-8.031-11.733-11.847Z" transform="translate(-555.838 -127.61)" fill="#6c63ff" opacity="0.1"/>
      <path id="Path_7" data-name="Path 7" d="M1004.42,187.715v58.237h45.545c0-.169-.03-.343-.045-.5-.04-.457-.08-.914-.124-1.377s-.1-1.073-.164-1.615-.119-1.168-.189-1.744-.129-1.168-.2-1.749-.144-1.163-.224-1.739-.154-1.163-.244-1.739c-.07-.5-.134-.954-.209-1.436-.1-.676-.214-1.357-.328-2.028a2.871,2.871,0,0,0-.055-.3,124.819,124.819,0,0,0-3.349-14.625,100.6,100.6,0,0,0-5.65-14.844,107.789,107.789,0,0,0-8.5-14.561Z" transform="translate(-555.854 -157.839)" fill="#6c63ff" opacity="0.1"/>
      <path id="Path_11" data-name="Path 11" d="M811.56,151.5v49.9h34.354V151.5h-4.9V134.6H820.908v16.9Z" transform="translate(-408.26 -113.281)" fill="#6c63ff" opacity="0.1"/>
      <rect id="Rectangle_2" data-name="Rectangle 2" width="34.354" height="55.38" transform="translate(403.3 89.823)" fill="#eee7df" opacity="0.1"/>
      <path id="Path_12" data-name="Path 12" d="M947.689,423.25H913.34V469.3a100.1,100.1,0,0,0,12.354,2.336l1.024.109c.5.055.994.1,1.491.139l1.491.1h.154a5.015,5.015,0,0,1,.666.03h.229a7.4,7.4,0,0,1,.81.03h0c.383,0,.77,0,1.158.03h3.19l.875-.03c.462,0,.934-.04,1.4-.075l.865-.055,1.078-.084c.755-.065,1.491-.139,2.256-.229l.9-.114.442-.055c.75-.1,1.491-.214,2.241-.343.557-.084,1.1-.189,1.66-.288Z" transform="translate(-510.035 -276.333)" fill="#6c63ff" opacity="0.1"/>
      <rect id="Rectangle_3" data-name="Rectangle 3" width="28.331" height="55.787" transform="translate(188.539 32.321)" fill="#6c63ff" opacity="0.1"/>
      <path id="Path_13" data-name="Path 13" d="M379.4,272.45v55.385H520.006V303.946H445.111V318.04H407.726V272.45Z" transform="translate(-190.861 -182.627)" fill="#6c63ff" opacity="0.1"/>
      <path id="Path_14" data-name="Path 14" d="M480.27,481.865h.447V518.2q7.618-.576,15.177-1.56a272.039,272.039,0,0,0,65.741-17.05q9.064-3.638,17.756-7.921a231.166,231.166,0,0,0,27.764-16.136q3.325-2.256,6.545-4.617c1.491-1.1,2.982-2.216,4.472-3.3,1.039-.745,2.087-1.491,3.151-2.192V422.48h-111.9c.079-.253.154-.5.234-.76-.084.253-.169.5-.243.76H480.717v59.36Z" transform="translate(-292.178 -275.563)" fill="#6c63ff" opacity="0.1"/>
      <path id="Path_15" data-name="Path 15" d="M332.5,163.745h18.457v-5.114h-8.269V143.45c-.716.234-1.431.5-2.142.721v14.461H332.5Z" transform="translate(-217.842 -135.578)" fill="#6c63ff" opacity="0.1"/>
      <path id="Path_16" data-name="Path 16" d="M243,245.967H350.445V190.175h-4.761v41.247H323.918v-24.41H305.933V187.73H287.477v19.282H269.5v24.4H243Z" transform="translate(-172.818 -157.854)" fill="#6c63ff" opacity="0.1"/>
      <path id="Path_17" data-name="Path 17" d="M213.32,308.36v55.385H320.765V308.36Zm3.752,136.784a254.017,254.017,0,0,0,64.469,15.3h.094q6.257.661,12.548,1.024h.154c8.791.5,17.617.611,26.428.283V365.454H213.32v19.634H184l.154,43.836" transform="translate(-143.138 -218.537)" fill="#6c63ff" opacity="0.1"/>
      <path id="Path_18" data-name="Path 18" d="M132.871,423.25H107.81a70.073,70.073,0,0,0,8.314,32.5,79.7,79.7,0,0,0,18.64,22.363V442.884h-1.893Z" transform="translate(-104.81 -276.333)" fill="#6c63ff" opacity="0.1"/>
      <path id="Path_19" data-name="Path 19" d="M107.77,372.956h25.081V326.67H119.279C112.257,341.245,107.795,357.267,107.77,372.956Z" transform="translate(-104.79 -227.748)" fill="#6c63ff" opacity="0.1"/>
      <rect id="Rectangle_4" data-name="Rectangle 4" width="15.177" height="17.493" transform="translate(188.539 47.831)" fill="#6c63ff" opacity="0.1"/>
      <rect id="Rectangle_5" data-name="Rectangle 5" width="15.177" height="4.025" transform="translate(188.539 84.088)" fill="#6c63ff" opacity="0.1"/>
      <rect id="Rectangle_6" data-name="Rectangle 6" width="15.177" height="11.753" transform="translate(188.539 89.823)" fill="#6c63ff" opacity="0.1"/>
      <rect id="Rectangle_7" data-name="Rectangle 7" width="15.177" height="17.493" transform="translate(188.539 120.34)" fill="#6c63ff" opacity="0.1"/>
      <rect id="Rectangle_8" data-name="Rectangle 8" width="15.177" height="17.493" transform="translate(188.539 156.598)" fill="#6c63ff" opacity="0.1"/>
      <path id="Path_20" data-name="Path 20" d="M480.717,529.1h0v4.06h15.177V515.67H480.717Z" transform="translate(-292.178 -322.825)" fill="#6c63ff" opacity="0.1"/>
      <path id="Path_21" data-name="Path 21" d="M481.17,588.63v13.512q7.618-.577,15.177-1.56V588.655Z" transform="translate(-292.631 -359.528)" fill="#6c63ff" opacity="0.1"/>
      <rect id="Rectangle_9" data-name="Rectangle 9" width="65.04" height="1.282" transform="translate(264.105 143.921)" fill="#6c63ff" opacity="0.1"/>
      <rect id="Rectangle_10" data-name="Rectangle 10" width="65.04" height="4.925" transform="translate(264.105 146.917)" fill="#6c63ff" opacity="0.1"/>
      <rect id="Rectangle_11" data-name="Rectangle 11" width="65.04" height="7.921" transform="translate(264.105 167.983)" fill="#6c63ff" opacity="0.1"/>
      <path id="Path_22" data-name="Path 22" d="M633.23,514.06v7.921h50.877q3.315-2.251,6.545-4.622c1.491-1.093,2.982-2.211,4.473-3.295Z" transform="translate(-369.125 -322.015)" fill="#6c63ff" opacity="0.1"/>
      <path id="Path_23" data-name="Path 23" d="M633.23,562.47v7.921h5.352q9.059-3.628,17.751-7.921Z" transform="translate(-369.125 -346.368)" fill="#6c63ff" opacity="0.1"/>
      <rect id="Rectangle_12" data-name="Rectangle 12" width="12.801" height="11.385" transform="translate(151.199 106.58) rotate(180)" fill="#6c63ff" opacity="0.1"/>
      <rect id="Rectangle_13" data-name="Rectangle 13" width="12.801" height="11.385" transform="translate(428.425 53.526) rotate(180)" fill="#6c63ff" opacity="0.1"/>
      <rect id="Rectangle_14" data-name="Rectangle 14" width="12.801" height="11.385" transform="translate(428.425 79.974) rotate(180)" fill="#6c63ff" opacity="0.1"/>
      <rect id="Rectangle_15" data-name="Rectangle 15" width="12.801" height="11.385" transform="translate(428.425 106.416) rotate(180)" fill="#6c63ff" opacity="0.1"/>
      <rect id="Rectangle_16" data-name="Rectangle 16" width="12.801" height="11.385" transform="translate(428.425 132.864) rotate(180)" fill="#6c63ff" opacity="0.1"/>
      <rect id="Rectangle_17" data-name="Rectangle 17" width="12.801" height="11.385" transform="translate(428.425 159.316) rotate(180)" fill="#6c63ff" opacity="0.1"/>
      <rect id="Rectangle_18" data-name="Rectangle 18" width="12.801" height="11.385" transform="translate(428.425 185.758) rotate(180)" fill="#6c63ff" opacity="0.1"/>
      <rect id="Rectangle_19" data-name="Rectangle 19" width="12.801" height="11.385" transform="translate(102.319 106.58) rotate(180)" fill="#6c63ff" opacity="0.1"/>
      <rect id="Rectangle_20" data-name="Rectangle 20" width="12.801" height="11.385" transform="translate(151.199 134.658) rotate(180)" fill="#6c63ff" opacity="0.1"/>
      <rect id="Rectangle_21" data-name="Rectangle 21" width="12.801" height="11.385" transform="translate(102.319 134.658) rotate(180)" fill="#6c63ff" opacity="0.1"/>
      <rect id="Rectangle_22" data-name="Rectangle 22" width="12.801" height="11.385" transform="translate(151.199 162.74) rotate(180)" fill="#6c63ff" opacity="0.1"/>
      <rect id="Rectangle_23" data-name="Rectangle 23" width="12.801" height="11.385" transform="translate(102.319 162.74) rotate(180)" fill="#6c63ff" opacity="0.1"/>
      <rect id="Rectangle_24" data-name="Rectangle 24" width="12.801" height="11.385" transform="translate(151.199 190.822) rotate(180)" fill="#6c63ff" opacity="0.1"/>
      <rect id="Rectangle_25" data-name="Rectangle 25" width="12.801" height="11.385" transform="translate(102.319 190.822) rotate(180)" fill="#6c63ff" opacity="0.1"/>
      <rect id="Rectangle_26" data-name="Rectangle 26" width="12.801" height="11.385" transform="translate(151.199 218.91) rotate(180)" fill="#6c63ff" opacity="0.1"/>
      <rect id="Rectangle_27" data-name="Rectangle 27" width="12.801" height="11.385" transform="translate(102.319 218.91) rotate(180)" fill="#6c63ff" opacity="0.1"/>
      <path id="Path_24" data-name="Path 24" d="M291.3,573.15v-7.34H278.5v6.3Z" transform="translate(-140.103 -330.203)" fill="#6c63ff" opacity="0.1"/>
      <path id="Path_25" data-name="Path 25" d="M1004.42,276.26v6.515h43.816V276.26Zm39.452.412h3.573v5.7h-3.593Zm-4.363,0h3.593v5.7h-3.608Zm-4.353,0h3.593v5.7h-3.593Zm-4.363,0h3.593v5.7h-3.593Zm-4.358,0h3.618v5.7h-3.593Zm-4.363,0h3.593v5.7h-3.593Zm-4.363,0h3.593v5.7h-3.593Zm-4.358,0h3.593v5.7h-3.593Zm-4.358,0h3.593v5.7h-3.593Zm-4.358,0h3.593v5.7h-3.593Z" transform="translate(-555.854 -202.389)" fill="#6c63ff" opacity="0.1"/>
      <path id="Path_26" data-name="Path 26" d="M1004.42,314.42v6.515h43.816V314.42Zm39.452.412h3.573v5.69h-3.593Zm-4.363,0h3.593v5.69h-3.608Zm-4.353,0h3.593v5.69h-3.593Zm-4.363,0h3.593v5.69h-3.593Zm-4.358,0h3.618v5.69h-3.593Zm-4.363,0h3.593v5.69h-3.593Zm-4.363,0h3.593v5.69h-3.593Zm-4.358,0h3.593v5.69h-3.593Zm-4.358,0h3.593v5.69h-3.593Zm-4.358,0h3.593v5.69h-3.593Z" transform="translate(-555.854 -221.585)" fill="#6c63ff" opacity="0.1"/>
      <path id="Path_27" data-name="Path 27" d="M1004.42,352.57v6.51h43.816v-6.51Zm39.452.408h3.573v5.7h-3.593Zm-4.363,0h3.593v5.7h-3.608Zm-4.353,0h3.593v5.7h-3.593Zm-4.363,0h3.593v5.7h-3.593Zm-4.358,0h3.618v5.7h-3.593Zm-4.363,0h3.593v5.7h-3.593Zm-4.363,0h3.593v5.7h-3.593Zm-4.358,0h3.593v5.7h-3.593Zm-4.358,0h3.593v5.7h-3.593Zm-4.358,0h3.593v5.7h-3.593Z" transform="translate(-555.854 -240.777)" fill="#6c63ff" opacity="0.1"/>
      <path id="Path_28" data-name="Path 28" d="M1004.42,390.72v6.51h43.816v-6.51Zm39.452.408h3.573v5.7h-3.593Zm-4.363,0h3.593v5.7h-3.608Zm-4.353,0h3.593v5.7h-3.593Zm-4.363,0h3.593v5.7h-3.593Zm-4.358,0h3.618v5.7h-3.593Zm-4.363,0h3.593v5.7h-3.593Zm-4.363,0h3.593v5.7h-3.593Zm-4.358,0h3.593v5.7h-3.593Zm-4.358,0h3.593v5.7h-3.593Zm-4.358,0h3.593v5.7h-3.593Z" transform="translate(-555.854 -259.968)" fill="#6c63ff" opacity="0.1"/>
      <path id="Path_29" data-name="Path 29" d="M1004.42,428.87v6.525h41.2c.06-.134.119-.273.174-.408h-1.918v-5.7h3.573V430.7c.209-.606.407-1.213.581-1.829Zm35.089.412h3.593v5.69h-3.608Zm-4.353,0h3.593v5.69h-3.593Zm-4.363,0h3.593v5.69h-3.593Zm-4.358,0h3.618v5.69h-3.593Zm-4.363,0h3.593v5.69h-3.593Zm-4.363,0h3.593v5.69h-3.593Zm-4.358,0h3.593v5.69h-3.593Zm-4.358,0h3.593v5.69h-3.593Zm-4.358,0h3.593v5.69h-3.593Z" transform="translate(-555.854 -279.16)" fill="#6c63ff" opacity="0.1"/>
      <path id="Path_30" data-name="Path 30" d="M1004.42,467v6.51h27.387c.159-.134.3-.278.442-.407h-1.456v-5.68h3.593v3.553l.77-.82v-2.733h2.38c.114-.139.224-.278.338-.408Zm22.015.408h3.618v5.7h-3.593Zm-4.363,0h3.593v5.7h-3.593Zm-4.363,0h3.593v5.7h-3.593Zm-4.358,0h3.593v5.7h-3.593Zm-4.358,0h3.593v5.7h-3.593Zm-4.358,0h3.593v5.7h-3.593Z" transform="translate(-555.854 -298.341)" fill="#6c63ff" opacity="0.1"/>
      <path id="Path_31" data-name="Path 31" d="M1004.42,505.18v3.941a1.547,1.547,0,0,0,.214-.075v-3.479h3.593v2.117l.765-.313v-1.784h3.593v.2c.422-.194.84-.4,1.252-.6Z" transform="translate(-555.854 -317.548)" fill="#6c63ff" opacity="0.1"/>
      <path id="Path_32" data-name="Path 32" d="M425.33,244.247h.025Zm27.3,118.179h0Zm29.141-59.385h0c.079-.253.154-.5.238-.765C481.927,302.533,481.848,302.787,481.773,303.04ZM425.33,244.247h.025ZM677.187,184.29V186H697.3v-1.71ZM452.632,362.425h0Zm29.141-59.385h0c.079-.253.154-.5.238-.765C481.927,302.533,481.848,302.787,481.773,303.04ZM425.33,244.247h.025Zm27.3,118.179h0Zm29.141-59.385h0c.079-.253.154-.5.238-.765C481.927,302.533,481.848,302.787,481.773,303.04Z" transform="translate(-264.54 -156.123)" fill="#6c63ff" opacity="0.1"/>
      <ellipse id="Ellipse_1" data-name="Ellipse 1" cx="17.184" cy="1.903" rx="17.184" ry="1.903" transform="translate(431.531 360.316)" fill="#6c63ff" opacity="0.1"/>
      <path id="Path_33" data-name="Path 33" d="M658.9,502.169l-8.587-.472-.581-24.663-.134-5.874,9.059-1.67.06,7.573Z" transform="translate(-326.786 -281.749)" fill="#d48a9b"/>
      <path id="Path_34" data-name="Path 34" d="M608.026,525.161,563.9,552.6l-.954,8.349,4.771.239v-5.963L596.576,539,561.75,582.176v6.679h5.725L567,581.46l40.312-45.8,5.009.477,42.464,48.184.954,8.115,5.725.239-.954-8.354-33.633-41.982,22.422,15.5.477,6.679,4.532.239-.477-8.11-42.7-32.923Z" transform="translate(-282.592 -309.034)" fill="#d48a9b"/>
      <path id="Path_35" data-name="Path 35" d="M638.79,400.3a78.721,78.721,0,0,0,10.4-16.941c3.036-6.719,6.366-14.476,6.619-16.772.5-4.294,12.642-12.881,26-13.358,8.712-.313,22.283-7.111,30.681-11.807a62.451,62.451,0,0,1,25.742-7.951c9.825-.74,19.063,1.188,14.411,12.588L690.174,421.7s-53.273,9.387-56.557-5.7a12.55,12.55,0,0,0-.76-2.216C632.236,412.354,632.072,408.632,638.79,400.3Z" transform="translate(-368.797 -231.098)" fill="#d9d6df"/>
      <path id="Path_36" data-name="Path 36" d="M648.783,406.026a81.036,81.036,0,0,0,10.5-17.095c2.833-6.281,5.839-13.323,6.078-15.455.457-4.1,12.1-12.3,24.877-12.762,8.334-.3,21.319-6.788,29.35-11.276a59.837,59.837,0,0,1,24.639-7.573c9.4-.706,18.238,1.138,13.805,12.026l-49.55,72.554s-61.124,8.672-64.36-5.675a14.337,14.337,0,0,0-.76-2.226C642.795,417.123,642.715,413.64,648.783,406.026Z" transform="translate(-374.098 -235.325)" fill="#ababab" opacity="0.2"/>
      <path id="Path_37" data-name="Path 37" d="M760.489,512.979c-2.872,0-5.9,0-8.985-.03l-.134-5.874,9.059-1.665Z" transform="translate(-428.556 -317.664)" opacity="0.1"/>
      <g id="Group_7" data-name="Group 7" transform="translate(279.158 225.196)" opacity="0.1">
        <path id="Path_38" data-name="Path 38" d="M715.222,573.8,692.8,558.3l2.569,3.205,19.853,13.731.477,6.679,4.532.238-.084-1.436-4.448-.234Z" transform="translate(-627.675 -551.621)"/>
        <path id="Path_39" data-name="Path 39" d="M573.75,567.8v1.431L600.5,554.2l2.112-2.619Z" transform="translate(-567.787 -548.241)"/>
        <path id="Path_40" data-name="Path 40" d="M561.75,651.9v1.431h5.725l-.094-1.431Z" transform="translate(-561.75 -598.707)"/>
        <path id="Path_41" data-name="Path 41" d="M568.921,595.989l-4.612-.229-.159,1.421,4.771.238Z" transform="translate(-562.957 -570.465)"/>
        <path id="Path_42" data-name="Path 42" d="M661.05,601.636l-.954-8.115-42.464-48.184-5.009-.477-40.312,45.8.085,1.337,40.228-45.7,5.009.477L660.1,594.952l.954,8.115,5.725.239-.164-1.441Z" transform="translate(-567.062 -544.86)"/>
      </g>
      <path id="Path_43" data-name="Path 43" d="M759.52,426.06s11.171,8.17,6.281,8.264S759.52,426.06,759.52,426.06Z" transform="translate(-432.656 -277.746)" opacity="0.1"/>
      <path id="Path_44" data-name="Path 44" d="M665.2,429.429S683.686,428,690.6,414.64c0,0,14.074-27.913,25.528-31.014s32.679-10.018,41.5-20.752,12.528-18.963,12.528-18.963,2.276,8.687-4.895,18.929-9.78,26.015-14.789,42.737-6.917,23.356-15.982,24.35c-6.833.721-42.961.358-60.235,0C668.614,429.772,665.2,429.429,665.2,429.429Z" transform="translate(-385.208 -236.421)" fill="#e6e6e6"/>
      <path id="Path_45" data-name="Path 45" d="M665.2,429.429S683.686,428,690.6,414.64c0,0,14.074-27.913,25.528-31.014s32.679-10.018,41.5-20.752,12.528-18.963,12.528-18.963,2.276,8.687-4.895,18.929-9.78,26.015-14.789,42.737-6.917,23.356-15.982,24.35c-6.833.721-42.961.358-60.235,0C668.614,429.772,665.2,429.429,665.2,429.429Z" transform="translate(-385.208 -236.421)" fill="#dda2a6" opacity="0.2"/>
      <path id="Path_46" data-name="Path 46" d="M674.56,432.176s17.671-1.386,24.281-14.322c0,0,13.457-27.024,24.4-30.026s31.238-9.705,39.676-20.1,11.971-18.362,11.971-18.362,2.162,8.448-4.676,18.362-9.348,25.175-14.138,41.346-6.609,22.636-15.276,23.56c-6.53.7-41.063.343-57.576,0C677.825,432.534,674.56,432.176,674.56,432.176Z" transform="translate(-389.916 -239.167)" fill="#e1dee5"/>
      <path id="Path_47" data-name="Path 47" d="M645.76,495.6s9.661,3.7,15.147,1.67,19.083-7.991,19.083-7.991S657.09,490.731,645.76,495.6Z" transform="translate(-375.428 -309.549)" opacity="0.1"/>
      <path id="Path_48" data-name="Path 48" d="M557.415,756.021s-27.769-1.491-34.538-5.466-16.35-3.976-16.4-3.976l-110.571-24.1L349.94,711.545l-8.2-1.078,27.084-30.99.825-.358,39.925-17.269s17.89.994,21.423,12.652a14.077,14.077,0,0,1,.5,2.515,14.591,14.591,0,0,1-2.823,10.207,21.644,21.644,0,0,0-3.692,7.076,4.189,4.189,0,0,0,.5,3.578,29.17,29.17,0,0,0,4.91,3.921c9.735,6.46,34.344,17.1,77.335.8,0,0,18.387-18.139,32.3-10.436S557.415,756.021,557.415,756.021Z" transform="translate(-222.49 -396.361)" fill="#e1dee5"/>
      <path id="Path_49" data-name="Path 49" d="M430.029,694.3a4.188,4.188,0,0,0,.5,3.578,29.167,29.167,0,0,0,4.91,3.921l-83.7,6.266,22.939-28.947L414.6,661.85s17.89.994,21.423,12.652a14.075,14.075,0,0,1,.5,2.515,14.59,14.59,0,0,1-2.823,10.207A21.984,21.984,0,0,0,430.029,694.3Z" transform="translate(-227.52 -396.361)" opacity="0.1"/>
      <path id="Path_50" data-name="Path 50" d="M230.645,461.94l68.579,1.491v82.091l-65.1,44.134L218.47,575.244l3.23-47.707-3.23-44.477Z" transform="translate(-109.904 -277.951)" fill="#a36468"/>
      <path id="Path_51" data-name="Path 51" d="M266.24,445.337l80.068-24.673a12.131,12.131,0,0,1,4.448-.5L542.03,434.125a90.355,90.355,0,0,1,45.55,16.066c12.379,8.731,24.639,22.134,30.314,42.429a81.027,81.027,0,0,1-.82,45.635l-16.9,54.664s12.672-118.77-113.8-124.734Z" transform="translate(-184.509 -274.765)" fill="#d9d6df"/>
      <path id="Path_52" data-name="Path 52" d="M278.043,489.571V621.426s-21.94-3.086-25.841-7.37c-3.2-3.513-21.741-13.418-29.787-23.62a17.021,17.021,0,0,1-3.508-6.694C216.213,571.478,205.24,542.5,205.24,542.5l2.982-28.326,12.424-18.387,24.1-10.933h18.635Z" transform="translate(-153.823 -307.321)" fill="#b8797d"/>
      <path id="Path_53" data-name="Path 53" d="M244.645,497.85s-35.661,22.363-27.859,58.346c.636,2.932,1.188,5.879,1.55,8.861,1.426,11.638,9.984,45.083,61.095,60.508v3.479L257.749,623l-14.72-8.115L231.794,604.8l-13.736-16.757-6.376-13.666-2.336-18L208,535.832l3.285-17.627,7.747-11.47,9.442-7.34Z" transform="translate(-155.211 -313.861)" fill="#d9d6df"/>
      <path id="Path_54" data-name="Path 54" d="M278.038,489.551v20.976c-15.554,1.69-63.713,11.43-55.161,67.088L222.4,590.4A17.019,17.019,0,0,1,218.9,583.7c-2.693-12.265-13.666-41.247-13.666-41.247l2.982-28.326,12.424-18.387,24.1-10.933h18.635Z" transform="translate(-153.818 -307.301)" opacity="0.1"/>
      <path id="Path_55" data-name="Path 55" d="M511.213,700.032a21.646,21.646,0,0,0-3.692,7.076c-2.167-2.485-2.634-5.342.5-7.6,3.921-2.853,5.228-7.8,5.521-12.2a14.08,14.08,0,0,1,.5,2.514,14.59,14.59,0,0,1-2.823,10.207Z" transform="translate(-305.012 -409.169)" fill="#fff" opacity="0.1"/>
      <path id="Path_56" data-name="Path 56" d="M820.129,636.472l-9.442,32.053L789.319,689.4l-26.835,5.466-41.744-7.454V539.071s7.206-4.721,7.951-4.721,20.872,3.23,20.872,3.23l45.57,32.684,1.888,1.357L817.4,601.935Z" transform="translate(-413.147 -332.222)" fill="#b8797d"/>
      <path id="Path_57" data-name="Path 57" d="M618.97,495.44V649.99l4.025.721V495.44Z" transform="translate(-311.377 -294.803)" fill="#a36468"/>
      <path id="Path_58" data-name="Path 58" d="M796.027,580.591c-29.817-24.5-62.963-28.1-75.287-28.55V539.121s7.206-4.721,7.951-4.721,20.872,3.23,20.872,3.23l45.57,32.684Z" transform="translate(-413.147 -332.247)" opacity="0.1"/>
      <path id="Path_59" data-name="Path 59" d="M449.193,489.525,262.426,469.15l-20.991-1.113a43.14,43.14,0,0,0-34.891,14.585c-10.933,12.573-19.2,34.751-7.126,72.833,0,0,12.588,49.362,73.548,59.966L450.1,655.56c3.926.89,7.8,1.988,11.629,3.235,16.081,5.283,70.566,18.968,96.234-27.556A78.391,78.391,0,0,0,566,578.782C559.823,546.033,536.5,490.459,449.193,489.525Zm91.5,139.587c-23.953,39.02-73.31,27.407-88.148,22.825-3.633-1.123-7.31-2.1-11.032-2.9l-163.625-35c-56.374-9.258-68.017-52.358-68.017-52.358-9.517-28.326-5.357-46.6,2.336-58.173a41.386,41.386,0,0,1,36.61-18.148l19.341.994,167.053,22.318c3.379.452,6.783.75,10.192.865,74.288,2.52,97.4,43.369,103.275,71.521A65.931,65.931,0,0,1,540.7,629.112Z" transform="translate(-147.897 -298.827)" fill="#e1dee5"/>
      <path id="Path_60" data-name="Path 60" d="M103.874,409.837c6.117,4.095,15.405,2.147,15.405,2.147s14.009-6.634,18.148-6.634,14.208-4.1,14.208-4.1l-.343-2.763-1.024-8.324c6.376,4.969,13.462,3.255,16.951,2.892,3.747-.388,23.769-12.289,25.7-13.075a5.09,5.09,0,0,0,1.754-1.769h0a45.109,45.109,0,0,0,3.389-6.192h0c1.252-1.1,2.167-1.988,2.1-2.182a15.047,15.047,0,0,1,1.227-3.28,16.1,16.1,0,0,0,6.073-2.187,5.3,5.3,0,0,0,1.988-4.294s19.535-19.7,16.966-27.9,6.316-8.393,6.316-8.393,13.611-5.854,15.5-9.362c1.168-2.162,11.38-6.908,19.063-10.237l.944-.407c2.982,6.535,18.129,1.491,21.11-1.257,3.156-2.927,12.424-4.294,12.424-4.294s.4-38.265,3.354-43.125c1.406-2.311,1.744-9.864,1.709-17.16v-.775c4.145-.81,14-2.684,18.581-3.136,2.9-.288,5.929-2.1,8.249-3.856l.273.343a5.664,5.664,0,0,0,2.519.412,3.856,3.856,0,0,0,2.211-.412c1.779-.994,8.289-2.927,10.654-3.9s-.393-8-2.167-9.367-2.982-3.121-1.988-3.9-2.365-2.733-4.338-3.126-7.892-3.121-7.892-3.121-2.172-4.473-5.72-4.473-8.289-3.513-8.289-3.513c-.194-1.56-3.946-1.754-3.946-1.754s-14.2-10.933-16.573-9.561-8.875-2.147-8.875-2.147-7.986.895-9.864-.576h0a2.217,2.217,0,0,0-.5-1.322c-.422-1.322-2.485-3.131-4.472-4.637a17.589,17.589,0,0,0,.229-2.823,11.031,11.031,0,0,0-.045-1.218v-.2l.283-2.748a5.675,5.675,0,0,1,.686-2.584c.333-.5.825-.919,1.2-1.411a3.51,3.51,0,0,0,.239-.363l.06-.1a3.237,3.237,0,0,0,.149-.293l.045-.1a4.768,4.768,0,0,0,.253-.835v-.065c.025-.129.045-.258.06-.393a.221.221,0,0,1,0-.055,8.325,8.325,0,0,0-.447-3.349c-.591-1.844-1.516-3.623-1.615-5.546a17.157,17.157,0,0,0-.1-2.862c-.5-2.132-2.669-3.479-4.781-4.373-2.917-1.222-4.388-2.559-6.729-4.378-1.988-1.541-5.278-.765-7.782-.606-5.725.368-11.375,2.092-16.762,3.871a16.893,16.893,0,0,0-5.854,2.907,6.46,6.46,0,0,0-2.142,3.618h0a4.728,4.728,0,0,0-.065.994v.084a1.08,1.08,0,0,0,.045.378.932.932,0,0,0,0,.124,2.93,2.93,0,0,0,.109.447h0c.229.721.651,1.372.894,2.087a4.074,4.074,0,0,1,.134.5v.05a4.53,4.53,0,0,1,.08.5h0c.219,1.774-.437,3.628-.726,5.437-.04.253-.07.5-.089.775h0a9.263,9.263,0,0,0,.273,3.116.1.1,0,0,0,0,.035c.03.124.075.248.114.368a1.488,1.488,0,0,0,.05.159c.035.1.079.209.119.308l.084.209c.04.089.085.179.129.268s.075.149.114.219a2.717,2.717,0,0,0,.134.239c.045.08.094.154.144.229s.094.144.149.214.114.154.174.229l.154.189.209.219.164.164.243.209c.06.045.109.094.169.134s.2.144.308.209l.144.1c.159.094.328.179.5.258,1.133.5,2.564.7,3.245,1.7a2.1,2.1,0,0,1,.333.775v.373a16.2,16.2,0,0,0,.1,1.71,6.325,6.325,0,0,0,.055.924,2.65,2.65,0,0,0,.189.671,17.731,17.731,0,0,0,5.963,10.048c.06.3.129.656.2,1.054a19.734,19.734,0,0,1-5.74,2.982c-4.736,1.386-11.43,7.782-11.43,7.782s-3.33,24-4.13,26.925-1.391,14.247-1.391,14.247a32.173,32.173,0,0,1-1.988,7.022c-.84,1.65-.686,8.741,1.65,13.05a10.883,10.883,0,0,1-1.451,2.365c-4.736,5.466-18.944,5.268-23.679,5.268-4.358,0-5.7,2.644-5.889,3.061-8.672,2.485-36.749,10.476-40.079,11.927-3.946,1.724-6.117,18.765-6.117,18.765s-8.244,28.286-7.852,31.993-2.763,14.034-2.763,14.034,0,11.673-1.337,12.463a.125.125,0,0,1-.04.025c-1.382.586-1.188,6.247-1.188,6.247s1.019.293,2.6.7a46.461,46.461,0,0,1-3.2,9.7c-.616-.78-1.218-1.1-1.575-.2-.994,2.485-15.783,20.047-19.535,20.047-1.784,0-4.736,1.461-6.679,3.434C101.568,404.907,100.664,407.695,103.874,409.837Zm67.858-101.66c16.772,1.56,34.727-1.188,34.727-1.188a40.013,40.013,0,0,1-2.564,6.848c-1.183,1.953-4.542,13.075-4.542,15.405s-5.327,22.437-6.9,23.411a5.877,5.877,0,0,0-1.719,2.485,23.327,23.327,0,0,0-1.044,2.982q.035.76.134,1.446c-1.178,1.078-2.425,2.211-3.533,3.215h0s-7.057,3.926-9.442,6.073-13.418,4.781-13.418,4.781a68.689,68.689,0,0,0-7.951,4.05c-3.424,2.062-6.848,4.686-7.742,7.275.388-4.363,1.019-9.616,1.441-12.955l.626-.025c5.531-.343,4.706-5.62,4.413-6.927-.04-.189-.07-.293-.07-.293,3.946-4.294,12.821-36.277,11.638-39.805s.994-6.634,1.456-6.634,1.108-3.9.124-6.048S171.732,308.176,171.732,308.176ZM307.349,222.1l-1.049.258v-.224S306.683,222.13,307.349,222.1Zm-57.328-29.444c-.159.2-.318.388-.5.571l-.2.209v-1.083C249.559,192.442,249.788,192.557,250.021,192.651Zm-19.764,37.857.07,1.1s-.1.671-.3,1.819Zm90.668-10.9-3.444.591c.5-.184.969-.383,1.436-.606a3.3,3.3,0,0,1,1.1-.3,6.3,6.3,0,0,1,1.282.273,2.375,2.375,0,0,0-.373.04Z" transform="translate(-101.774 -136.094)" fill="url(#linear-gradient)"/>
      <path id="Path_61" data-name="Path 61" d="M286.431,573.148s-3.976,8.2-3.772,8.786-8.523,7.544-8.523,7.544L264.65,582.7l.994-4.651s10.65-9.6,11.43-10.7S286.431,573.148,286.431,573.148Z" transform="translate(-183.709 -348.761)" fill="#efb7b9"/>
      <path id="Path_62" data-name="Path 62" d="M198.272,608.71c6.585,6.391,14.327,4.472,18.009,4.07s23.327-12.2,25.215-12.975a5.143,5.143,0,0,0,1.724-1.759h0a44.688,44.688,0,0,0,3.325-6.147c-.129.035-6.57,1.878-8.195,0,0,0-2.713-3.325-3.295-3.325s-.045-5.834-.045-5.834-6.927,3.9-9.248,6.028-13.169,4.741-13.169,4.741a66.585,66.585,0,0,0-7.792,4.02C199.673,600.66,194.505,605.078,198.272,608.71Z" transform="translate(-149.668 -356.565)" fill="#67647e"/>
      <path id="Path_63" data-name="Path 63" d="M198.272,623.681c6.585,6.391,14.327,4.473,18.009,4.07s23.327-12.2,25.215-12.975a5.141,5.141,0,0,0,1.724-1.759c-2.291-1.367-17.259,8.15-21.448,9.894s-14.789.77-20.807-1.744c-2.982-1.257.04-5.118,3.826-8.667C199.673,615.631,194.5,620.049,198.272,623.681Z" transform="translate(-149.667 -371.536)" opacity="0.1"/>
      <path id="Path_64" data-name="Path 64" d="M181.536,591.642s-2.758,20.718-2.057,23.431-17.309-9.293-17.309-9.293,6.3-12.985,4.473-15.967S181.536,591.642,181.536,591.642Z" transform="translate(-132.156 -359.633)" fill="#efb7b9"/>
      <path id="Path_65" data-name="Path 65" d="M166.45,494.9s11.231,3.29,17.423,2.9c5.427-.338,4.617-5.576,4.333-6.873-.04-.184-.07-.288-.07-.288,3.871-4.264,12.588-36.019,11.43-39.5s.944-6.56,1.441-6.56,1.088-3.876.119-6,4.264-4.065,4.264-4.065c16.459,1.546,34.081-1.183,34.081-1.183a39.9,39.9,0,0,1-2.52,6.8c-1.163,1.938-4.473,12.97-4.473,15.3s-5.228,22.268-6.778,23.237a5.76,5.76,0,0,0-1.685,2.485,23.239,23.239,0,0,0-1.024,2.982c.581,12.975,15.3,7.951,17.428,6.2a5.718,5.718,0,0,0,.825-.845,5.417,5.417,0,0,0,1.108-3.419s19.172-19.555,16.653-27.69,6.2-8.324,6.2-8.324,13.363-5.809,15.221-9.3c1.148-2.142,11.166-6.848,18.71-10.158,4.726-2.072,8.478-3.588,8.478-3.588l-3.141-11.261-2.485-8.88-4.661-1.749L282.418,399.5l-26.746-3.752-2.45.318-25.985,3.364s-37.937,10.853-41.813,12.553-6,18.621-6,18.621-8.13,28.077-7.732,31.775-2.713,13.914-2.713,13.914,0,11.584-1.317,12.369a.069.069,0,0,1-.04,0C166.257,489.3,166.45,494.9,166.45,494.9Z" transform="translate(-134.305 -262.499)" fill="#444053"/>
      <path id="Path_66" data-name="Path 66" d="M244.78,458.191c16.459,1.545,34.081-1.183,34.081-1.183,1.163-3.662,17.438-13.731,17.438-13.731C282.945,439.988,244.78,458.191,244.78,458.191Z" transform="translate(-173.714 -286.208)" opacity="0.1"/>
      <path id="Path_67" data-name="Path 67" d="M280.24,570.442c.581,12.975,15.3,7.951,17.428,6.2a5.719,5.719,0,0,0,.825-.845c-5.143,1.893-14.262,3.359-17.229-8.314a23.23,23.23,0,0,0-1.024,2.962Z" transform="translate(-191.552 -348.888)" fill="#444053"/>
      <path id="Path_68" data-name="Path 68" d="M166.45,588.962s11.231,3.29,17.423,2.9c5.427-.338,4.617-5.576,4.333-6.873-5.685-.179-15.475-.711-20.559-2.251a.069.069,0,0,1-.04,0C166.256,583.366,166.45,588.962,166.45,588.962Z" transform="translate(-134.305 -356.565)" fill="#444053"/>
      <path id="Path_69" data-name="Path 69" d="M280.24,570.442c.581,12.975,15.3,7.951,17.428,6.2a5.719,5.719,0,0,0,.825-.845c-5.143,1.893-14.262,3.359-17.229-8.314a23.23,23.23,0,0,0-1.024,2.962Z" transform="translate(-191.552 -348.888)" opacity="0.1"/>
      <path id="Path_70" data-name="Path 70" d="M166.45,588.962s11.231,3.29,17.423,2.9c5.427-.338,4.617-5.576,4.333-6.873-5.685-.179-15.475-.711-20.559-2.251a.069.069,0,0,1-.04,0C166.256,583.366,166.45,588.962,166.45,588.962Z" transform="translate(-134.305 -356.565)" opacity="0.1"/>
      <path id="Path_71" data-name="Path 71" d="M108.651,645.425c6,4.065,15.107,2.127,15.107,2.127s13.746-6.58,17.816-6.58S155.5,636.9,155.5,636.9l-.333-2.738-1.6-13.139s-15.082-.388-15.689-1.744c0,0-2.708-6.669-3.677-4.2s-15.49,19.878-19.172,19.878c-1.754,0-4.651,1.451-6.555,3.409C106.4,640.535,105.511,643.3,108.651,645.425Z" transform="translate(-104.201 -372.557)" fill="#67647e"/>
      <path id="Path_72" data-name="Path 72" d="M215.55,446.41s12.588,7.951,9.1,9.681S215.55,446.41,215.55,446.41Z" transform="translate(-159.01 -287.984)" opacity="0.1"/>
      <path id="Path_73" data-name="Path 73" d="M205,477.19s10.843,10.3,6.778,10.57S205,477.19,205,477.19Z" transform="translate(-153.702 -303.468)" opacity="0.1"/>
      <path id="Path_74" data-name="Path 74" d="M181.65,543s5.506,10.351,3.434,12.145S181.65,543,181.65,543Z" transform="translate(-141.956 -336.574)" opacity="0.1"/>
      <path id="Path_75" data-name="Path 75" d="M303.488,557.213c-1.938,1.933,18.387-6.391,13.746-6.778S303.488,557.213,303.488,557.213Z" transform="translate(-203.181 -340.306)" opacity="0.1"/>
      <path id="Path_76" data-name="Path 76" d="M385.44,245.209l.651-.094c2.405-.368,11.137-1.739,18.968-3.439,1.908-.417,3.757-.85,5.466-1.3,6-1.57,10.023-3.265,7.454-4.656-3.4-1.844-5.188-5.193-6.132-8.075-.089-.283-.174-.557-.253-.83a21.524,21.524,0,0,1-.78-4.473s-21.866-7.747-17.622,0c2.092,3.8.686,6.9-1.287,9.074a17.035,17.035,0,0,1-4.716,3.513Z" transform="translate(-244.473 -173.534)" fill="#efb7b9"/>
      <path id="Path_77" data-name="Path 77" d="M384.217,259.76s-7.827,5.615-15.823.969-18.452,41.053-18.452,41.053L339.1,328.5s-7.022,5.809,1.719,8.329,28.132-2.52,33.057,4.84,14.247,8.518,15.2,8.518,4.641-27.695,4.641-27.695l.959-40.084Z" transform="translate(-219.82 -194.089)" opacity="0.1"/>
      <path id="Path_78" data-name="Path 78" d="M341.575,333.711c8.741,2.515,28.137-2.52,33.062,4.84a18.913,18.913,0,0,0,8.344,6.724,21.864,21.864,0,0,0,6.873,1.819c.124,0,.308-.5.522-1.387,1.362-5.606,4.12-26.308,4.12-26.308l.954-40.084-9.2-19.952-1.257-2.723a16.592,16.592,0,0,1-3.976,1.943,14,14,0,0,1-11.837-.994c-2.346-1.362-4.9,1.61-7.345,6.49-5.884,11.748-11.107,34.563-11.107,34.563L339.876,325.4a9.2,9.2,0,0,0-.735.706C337.6,327.713,334.712,331.734,341.575,333.711Z" transform="translate(-220.208 -192.519)" fill="#f3f5f9"/>
      <path id="Path_79" data-name="Path 79" d="M426.917,324.087a50.8,50.8,0,0,0-.258,10.2,119.43,119.43,0,0,0,1.819,14.411,5.686,5.686,0,0,0,.239.88c4.726-2.072,8.478-3.588,8.478-3.588l-3.141-11.261c1.362-5.606,4.12-26.308,4.12-26.308l.954-40.084-9.2-19.942c6-1.57,10.023-3.265,7.454-4.656-3.727-2.023-5.521-5.859-6.386-8.905a32.325,32.325,0,0,1-5.491,5.924l-.119.1-.7,6.758-.214,2.077L424.03,254s2.132,50.927,3.677,53.834.775,8.518-.577,15.1C427.046,323.306,427,323.689,426.917,324.087Z" transform="translate(-263.886 -181.547)" opacity="0.1"/>
      <path id="Path_80" data-name="Path 80" d="M428.676,309.8c-1.352,6.585-.194,17.428,1.357,25.752s18.009,2.907,21.11,0,12.2-4.259,12.2-4.259.388-37.952,3.295-42.792c1.376-2.3,1.709-9.79,1.675-17.03-.025-6.5-.348-12.8-.467-14.908-.03-.5-.045-.77-.045-.77s12.583-21.3,12.389-22.86-3.871-1.739-3.871-1.739S462.4,220.353,460.048,221.7s-8.716-2.127-8.716-2.127-8.1.919-9.77-.646a.855.855,0,0,1-.3-.711c.189-2.485-8.249-7.772-8.513-7.951,7.116,6.4-4.388,16.265-5.695,17.348l-.119.1-1.357,13.144s2.132,50.927,3.677,53.834S430.033,303.219,428.676,309.8Z" transform="translate(-264.666 -169.192)" fill="#67647e"/>
      <circle id="Ellipse_2" data-name="Ellipse 2" cx="0.969" cy="0.969" r="0.969" transform="translate(163.791 84.322)" fill="#444053"/>
      <path id="Path_81" data-name="Path 81" d="M429.33,229.153l5.884,5.69,8.622-14.411a.855.855,0,0,1-.3-.711c.189-2.485-8.254-7.772-8.513-7.951C442.141,218.205,430.657,228.07,429.33,229.153Z" transform="translate(-266.552 -169.947)" opacity="0.1"/>
      <circle id="Ellipse_3" data-name="Ellipse 3" cx="0.969" cy="0.969" r="0.969" transform="translate(165.73 115.301)" opacity="0.1"/>
      <circle id="Ellipse_4" data-name="Ellipse 4" cx="0.969" cy="0.969" r="0.969" transform="translate(165.73 114.914)" fill="#444053"/>
      <path id="Path_82" data-name="Path 82" d="M428.55,227.593l5.884,5.69,8.622-14.411a.855.855,0,0,1-.3-.711c.189-2.485-8.249-7.772-8.513-7.951C441.361,216.645,429.857,226.5,428.55,227.593Z" transform="translate(-266.16 -169.162)" fill="#67647e"/>
      <rect id="Rectangle_28" data-name="Rectangle 28" width="13.477" height="28.475" rx="1.7" transform="translate(169.762 112.944) rotate(-178.69)" fill="#d1d9ec"/>
      <rect id="Rectangle_29" data-name="Rectangle 29" width="13.477" height="28.475" rx="1.7" transform="translate(169.831 113.574) rotate(-178.69)" fill="#dfe6f5"/>
      <circle id="Ellipse_5" data-name="Ellipse 5" cx="2.117" cy="2.117" r="2.117" transform="translate(161.655 91.175)" fill="#fff"/>
      <path id="Path_83" data-name="Path 83" d="M284.52,320.907c4.84,2.132,36.6-3.479,41.247-4.84s11.43-11.812,8.135-19.381,1.158-14.908,1.158-14.908,6.957-14.908,8.523-17.816a133.874,133.874,0,0,0,5.228-12.776,1.163,1.163,0,0,0-.273-.89c-1.262-1.9-6.132-5.292-6.132-5.292-1.367.5-1.536-3.424-1.491-6.3.03-1.61.124-2.892.124-2.892s-.641.651-1.69,1.541c-.383.323-.82.681-1.307,1.049a20.092,20.092,0,0,1-6.073,3.334c-4.646,1.377-11.231,7.723-11.231,7.723l1.938,29.737s-4.473,27.968-9.1,33.39-18.591,5.228-23.237,5.228S284.52,320.907,284.52,320.907Z" transform="translate(-193.705 -182.04)" opacity="0.1"/>
      <path id="Path_84" data-name="Path 84" d="M283.74,318.587c4.84,2.127,36.6-3.479,41.247-4.845s11.43-11.812,8.135-19.381,1.158-14.908,1.158-14.908,6.957-14.908,8.523-17.816a133.881,133.881,0,0,0,5.228-12.777,1.168,1.168,0,0,0-.273-.89c-1.272-1.9-6.117-5.278-6.117-5.278-1.367.5-1.536-3.419-1.491-6.3.03-1.615.124-2.9.124-2.9s-.641.651-1.69,1.546c-.383.318-.82.676-1.307,1.044a20.091,20.091,0,0,1-6.1,3.335c-4.646,1.377-11.231,7.723-11.231,7.723l1.938,29.737s-4.473,27.968-9.1,33.39-18.586,5.228-23.237,5.228S283.74,318.587,283.74,318.587Z" transform="translate(-193.313 -180.878)" fill="#67647e"/>
      <path id="Path_85" data-name="Path 85" d="M389.73,235s.184,1.019.5,2.589c1.044,5.317,3.528,16.926,5.322,16.479,1.287-.323,3.479-2.6,5.148-4.567-1.257-1.918-6.117-5.307-6.117-5.307-1.367.5-1.536-3.419-1.491-6.3l-1.565-1.352Z" transform="translate(-246.631 -181.633)" opacity="0.1"/>
      <path id="Path_86" data-name="Path 86" d="M390.51,233.47s.184,1.019.5,2.589c1.044,5.317,3.528,16.926,5.322,16.479,1.287-.323,3.479-2.6,5.148-4.567-1.282-1.913-6.127-5.292-6.127-5.292-1.367.5-1.536-3.419-1.491-6.3l-1.565-1.352Z" transform="translate(-247.024 -180.863)" fill="#67647e"/>
      <path id="Path_87" data-name="Path 87" d="M356.958,336.361s9.685-1.933,12.394-6.192,21.155-7.951,18.884-3.479-18.884,19.028-18.884,19.028l-7.211,10.322L352.51,353.6l-4.06-7.9Z" transform="translate(-225.865 -226.735)" fill="#efb7b9"/>
      <path id="Path_88" data-name="Path 88" d="M400.634,370.45s-9.377,3.479-10.789,8.13S400.634,370.45,400.634,370.45Z" transform="translate(-246.632 -249.772)" opacity="0.1"/>
      <path id="Path_89" data-name="Path 89" d="M412.208,381.34s.855,4.835-10.9,4.473Z" transform="translate(-252.457 -255.25)" opacity="0.1"/>
      <path id="Path_90" data-name="Path 90" d="M511.431,256.248l4.264-.388s4.646,3.479,8.13,3.479,5.615,4.473,5.615,4.473,5.809,2.713,7.747,3.1,5.228,2.321,4.259,3.1.194,2.52,1.938,3.871,4.473,8.329,2.127,9.3-8.711,2.9-10.436,3.871a4.805,4.805,0,0,1-3.871,0s-10.257-13.363-15.49-10.843-12.4,2.5-12.4,2.5L497.7,266.9Z" transform="translate(-300.946 -192.127)" opacity="0.1"/>
      <path id="Path_91" data-name="Path 91" d="M343.412,322.517a5.194,5.194,0,0,0,3.613,2.51,27.333,27.333,0,0,0,11.276-1.044s-19.505-6.2-.726-21.264h-5.019l-1.69-.636.765-4.01,1.1-36.173-4.065-.969s-3.275,23.819-4.055,26.721-1.367,14.138-1.367,14.138a32.458,32.458,0,0,1-1.938,6.957C340.43,310.505,340.674,318.382,343.412,322.517Z" transform="translate(-222.045 -194.677)" fill="#67647e"/>
      <path id="Path_92" data-name="Path 92" d="M347.59,364.164a5.184,5.184,0,0,0,3.613,2.51,27.332,27.332,0,0,0,11.276-1.044s-19.505-6.2-.726-21.274h-5.014l-1.675-.636C352.266,348.615,347.943,357.307,347.59,364.164Z" transform="translate(-225.433 -236.325)" opacity="0.1"/>
      <path id="Path_93" data-name="Path 93" d="M346,364.174a5.194,5.194,0,0,0,3.613,2.51,27.332,27.332,0,0,0,11.276-1.044s-19.505-6.2-.726-21.264h-5.019l-1.69-.636C350.711,348.625,346.368,357.317,346,364.174Z" transform="translate(-224.633 -236.335)" fill="none"/>
      <path id="Path_94" data-name="Path 94" d="M346,364.174a5.194,5.194,0,0,0,3.613,2.51,27.332,27.332,0,0,0,11.276-1.044s-19.505-6.2-.726-21.264h-5.019l-1.69-.636C350.711,348.625,346.368,357.317,346,364.174Z" transform="translate(-224.633 -236.335)" fill="#67647e"/>
      <path id="Path_95" data-name="Path 95" d="M398.44,231.434a17.627,17.627,0,0,0,19.942-3.787c-.089-.283-.174-.557-.253-.83a21.524,21.524,0,0,1-.78-4.473s-21.866-7.747-17.622,0C401.819,226.161,400.413,229.262,398.44,231.434Z" transform="translate(-251.013 -173.534)" opacity="0.1"/>
      <path id="Path_96" data-name="Path 96" d="M377.65,192.478v.174a15.913,15.913,0,0,0,.1,1.695c.06.557.139,1.063.239,1.585a17.627,17.627,0,0,0,33.951,2.276c.119-.343.224-.686.318-1.034a17.422,17.422,0,0,0,.636-4.7,10.858,10.858,0,0,0-.045-1.208,17.622,17.622,0,0,0-35.2,1.208Z" transform="translate(-240.555 -151.401)" fill="#efb7b9"/>
      <path id="Path_97" data-name="Path 97" d="M377.65,192.657a7.587,7.587,0,0,1,.1,1.695,6.294,6.294,0,0,0,.05.919,2.608,2.608,0,0,0,.189.666c.711,1.67,3.036,2.753,4.572,1.675a4.9,4.9,0,0,0,1.372-1.8c1.63-3.026,3.891-6.505,7.454-6.565a16.614,16.614,0,0,1,4.418.994c1.471.383,3.21.417,4.3-.581.845-.77,1.242-2.082,2.37-2.351s2.172.765,2.688,1.779.929,2.206,1.988,2.733c.467.229.994.3,1.491.547,2.107,1.153,1.138,5.193,3.325,5.849a1.591,1.591,0,0,0,.209.05c.035-.358.075-.726.109-1.083q.3-2.952.591-5.9a17.622,17.622,0,0,0-35.2,1.208Z" transform="translate(-240.555 -151.406)" opacity="0.1"/>
      <path id="Path_98" data-name="Path 98" d="M401.547,152.017c2.072.88,4.229,2.231,4.691,4.343a17.424,17.424,0,0,1,.1,2.838c.1,1.908.994,3.677,1.585,5.506s.79,3.976-.373,5.516c-.363.5-.845.89-1.173,1.4a5.715,5.715,0,0,0-.676,2.594l-.959,9.531c-2.455-.462-1.362-4.721-3.538-5.9-.452-.248-.994-.318-1.466-.552-1.049-.5-1.456-1.714-1.988-2.728s-1.541-2.052-2.689-1.779-1.526,1.585-2.365,2.351c-1.1.994-2.843.954-4.309.581a18.281,18.281,0,0,0-4.413-.994c-3.568.06-5.834,3.538-7.454,6.565a4.915,4.915,0,0,1-1.377,1.8c-1.729,1.213-4.473-.318-4.756-2.346-.169-1.138.189-2.405-.467-3.369s-2.077-1.168-3.185-1.685c-2.833-1.3-3.707-4.835-3.24-7.8.343-2.137,1.193-4.333.5-6.391-.243-.711-.656-1.357-.88-2.067-.621-1.988.393-4.194,1.988-5.611a16.167,16.167,0,0,1,5.745-2.882c5.283-1.774,10.828-3.479,16.449-3.846,2.46-.159,5.685-.929,7.638.606C397.253,149.477,398.684,150.8,401.547,152.017Z" transform="translate(-233.148 -137.243)" fill="#585268"/>
      <circle id="Ellipse_6" data-name="Ellipse 6" cx="0.969" cy="0.969" r="0.969" transform="translate(162.822 69.021)" opacity="0.1"/>
      <circle id="Ellipse_7" data-name="Ellipse 7" cx="0.969" cy="0.969" r="0.969" transform="translate(162.822 68.633)" fill="#444053"/>
      <circle id="Ellipse_8" data-name="Ellipse 8" cx="0.969" cy="0.969" r="0.969" transform="translate(169.019 129.827)" opacity="0.1"/>
      <circle id="Ellipse_9" data-name="Ellipse 9" cx="0.969" cy="0.969" r="0.969" transform="translate(169.019 129.44)" fill="#444053"/>
      <circle id="Ellipse_10" data-name="Ellipse 10" cx="0.969" cy="0.969" r="0.969" transform="translate(165.73 145.898)" opacity="0.1"/>
      <circle id="Ellipse_11" data-name="Ellipse 11" cx="0.969" cy="0.969" r="0.969" transform="translate(165.73 145.511)" fill="#444053"/>
      <path id="Path_99" data-name="Path 99" d="M369.291,299.24s-2.132,14.461,0,16.981S369.291,299.24,369.291,299.24Z" transform="translate(-235.873 -213.949)" opacity="0.1"/>
      <path id="Path_100" data-name="Path 100" d="M492,353.28s4.065,8.761,0,17.16-6.585,11.812-5.228,17.174S492,353.28,492,353.28Z" transform="translate(-295.265 -241.134)" opacity="0.1"/>
      <path id="Path_101" data-name="Path 101" d="M108.651,665.3c6,4.065,15.107,2.127,15.107,2.127s13.746-6.58,17.816-6.58,13.924-4.07,13.924-4.07l-.333-2.738c-4.01.77-13.134,2.614-14.188,3.513-1.357,1.163-18.009,6.778-18.009,6.778s-11.34-1.416-14.5-6.078C106.4,660.411,105.511,663.174,108.651,665.3Z" transform="translate(-104.201 -392.433)" opacity="0.1"/>
      <g id="Group_8" data-name="Group 8" transform="translate(129.786 19.773)" opacity="0.1">
        <path id="Path_102" data-name="Path 102" d="M450.28,168.031v.094A.3.3,0,0,0,450.28,168.031Z" transform="translate(-406.877 -167.4)"/>
        <path id="Path_103" data-name="Path 103" d="M367.194,194.234c1.108.5,2.485.7,3.185,1.68s.3,2.231.467,3.369c.293,2.028,3.026,3.563,4.756,2.346a4.914,4.914,0,0,0,1.376-1.8c1.625-3.026,3.891-6.505,7.454-6.565a17.01,17.01,0,0,1,4.418.994c1.471.378,3.21.417,4.309-.581.84-.765,1.237-2.082,2.365-2.351s2.167.765,2.689,1.779.929,2.206,1.988,2.733c.467.229.994.3,1.466.547,2.177,1.188,1.083,5.466,3.538,5.9q.5-4.771.959-9.531a5.7,5.7,0,0,1,.676-2.564c.328-.5.81-.914,1.173-1.4a4.269,4.269,0,0,0,.8-2.047,4.969,4.969,0,0,1-.8,3.6c-.363.5-.845.89-1.173,1.4a5.714,5.714,0,0,0-.686,2.589q-.5,4.766-.959,9.531c-2.455-.462-1.362-4.721-3.538-5.9-.452-.248-.994-.318-1.466-.552-1.049-.5-1.456-1.714-1.988-2.728s-1.541-2.052-2.689-1.779-1.526,1.585-2.365,2.351c-1.1.994-2.843.954-4.309.581a18.266,18.266,0,0,0-4.418-.994c-3.563.06-5.829,3.538-7.454,6.565a4.915,4.915,0,0,1-1.376,1.8c-1.729,1.213-4.473-.318-4.756-2.346-.169-1.138.189-2.405-.467-3.369s-2.077-1.168-3.185-1.685c-2.589-1.193-3.543-4.249-3.325-7.027A6.344,6.344,0,0,0,367.194,194.234Z" transform="translate(-363.388 -177.129)"/>
        <path id="Path_104" data-name="Path 104" d="M363.125,168.627c.224.711.636,1.362.88,2.067a5.963,5.963,0,0,1,.219,2.549,4.969,4.969,0,0,0-.219-.994c-.243-.711-.656-1.357-.88-2.067a4.363,4.363,0,0,1-.114-2.023A4.079,4.079,0,0,0,363.125,168.627Z" transform="translate(-362.941 -167.782)"/>
      </g>
      <path id="Path_105" data-name="Path 105" d="M541.38,464.309l-39.915-4.994a1.526,1.526,0,0,1-.909-2.574L517.3,439.347a1.52,1.52,0,0,1,1.272-.457l30.518,3.419a1.526,1.526,0,0,1,1.252,2.067L543,463.354A1.531,1.531,0,0,1,541.38,464.309Z" transform="translate(-302.167 -284.195)" fill="#746d83"/>
      <path id="Path_106" data-name="Path 106" d="M541.38,464.309l-39.915-4.994a1.526,1.526,0,0,1-.909-2.574L517.3,439.347a1.52,1.52,0,0,1,1.272-.457l30.518,3.419a1.526,1.526,0,0,1,1.252,2.067L543,463.354A1.531,1.531,0,0,1,541.38,464.309Z" transform="translate(-302.167 -284.195)" opacity="0.1"/>
      <path id="Path_107" data-name="Path 107" d="M540.477,463.38l-39.91-5.014a1.531,1.531,0,0,1-.909-2.579L516.4,438.393a1.541,1.541,0,0,1,1.272-.462l30.513,3.419a1.531,1.531,0,0,1,1.257,2.072l-7.35,18.978A1.536,1.536,0,0,1,540.477,463.38Z" transform="translate(-301.716 -283.714)" fill="#746d83"/>
      <path id="Path_108" data-name="Path 108" d="M531.446,441.593l11.986.964,17.095-1.113h-.293L544.4,439.914c-3.628-1.332-1.113-9.174-1.113-9.174l-12.13.616-.969.05C525.9,441.444,531.446,441.593,531.446,441.593Z" transform="translate(-316.469 -280.101)" fill="#d1d9ec"/>
      <path id="Path_109" data-name="Path 109" d="M531.446,442.222l11.986.964,17.095-1.113h-.293l-17.284.616-11.579-1.257c-3.29-.865-1.406-6.57-.219-9.442l-.969.05C525.9,442.073,531.446,442.222,531.446,442.222Z" transform="translate(-316.469 -280.729)" opacity="0.1"/>
      <path id="Path_110" data-name="Path 110" d="M492.1,305.269l3.667,52.6.5,6.9a2.982,2.982,0,0,0,3.011,2.788h1.113l55.211-.333a1.555,1.555,0,0,0,1.531-1.7l-.5-6.908-3.886-46.256a3.175,3.175,0,0,0-2.122-2.684L498,301.785a4.948,4.948,0,0,0-4.751.547A3.339,3.339,0,0,0,492.1,305.269Z" transform="translate(-298.116 -215.053)" fill="#4c4c56"/>
      <path id="Path_111" data-name="Path 111" d="M499.5,415l.5,6.9a2.982,2.982,0,0,0,3.012,2.788h1.113l55.211-.333a1.555,1.555,0,0,0,1.531-1.7l-.5-6.908Z" transform="translate(-301.852 -272.183)" fill="#dfe6f5"/>
      <ellipse id="Ellipse_12" data-name="Ellipse 12" cx="0.74" cy="1.481" rx="0.74" ry="1.481" transform="translate(233.92 147.061)" fill="#fff"/>
      <path id="Path_112" data-name="Path 112" d="M550.185,463.027s-15.1-5.7-19.167-1.555c0,0-.666,1.262,2.072,1.555l11.062.89S548.7,464.358,550.185,463.027Z" transform="translate(-317.671 -294.8)" fill="#d1d9ec"/>
      <path id="Path_113" data-name="Path 113" d="M551.027,460.657c-2.982-1.213-11.892-4.348-17.607-.88,0,0,6.321-.7,9.795,1.307s8.215,1.054,8.215,1.054l.07-.124a.959.959,0,0,0-.472-1.357Z" transform="translate(-318.915 -293.912)" fill="#dfe6f5"/>
      <path id="Path_114" data-name="Path 114" d="M492.1,306.187l4.145,59.514a2.982,2.982,0,0,0,3.012,2.788h1.113A10.6,10.6,0,0,1,498.439,366s-4.07-59.8-4.368-61.283a3.032,3.032,0,0,0-.82-1.461,3.339,3.339,0,0,0-1.153,2.927Z" transform="translate(-298.117 -215.971)" fill="#dfe6f5"/>
      <path id="Path_115" data-name="Path 115" d="M492.1,306.187l4.145,59.514a2.982,2.982,0,0,0,3.012,2.788h1.113A10.6,10.6,0,0,1,498.439,366s-4.07-59.8-4.368-61.283a3.032,3.032,0,0,0-.82-1.461,3.339,3.339,0,0,0-1.153,2.927Z" transform="translate(-298.117 -215.971)" opacity="0.1"/>
      <path id="Path_116" data-name="Path 116" d="M453.554,322.771c4.473-.994,14.908-4.055,14.908-4.055l1.869-.378c-.025-6.5-.348-12.8-.467-14.908h-.045s-8.91,2.907-11.037,4.473-8.716,1.158-8.716,1.158-10.257.552-18.77,10.058S449.1,323.75,453.554,322.771Z" transform="translate(-266.695 -216.057)" opacity="0.1"/>
      <path id="Path_117" data-name="Path 117" d="M497.062,302.139a2.589,2.589,0,0,1,.581,4.343c-2.361,1.953-5.8,4.289-9.094,4.617-5.466.552-18.685,3.2-20,3.479a1.587,1.587,0,0,0-.209.05c-1.088.318-10.61,3.106-14.809,4.025-4.473.994-30.811,5.819-22.268-3.668a29.981,29.981,0,0,1,18.6-10.053,1.992,1.992,0,0,1,.343,0c.994.045,6.619.239,8.562-1.168a18.294,18.294,0,0,1,3.2-1.6,61.222,61.222,0,0,1,13.095-3.777l9.109-1.59a2.614,2.614,0,0,1,1.531.2Z" transform="translate(-266.675 -212.703)" fill="#efb7b9"/>
      <path id="Path_118" data-name="Path 118" d="M512.976,256.248l4.259-.388s4.651,3.479,8.135,3.479,5.616,4.473,5.616,4.473,5.809,2.713,7.747,3.1,5.228,2.321,4.259,3.1.194,2.52,1.938,3.871,4.473,8.329,2.127,9.3-8.711,2.9-10.436,3.871a4.805,4.805,0,0,1-3.871,0s-10.277-13.373-15.51-10.853-12.394,2.515-12.394,2.515L499.23,266.9Z" transform="translate(-301.716 -192.127)" fill="#67647e"/>
      <path id="Path_119" data-name="Path 119" d="M1008.64,742.892a8.373,8.373,0,0,0-1.128,2.132c-.075.184-.139.4-.209.6a2.31,2.31,0,0,0-.393-.139,5.468,5.468,0,0,0-1.774-.149,5.313,5.313,0,0,1,.035-.73c.07-2.619-.239-6.266-2.733-4.721-2.4,1.491-.691,3.976.855,5.566l.4.393c-1.406.994-1.675,3.344-1.913,5.784s-2.306,5.109-3.677,6.624c-.139.159-.268.293-.388.422a5.044,5.044,0,0,0-3.976-1.029l-.184-.671c-1.113-4.02-3.424-10.982-6.371-12.508.124-.154.253-.313.388-.5,1.252-1.635,2.659-4.07.576-4.691s-2.266,2.112-2.152,4.154a4.264,4.264,0,0,0,.06.73,3.057,3.057,0,0,0-2.182,1.064l-.318-.383c-1.69-1.988-4.791-5.153-5.725-2.763-.875,2.226,1.854,5.119,3.772,6.793l.119.1c-1.292,5.223,4.333,9.482,7.36,11.345l.388.239c-4.174,4.92-6.749,14.143-6.749,14.143l11.688,2.087s7.747-6.689,6.758-12.97h.08c7.742-1.55,9.507-9.81,8.3-14.71l.139-.06a8.79,8.79,0,0,0,3.583-2.713C1015.409,743.334,1010.862,739.935,1008.64,742.892Z" transform="translate(-542.393 -435.267)" fill="#9b5b0f"/>
      <path id="Path_120" data-name="Path 120" d="M1008.64,742.892a8.373,8.373,0,0,0-1.128,2.132c-.075.184-.139.4-.209.6a2.31,2.31,0,0,0-.393-.139,5.468,5.468,0,0,0-1.774-.149,5.313,5.313,0,0,1,.035-.73c.07-2.619-.239-6.266-2.733-4.721-2.4,1.491-.691,3.976.855,5.566l.4.393c-1.406.994-1.675,3.344-1.913,5.784s-2.306,5.109-3.677,6.624c-.139.159-.268.293-.388.422a5.044,5.044,0,0,0-3.976-1.029l-.184-.671c-1.113-4.02-3.424-10.982-6.371-12.508.124-.154.253-.313.388-.5,1.252-1.635,2.659-4.07.576-4.691s-2.266,2.112-2.152,4.154a4.264,4.264,0,0,0,.06.73,3.057,3.057,0,0,0-2.182,1.064l-.318-.383c-1.69-1.988-4.791-5.153-5.725-2.763-.875,2.226,1.854,5.119,3.772,6.793l.119.1c-1.292,5.223,4.333,9.482,7.36,11.345l.388.239c-4.174,4.92-6.749,14.143-6.749,14.143l11.688,2.087s7.747-6.689,6.758-12.97h.08c7.742-1.55,9.507-9.81,8.3-14.71l.139-.06a8.79,8.79,0,0,0,3.583-2.713C1015.409,743.334,1010.862,739.935,1008.64,742.892Z" transform="translate(-542.393 -435.267)" opacity="0.1"/>
      <path id="Path_121" data-name="Path 121" d="M986.063,748.326l-1.367,4s-.755-.537-1.714-1.381c-1.918-1.675-4.646-4.567-3.772-6.793.934-2.39,4.035.765,5.725,2.763C985.615,747.71,986.063,748.326,986.063,748.326Z" transform="translate(-543.087 -437.332)" fill="#fe9d2b"/>
      <path id="Path_122" data-name="Path 122" d="M997.37,743.993a18.976,18.976,0,0,1-1.342,1.58,19.356,19.356,0,0,1-.244-2.107c-.114-2.043.1-4.766,2.152-4.155S998.613,742.358,997.37,743.993Z" transform="translate(-551.497 -435.285)" fill="#fe9d2b"/>
      <path id="Path_123" data-name="Path 123" d="M1030.475,744.938c-.045,1.317-.174,2.37-.174,2.37a17.236,17.236,0,0,1-1.7-1.526c-1.545-1.6-3.255-4.08-.855-5.566C1030.251,738.671,1030.544,742.319,1030.475,744.938Z" transform="translate(-566.985 -435.599)" fill="#fe9d2b"/>
      <path id="Path_124" data-name="Path 124" d="M1044.216,748.927a8.792,8.792,0,0,1-3.583,2.713,9.641,9.641,0,0,1-1.2.437l-1.61-2.261a15.992,15.992,0,0,1,.666-2.2,8.377,8.377,0,0,1,1.128-2.132C1041.84,742.531,1046.387,745.93,1044.216,748.927Z" transform="translate(-572.656 -437.863)" fill="#fe9d2b"/>
      <path id="Path_125" data-name="Path 125" d="M988.923,750.58c.681.8,1.128,1.411,1.128,1.411l-1.367,4s-.755-.537-1.714-1.381a7.792,7.792,0,0,1,1.536-3.513C988.645,750.908,988.789,750.739,988.923,750.58Z" transform="translate(-547.075 -440.997)" opacity="0.1"/>
      <path id="Path_126" data-name="Path 126" d="M997.4,748.287a18.949,18.949,0,0,1-1.342,1.58,19.416,19.416,0,0,1-.244-2.107A2.758,2.758,0,0,1,997.4,748.287Z" transform="translate(-551.522 -439.579)" opacity="0.1"/>
      <path id="Path_127" data-name="Path 127" d="M999.573,764.885l-3.4,1.491a20.6,20.6,0,0,1-1.809-1.024c-3.573-2.2-10.759-7.728-5.963-14.247s8.831,5.173,10.436,10.893C999.325,763.712,999.573,764.885,999.573,764.885Z" transform="translate(-546.992 -440.294)" fill="#fe9d2b"/>
      <path id="Path_128" data-name="Path 128" d="M1030.67,750.935a2.817,2.817,0,0,1,1.878-.845c-.045,1.317-.174,2.37-.174,2.37a17.228,17.228,0,0,1-1.7-1.526Z" transform="translate(-569.059 -440.751)" opacity="0.1"/>
      <path id="Path_129" data-name="Path 129" d="M1040.633,754.93a9.632,9.632,0,0,1-1.2.437l-1.61-2.261a15.987,15.987,0,0,1,.666-2.2C1039.525,751.526,1040.29,753.037,1040.633,754.93Z" transform="translate(-572.656 -441.163)" opacity="0.1"/>
      <path id="Path_130" data-name="Path 130" d="M1019.582,770.006c-.189.04-.378.075-.571.1-11.395,1.729-3.757-4.418-3.757-4.418s.5-.472,1.208-1.247c1.372-1.491,3.444-4.169,3.677-6.624.358-3.692.775-7.156,5.133-6.142C1029.551,752.683,1030.366,767.85,1019.582,770.006Z" transform="translate(-560.043 -441.46)" fill="#fe9d2b"/>
      <rect id="Rectangle_30" data-name="Rectangle 30" width="21.771" height="5.725" transform="translate(437.554 356.917)" fill="#d4dfec"/>
      <rect id="Rectangle_31" data-name="Rectangle 31" width="28.445" height="19.977" transform="translate(434.095 338.311)" fill="#d4dfec"/>
      <rect id="Rectangle_32" data-name="Rectangle 32" width="21.771" height="5.725" transform="translate(437.554 356.917)" opacity="0.1"/>
      <rect id="Rectangle_33" data-name="Rectangle 33" width="28.445" height="19.977" transform="translate(434.095 338.311)" opacity="0.1"/>
      <rect id="Rectangle_34" data-name="Rectangle 34" width="21.771" height="5.725" transform="translate(438.985 356.917)" fill="#d4dfec"/>
      <path id="Path_131" data-name="Path 131" d="M1006.473,775c.5,1.709.735,2.882.735,2.882l-3.4,1.491a20.546,20.546,0,0,1-1.809-1.024A8.7,8.7,0,0,1,1006.473,775Z" transform="translate(-554.636 -453.282)" opacity="0.1"/>
      <path id="Path_132" data-name="Path 132" d="M1019.582,783.111c-.189.04-.378.075-.571.1-11.395,1.729-3.757-4.418-3.757-4.418s.5-.472,1.208-1.247A7.562,7.562,0,0,1,1019.582,783.111Z" transform="translate(-560.043 -454.565)" opacity="0.1"/>
      <path id="Path_133" data-name="Path 133" d="M989.22,793.3s6.381-22.86,15.326-15.8-3.638,17.89-3.638,17.89Z" transform="translate(-548.207 -453.86)" fill="#fe9d2b"/>
      <circle id="Ellipse_13" data-name="Ellipse 13" cx="0.716" cy="0.716" r="0.716" transform="translate(443.517 313.677)" opacity="0.1"/>
      <circle id="Ellipse_14" data-name="Ellipse 14" cx="0.716" cy="0.716" r="0.716" transform="translate(443.458 317.017)" opacity="0.1"/>
      <circle id="Ellipse_15" data-name="Ellipse 15" cx="0.716" cy="0.716" r="0.716" transform="translate(464.21 314.333)" opacity="0.1"/>
      <circle id="Ellipse_16" data-name="Ellipse 16" cx="0.716" cy="0.716" r="0.716" transform="translate(447.513 331.453)" opacity="0.1"/>
      <circle id="Ellipse_17" data-name="Ellipse 17" cx="0.716" cy="0.716" r="0.716" transform="translate(462.72 319.879)" opacity="0.1"/>
      <circle id="Ellipse_18" data-name="Ellipse 18" cx="0.716" cy="0.716" r="0.716" transform="translate(455.325 327.279)" opacity="0.1"/>
      <circle id="Ellipse_19" data-name="Ellipse 19" cx="0.716" cy="0.716" r="0.716" transform="translate(445.962 315.109)" opacity="0.1"/>
      <circle id="Ellipse_20" data-name="Ellipse 20" cx="0.716" cy="0.716" r="0.716" transform="translate(462.242 316.48)" opacity="0.1"/>
      <circle id="Ellipse_21" data-name="Ellipse 21" cx="0.716" cy="0.716" r="0.716" transform="translate(459.797 322.026)" opacity="0.1"/>
      <circle id="Ellipse_22" data-name="Ellipse 22" cx="0.716" cy="0.716" r="0.716" transform="translate(452.284 330.916)" opacity="0.1"/>
      <circle id="Ellipse_23" data-name="Ellipse 23" cx="0.716" cy="0.716" r="0.716" transform="translate(450.733 327.398)" opacity="0.1"/>
      <circle id="Ellipse_24" data-name="Ellipse 24" cx="0.716" cy="0.716" r="0.716" transform="translate(447.036 319.462)" opacity="0.1"/>
      <rect id="Rectangle_35" data-name="Rectangle 35" width="21.771" height="2.092" transform="translate(438.985 356.917)" opacity="0.1"/>
      <rect id="Rectangle_36" data-name="Rectangle 36" width="28.445" height="19.977" transform="translate(435.527 338.311)" fill="#d4dfec"/>
      <circle id="Ellipse_25" data-name="Ellipse 25" cx="0.716" cy="0.716" r="0.716" transform="translate(453.238 334.137)" opacity="0.1"/>
      <circle id="Ellipse_26" data-name="Ellipse 26" cx="0.716" cy="0.716" r="0.716" transform="translate(448.944 335.031)" opacity="0.1"/>
    </g>
  </g>
</svg>
