<svg xmlns="http://www.w3.org/2000/svg" xmlns:xlink="http://www.w3.org/1999/xlink" width="1920" height="1080" viewBox="0 0 1920 1080">
  <defs>
    <clipPath id="clip-Web_1920_1">
      <rect width="1920" height="1080"/>
    </clipPath>
  </defs>
  <g id="Web_1920_1" data-name="Web 1920 – 1" clip-path="url(#clip-Web_1920_1)">
    <rect width="1920" height="1080" fill="#fff"/>
    <g id="Group_1" data-name="Group 1" transform="translate(892.128 255.16)">
      <rect id="Rectangle_1" data-name="Rectangle 1" width="611.461" height="391.607" transform="translate(276.411 0.347)" fill="#e6e6e6"/>
      <rect id="Rectangle_2" data-name="Rectangle 2" width="576.492" height="319.322" transform="translate(293.896 49.464)" fill="#fff"/>
      <rect id="Rectangle_3" data-name="Rectangle 3" width="611.461" height="25.977" transform="translate(276.15)" fill="#ff9100"/>
      <circle id="Ellipse_1" data-name="Ellipse 1" cx="4.815" cy="4.815" r="4.815" transform="translate(290.639 8.466)" fill="#fff"/>
      <circle id="Ellipse_2" data-name="Ellipse 2" cx="4.815" cy="4.815" r="4.815" transform="translate(308.915 8.466)" fill="#fff"/>
      <circle id="Ellipse_3" data-name="Ellipse 3" cx="4.815" cy="4.815" r="4.815" transform="translate(327.19 8.466)" fill="#fff"/>
      <path id="Path_1" data-name="Path 1" d="M863.33,244.533H675.643a1.666,1.666,0,0,1,0-3.3H863.33a1.666,1.666,0,0,1,0,3.3Z" transform="translate(-156.064 -165.16)" fill="#ccc"/>
      <path id="Path_2" data-name="Path 2" d="M733.282,262.7H613.95a1.666,1.666,0,0,1,0-3.3H733.282a1.666,1.666,0,0,1,0,3.3Z" transform="translate(-156.064 -165.16)" fill="#ccc"/>
      <path id="Path_3" data-name="Path 3" d="M863.33,263.03H744a1.666,1.666,0,0,1,0-3.3H863.33a1.666,1.666,0,0,1,0,3.3Z" transform="translate(-156.064 -165.16)" fill="#ccc"/>
      <path id="Path_4" data-name="Path 4" d="M733.571,280.867H614.24a1.666,1.666,0,0,1,0-3.3H733.571a1.666,1.666,0,0,1,0,3.3Z" transform="translate(-156.064 -165.16)" fill="#ccc"/>
      <path id="Path_5" data-name="Path 5" d="M733.861,299.035H614.529a1.666,1.666,0,0,1,0-3.3H733.861a1.666,1.666,0,0,1,0,3.3Z" transform="translate(-156.064 -165.16)" fill="#ccc"/>
      <path id="Path_6" data-name="Path 6" d="M788.024,280.867H753.846a1.666,1.666,0,0,1,0-3.3h34.178a1.666,1.666,0,0,1,0,3.3Z" transform="translate(-156.064 -165.16)" fill="#ccc"/>
      <path id="Path_7" data-name="Path 7" d="M788.024,298.7H753.846a1.666,1.666,0,0,1,0-3.3h34.178a1.666,1.666,0,0,1,0,3.3Z" transform="translate(-156.064 -165.16)" fill="#ccc"/>
      <path id="Path_8" data-name="Path 8" d="M845.373,298.7H811.2a1.666,1.666,0,0,1,0-3.3h34.178a1.666,1.666,0,0,1,0,3.3Z" transform="translate(-156.064 -165.16)" fill="#ccc"/>
      <path id="Path_9" data-name="Path 9" d="M647.259,244.533H613.081a1.666,1.666,0,0,1,0-3.3h34.178a1.666,1.666,0,0,1,0,3.3Z" transform="translate(-156.064 -165.16)" fill="#ccc"/>
      <path id="Path_10" data-name="Path 10" d="M732.847,452.838H613.515a1.666,1.666,0,0,1,0-3.3H732.847a1.666,1.666,0,0,1,0,3.3Z" transform="translate(-156.064 -165.16)" fill="#ccc"/>
      <path id="Path_11" data-name="Path 11" d="M732.268,489.173H612.936a1.666,1.666,0,0,1,0-3.3H732.268a1.666,1.666,0,0,1,0,3.3Z" transform="translate(-156.064 -165.16)" fill="#ccc"/>
      <path id="Path_12" data-name="Path 12" d="M732.558,507.341H613.226a1.666,1.666,0,0,1,0-3.3H732.558a1.666,1.666,0,0,1,0,3.3Z" transform="translate(-156.064 -165.16)" fill="#ccc"/>
      <path id="Path_13" data-name="Path 13" d="M783.534,489.5H749.357a1.666,1.666,0,0,1,0-3.3h34.178a1.666,1.666,0,0,1,0,3.3Z" transform="translate(-156.064 -165.16)" fill="#ccc"/>
      <path id="Path_14" data-name="Path 14" d="M783.534,507.341H749.357a1.666,1.666,0,0,1,0-3.3h34.178a1.666,1.666,0,0,1,0,3.3Z" transform="translate(-156.064 -165.16)" fill="#ccc"/>
      <path id="Path_15" data-name="Path 15" d="M840.883,489.5H806.706a1.666,1.666,0,0,1,0-3.3h34.178a1.666,1.666,0,0,1,0,3.3Z" transform="translate(-156.064 -165.16)" fill="#ccc"/>
      <path id="Path_16" data-name="Path 16" d="M863.475,471.006H675.788a1.666,1.666,0,0,1,0-3.3H863.475a1.666,1.666,0,0,1,0,3.3Z" transform="translate(-156.064 -165.16)" fill="#ccc"/>
      <path id="Path_17" data-name="Path 17" d="M647.4,471.006H613.225a1.666,1.666,0,0,1,0-3.3H647.4a1.666,1.666,0,0,1,0,3.3Z" transform="translate(-156.064 -165.16)" fill="#ccc"/>
      <path id="Path_18" data-name="Path 18" d="M547.965,163.221l-46.343,45.764,46.343,45.763,10.427-10.427-35.047-35.047,35.336-35.336Z" fill="#e6e6e6"/>
      <path id="Path_19" data-name="Path 19" d="M616.32,163.221l46.342,45.764L616.32,254.748l-10.427-10.427,35.046-35.047L605.6,173.938Z" fill="#e6e6e6"/>
      <path id="Path_20" data-name="Path 20" d="M547.965,163.221l-46.343,45.764,46.343,45.763,10.427-10.427-35.047-35.047,35.336-35.336Z" fill="#ff9100"/>
      <path id="Path_21" data-name="Path 21" d="M616.32,163.221l46.342,45.764L616.32,254.748l-10.427-10.427,35.046-35.047L605.6,173.938Z" fill="#ff9100"/>
      <path id="Path_22" data-name="Path 22" d="M626.667,711.2c14.42,19.311,44.352,21.344,44.352,21.344s6.554-29.277-7.866-48.588S618.8,662.607,618.8,662.607,612.247,691.884,626.667,711.2Z" transform="translate(-156.064 -165.16)" fill="#e6e6e6"/>
      <path id="Path_23" data-name="Path 23" d="M700.123,718.455c-9.515,12.743-29.267,14.084-29.267,14.084s-4.324-19.319,5.191-32.062,29.267-14.084,29.267-14.084S709.638,705.712,700.123,718.455Z" transform="translate(-156.064 -165.16)" fill="#e6e6e6"/>
      <path id="Path_24" data-name="Path 24" d="M149.825,460.994V511.12H135.5l-9.547-52.513Z" fill="#ffb9b9"/>
      <path id="Path_25" data-name="Path 25" d="M36.445,460.994V511.12H22.124l-9.548-52.513Z" fill="#ffb9b9"/>
      <path id="Path_26" data-name="Path 26" d="M268.061,256.642s-23.014-16.541-25.891-8.63,17.261,22.3,17.261,22.3Z" transform="translate(-156.064 -165.16)" fill="#ffb9b9"/>
      <path id="Path_27" data-name="Path 27" d="M186.433,277.858c0,28.6,12.313,29.487,32.371,29.487s40.267-.889,40.267-29.487-16.261-51.781-36.319-51.781S186.433,249.26,186.433,277.858Z" transform="translate(-156.064 -165.16)" fill="#2f2e41"/>
      <path id="Path_28" data-name="Path 28" d="M235.7,277.5s-2.877,21.576,10.788,23.014-44.59,5.754-44.59,5.754,15.1-13.665,7.192-24.452S235.7,277.5,235.7,277.5Z" transform="translate(-156.064 -165.16)" fill="#ffb9b9"/>
      <path id="Path_29" data-name="Path 29" d="M308.336,662.983l5.034,42.432s25.172,30.925,9.349,28.768-25.891.459-25.891-2.418-.372-13.155-2.53-13.155-3.943,16.23-3.943,16.23-6.473-.49-7.192-1.209-1.438-41.88-1.438-41.88-2.158-12.226,2.158-17.98,3.6-10.788,3.6-10.788Z" transform="translate(-156.064 -165.16)" fill="#2f2e41"/>
      <path id="Path_30" data-name="Path 30" d="M193.763,662.517l5.034,42.432s25.172,30.925,9.349,28.768-25.891.459-25.891-2.418-.372-13.155-2.53-13.155-3.943,16.23-3.943,16.23-6.473-.49-7.192-1.209-1.438-41.88-1.438-41.88S165,679.058,169.311,673.3s3.6-10.788,3.6-10.788Z" transform="translate(-156.064 -165.16)" fill="#2f2e41"/>
      <path id="Path_31" data-name="Path 31" d="M270.938,410.548s23.014,65.446,24.452,79.83-1.438,63.289-1.438,63.289,20.856,84.5,16.541,85.218-28.346,4.129-29.065.533-3.283-9.163-2.564-11.321-2.158-10.068-2.158-14.383-10.084-26.964-9.365-30.56-12.226-56.816-14.384-61.131-7.911-34.521-7.911-34.521-32.363,88.46-33.083,90.618-3.6,5.754-2.158,6.473-2.158,5.754-2.158,5.754-7.452,29.84-7.452,31.279,1.438,17.719-1.438,18.438-32.261.673-33.7-4.361,15.261-63.336,15.261-63.336,12.226-36.679,8.63-46.028,3.6-65.446,6.473-69.761,3.6-30.206,3.6-30.206Z" transform="translate(-156.064 -165.16)" fill="#2f2e41"/>
      <circle id="Ellipse_4" data-name="Ellipse 4" cx="23.014" cy="23.014" r="23.014" transform="translate(44.034 78.177)" fill="#ffb9b9"/>
      <path id="Path_32" data-name="Path 32" d="M235.7,295.478s-25.891.719-27.329-1.438-37.4,5.034-37.4,19.418,20.856,70.48,20.856,70.48,7.911,40.275,5.753,44.59,79.83-9.349,77.672-16.541-14.384-23.014,1.438-36.679,22.295-28.048,22.295-28.048l-18.7-49.624s-18.7-2.877-23.014,0S235.7,295.478,235.7,295.478Z" transform="translate(-156.064 -165.16)" fill="#ff9100"/>
      <path id="Path_33" data-name="Path 33" d="M293.952,350.856l5.034-3.6s46.747-48.9,34.521-58.254-30.206-17.98-38.836-18.7-15.822-7.192-15.822-7.192-9.349-16.541-16.541-5.754-15.1,14.384-5.034,17.98,16.541,2.158,21.576,5.754,24.452,9.349,15.822,11.507a77.2,77.2,0,0,0-14.384,5.034l-9.349,16.541Z" transform="translate(-156.064 -165.16)" fill="#ff9100"/>
      <path id="Path_34" data-name="Path 34" d="M212.684,472.4s18.7,27.329,5.034,25.891-20.137-20.137-20.137-20.137Z" transform="translate(-156.064 -165.16)" fill="#ffb9b9"/>
      <path id="Path_35" data-name="Path 35" d="M176.005,309.862l-5.034,3.6s-16.541,90.618,0,114.351S188.95,450.1,188.95,450.1s2.877-2.158,4.315,12.226-.719,20.137,3.6,20.137,23.733-4.315,22.295-7.911-10.788-24.452-11.507-29.487-4.315-16.541-5.753-23.014,6.473-10.069,2.877-23.733-8.63-38.117-8.63-43.151S176.005,309.862,176.005,309.862Z" transform="translate(-156.064 -165.16)" fill="#ff9100"/>
      <path id="Path_36" data-name="Path 36" d="M200.817,245.854c0,7.745,10.626,14.024,23.733,14.024s25.172,4.149,25.172-3.6S237.658,231.83,224.55,231.83,200.817,238.109,200.817,245.854Z" transform="translate(-156.064 -165.16)" fill="#2f2e41"/>
      <path id="Path_37" data-name="Path 37" d="M258.856,282.712s.969,26.071-24.939,24.633,3.5-22.285,3.5-22.285Z" transform="translate(-156.064 -165.16)" fill="#2f2e41"/>
      <rect id="Rectangle_4" data-name="Rectangle 4" width="702.906" height="2.241" transform="translate(0 567.379)" fill="#3f3d56"/>
    </g>
  </g>
</svg>
