<svg xmlns="http://www.w3.org/2000/svg" xmlns:xlink="http://www.w3.org/1999/xlink" width="1920" height="1080" viewBox="0 0 1920 1080">
  <defs>
    <linearGradient id="linear-gradient" x1="0.5" y1="1" x2="0.5" gradientUnits="objectBoundingBox">
      <stop offset="0" stop-color="gray" stop-opacity="0.251"/>
      <stop offset="0.54" stop-color="gray" stop-opacity="0.122"/>
      <stop offset="1" stop-color="gray" stop-opacity="0.102"/>
    </linearGradient>
    <linearGradient id="linear-gradient-2" x1="0.5" y1="1" x2="0.5" y2="-0.001" xlink:href="#linear-gradient"/>
  </defs>
  <g id="Group_53" data-name="Group 53" transform="translate(0 -3240)">
    <rect id="Rectangle_75" data-name="Rectangle 75" width="1920" height="1080" transform="translate(0 3240)" fill="#fff"/>
    <g id="Group_52" data-name="Group 52" transform="translate(82.235 3319.323)" opacity="0.42">
      <g id="Group_44" data-name="Group 44" transform="translate(680.988 63.712)" opacity="0.1">
        <ellipse id="Ellipse_35" data-name="Ellipse 35" cx="18.228" cy="23.866" rx="18.228" ry="23.866" transform="translate(68.701 492.668)" fill="#3f3d56"/>
        <path id="Path_488" data-name="Path 488" d="M552.725,475.448a28.833,28.833,0,0,0,3.812-14.592c0-13.183-8.169-23.866-18.244-23.866S520,447.706,520,460.888a28.833,28.833,0,0,0,3.812,14.592,29.809,29.809,0,0,0,0,29.168,29.808,29.808,0,0,0,0,29.168A28.736,28.736,0,0,0,520,548.409c0,13.167,8.169,23.866,18.228,23.866s18.244-10.7,18.244-23.866a28.735,28.735,0,0,0-3.812-14.592,29.809,29.809,0,0,0,0-29.168,29.809,29.809,0,0,0,0-29.168Z" transform="translate(-451.364 -61.026)" fill="#3f3d56"/>
        <ellipse id="Ellipse_36" data-name="Ellipse 36" cx="18.228" cy="23.866" rx="18.228" ry="23.866" transform="translate(68.701 346.828)" fill="#3f3d56"/>
        <ellipse id="Ellipse_37" data-name="Ellipse 37" cx="18.228" cy="23.866" rx="18.228" ry="23.866" transform="translate(68.701 317.66)" fill="#3f3d56"/>
        <path id="Path_489" data-name="Path 489" d="M495.843,344.169a85.032,85.032,0,0,1-6.791-9.995l47.893-7.865-51.8.384a87.488,87.488,0,0,1-1.6-69.2l69.5,36.056-64.07-47.124A87.344,87.344,0,1,1,633.13,344.137a87.363,87.363,0,0,1,9.963,15.922l-62.2,32.388,66.3-22.249a87.344,87.344,0,0,1-14.08,82.01,87.328,87.328,0,1,1-137.271,0,87.328,87.328,0,0,1,0-107.991Z" transform="translate(-477.149 -202.271)" fill="#fe9d2b"/>
        <path id="Path_490" data-name="Path 490" d="M651.807,325.054a86.927,86.927,0,0,1-18.693,54,87.328,87.328,0,1,1-137.271,0C484.134,364.185,651.807,315.251,651.807,325.054Z" transform="translate(-477.149 -129.16)" opacity="0.1"/>
      </g>
      <g id="Group_45" data-name="Group 45" transform="translate(915.76 143.53)" opacity="0.1">
        <ellipse id="Ellipse_38" data-name="Ellipse 38" cx="13.631" cy="17.828" rx="13.631" ry="17.828" transform="translate(51.336 367.856)" fill="#3f3d56"/>
        <path id="Path_491" data-name="Path 491" d="M680.171,456.056a21.51,21.51,0,0,0,2.835-10.892c0-9.851-6.1-17.844-13.615-17.844s-13.631,8.009-13.631,17.844a21.354,21.354,0,0,0,2.851,10.892,22.265,22.265,0,0,0,0,21.8,22.265,22.265,0,0,0,0,21.8,21.353,21.353,0,0,0-2.851,10.892c0,9.851,6.1,17.844,13.631,17.844s13.615-8.009,13.615-17.844a21.51,21.51,0,0,0-2.835-10.892,22.425,22.425,0,0,0,0-21.8,22.425,22.425,0,0,0,0-21.8Z" transform="translate(-604.441 -146.664)" fill="#3f3d56"/>
        <ellipse id="Ellipse_39" data-name="Ellipse 39" cx="13.631" cy="17.828" rx="13.631" ry="17.828" transform="translate(51.336 258.872)" fill="#3f3d56"/>
        <ellipse id="Ellipse_40" data-name="Ellipse 40" cx="13.631" cy="17.828" rx="13.631" ry="17.828" transform="translate(51.336 237.072)" fill="#3f3d56"/>
        <path id="Path_492" data-name="Path 492" d="M637.687,357.83a62.479,62.479,0,0,1-5.078-7.464l35.8-5.878-38.715.288a65.416,65.416,0,0,1-1.249-51.721l51.945,26.958-47.909-35.239a65.272,65.272,0,1,1,107.783,73.04,66.006,66.006,0,0,1,7.448,11.9l-46.451,24.138L750.8,377.228a65.288,65.288,0,0,1-10.523,61.283,65.256,65.256,0,1,1-102.513,0,65.256,65.256,0,0,1,0-80.7Z" transform="translate(-623.72 -252.103)" fill="#fe9d2b"/>
        <path id="Path_493" data-name="Path 493" d="M754.22,343.661a64.983,64.983,0,0,1-13.967,40.348,65.256,65.256,0,1,1-102.513,0C628.962,372.909,754.22,336.341,754.22,343.661Z" transform="translate(-623.709 -197.585)" opacity="0.1"/>
      </g>
      <g id="Group_46" data-name="Group 46" transform="translate(1575.399 -0.359)" opacity="0.1">
        <ellipse id="Ellipse_41" data-name="Ellipse 41" cx="18.228" cy="23.866" rx="18.228" ry="23.866" transform="translate(69.931 492.668)" fill="#3f3d56"/>
        <path id="Path_494" data-name="Path 494" d="M1083,435.448a28.83,28.83,0,0,1-3.812-14.592c0-13.183,8.168-23.866,18.244-23.866s18.228,10.684,18.228,23.866a28.827,28.827,0,0,1-3.812,14.592,29.808,29.808,0,0,1,0,29.168,29.808,29.808,0,0,1,0,29.168,28.733,28.733,0,0,1,3.812,14.592c0,13.166-8.169,23.866-18.228,23.866s-18.244-10.7-18.244-23.866A28.734,28.734,0,0,1,1083,493.784a29.808,29.808,0,0,1,0-29.168A29.809,29.809,0,0,1,1083,435.448Z" transform="translate(-1009.275 -21.027)" fill="#3f3d56"/>
        <ellipse id="Ellipse_42" data-name="Ellipse 42" cx="18.228" cy="23.866" rx="18.228" ry="23.866" transform="translate(69.931 346.827)" fill="#3f3d56"/>
        <ellipse id="Ellipse_43" data-name="Ellipse 43" cx="18.228" cy="23.866" rx="18.228" ry="23.866" transform="translate(69.931 317.659)" fill="#3f3d56"/>
        <path id="Path_495" data-name="Path 495" d="M1191.935,304.169a85,85,0,0,0,6.792-9.995l-47.893-7.865,51.8.384a87.488,87.488,0,0,0,1.6-69.2l-69.5,36.056,64.07-47.124a87.344,87.344,0,1,0-144.158,97.707,87.36,87.36,0,0,0-9.963,15.922l62.2,32.388-66.3-22.249a87.344,87.344,0,0,0,14.079,82.01,87.328,87.328,0,1,0,137.271,0,87.328,87.328,0,0,0,0-107.991Z" transform="translate(-1035.541 -162.271)" fill="#fe9d2b"/>
        <path id="Path_496" data-name="Path 496" d="M1035.811,285.054a86.927,86.927,0,0,0,18.693,54,87.328,87.328,0,1,0,137.271,0C1203.483,324.185,1035.811,275.251,1035.811,285.054Z" transform="translate(-1035.38 -89.16)" opacity="0.1"/>
      </g>
      <g id="Group_47" data-name="Group 47" transform="translate(1421.974 133.92)" opacity="0.1">
        <ellipse id="Ellipse_44" data-name="Ellipse 44" cx="13.631" cy="17.828" rx="13.631" ry="17.828" transform="translate(51.983 367.856)" fill="#3f3d56"/>
        <path id="Path_497" data-name="Path 497" d="M975.066,450.056a21.512,21.512,0,0,1-2.835-10.892c0-9.851,6.1-17.844,13.615-17.844s13.631,8.009,13.631,17.844a21.351,21.351,0,0,1-2.851,10.892,22.264,22.264,0,0,1,0,21.8,22.264,22.264,0,0,1,0,21.8,21.35,21.35,0,0,1,2.851,10.892c0,9.851-6.1,17.844-13.631,17.844s-13.615-8.009-13.615-17.844a21.511,21.511,0,0,1,2.835-10.892,22.424,22.424,0,0,1,0-21.8,22.425,22.425,0,0,1,0-21.8Z" transform="translate(-920.216 -140.664)" fill="#3f3d56"/>
        <ellipse id="Ellipse_45" data-name="Ellipse 45" cx="13.631" cy="17.828" rx="13.631" ry="17.828" transform="translate(51.983 258.872)" fill="#3f3d56"/>
        <ellipse id="Ellipse_46" data-name="Ellipse 46" cx="13.631" cy="17.828" rx="13.631" ry="17.828" transform="translate(51.983 237.072)" fill="#3f3d56"/>
        <path id="Path_498" data-name="Path 498" d="M1056.371,351.83a62.434,62.434,0,0,0,5.078-7.464l-35.8-5.878,38.715.288a65.417,65.417,0,0,0,1.249-51.721l-51.945,26.958,47.909-35.239a65.272,65.272,0,1,0-107.783,73.04,65.988,65.988,0,0,0-7.448,11.9L992.8,387.854l-49.446-16.61a65.288,65.288,0,0,0,10.524,61.283,65.256,65.256,0,1,0,102.513,0,65.256,65.256,0,0,0,0-80.7Z" transform="translate(-939.757 -246.103)" fill="#fe9d2b"/>
        <path id="Path_499" data-name="Path 499" d="M939.812,337.661a64.985,64.985,0,0,0,13.968,40.348,65.256,65.256,0,1,0,102.513,0C1065.07,366.909,939.812,330.341,939.812,337.661Z" transform="translate(-939.743 -191.585)" opacity="0.1"/>
      </g>
      <g id="Group_48" data-name="Group 48" transform="translate(11.708 -0.091)" opacity="0.1">
        <ellipse id="Ellipse_47" data-name="Ellipse 47" cx="18.228" cy="23.866" rx="18.228" ry="23.866" transform="translate(68.717 492.4)" fill="#3f3d56"/>
        <path id="Path_500" data-name="Path 500" d="M134.855,435.448a28.832,28.832,0,0,0,3.812-14.592c0-13.183-8.169-23.866-18.228-23.866s-18.228,10.684-18.228,23.866a28.832,28.832,0,0,0,3.8,14.592,29.9,29.9,0,0,0,0,29.168,29.9,29.9,0,0,0,0,29.168,28.72,28.72,0,0,0-3.8,14.592c0,13.166,8.153,23.866,18.228,23.866s18.276-10.668,18.276-23.834a28.736,28.736,0,0,0-3.812-14.592,29.809,29.809,0,0,0,0-29.168,29.809,29.809,0,0,0,0-29.168Z" transform="translate(-33.494 -21.295)" fill="#3f3d56"/>
        <ellipse id="Ellipse_48" data-name="Ellipse 48" cx="18.228" cy="23.866" rx="18.228" ry="23.866" transform="translate(68.717 346.559)" fill="#3f3d56"/>
        <ellipse id="Ellipse_49" data-name="Ellipse 49" cx="18.228" cy="23.866" rx="18.228" ry="23.866" transform="translate(68.717 317.391)" fill="#3f3d56"/>
        <path id="Path_501" data-name="Path 501" d="M78.035,304.069a87.023,87.023,0,0,1-6.791-9.995l47.909-7.865-51.849.465a87.488,87.488,0,0,1-1.6-69.2l69.516,36.056-64.07-47.124a87.328,87.328,0,1,1,144.159,97.707,87.359,87.359,0,0,1,9.963,15.922l-62.212,32.307L229.37,330.1a87.44,87.44,0,0,1-14.1,82.01,87.328,87.328,0,1,1-137.271,0,87.328,87.328,0,0,1,0-107.991Z" transform="translate(-59.309 -162.439)" fill="#fe9d2b"/>
        <path id="Path_502" data-name="Path 502" d="M233.967,285.054a86.927,86.927,0,0,1-18.693,54,87.328,87.328,0,1,1-137.271,0C66.294,324.185,233.967,275.251,233.967,285.054Z" transform="translate(-59.309 -89.428)" opacity="0.1"/>
      </g>
      <g id="Group_49" data-name="Group 49" transform="translate(209.639 133.92)" opacity="0.1">
        <ellipse id="Ellipse_50" data-name="Ellipse 50" cx="13.631" cy="17.828" rx="13.631" ry="17.828" transform="translate(51.336 367.856)" fill="#3f3d56"/>
        <path id="Path_503" data-name="Path 503" d="M239.341,450.056a21.512,21.512,0,0,0,2.835-10.892c0-9.851-6.087-17.844-13.615-17.844s-13.631,8.009-13.631,17.844a21.511,21.511,0,0,0,2.851,10.892,22.264,22.264,0,0,0,0,21.8,22.265,22.265,0,0,0,0,21.8,21.512,21.512,0,0,0-2.851,10.892c0,9.851,6.1,17.844,13.631,17.844s13.615-8.009,13.615-17.844a21.512,21.512,0,0,0-2.835-10.892,22.424,22.424,0,0,0,0-21.8,22.424,22.424,0,0,0,0-21.8Z" transform="translate(-163.594 -140.664)" fill="#3f3d56"/>
        <ellipse id="Ellipse_51" data-name="Ellipse 51" cx="13.631" cy="17.828" rx="13.631" ry="17.828" transform="translate(51.336 258.872)" fill="#3f3d56"/>
        <ellipse id="Ellipse_52" data-name="Ellipse 52" cx="13.631" cy="17.828" rx="13.631" ry="17.828" transform="translate(51.336 237.072)" fill="#3f3d56"/>
        <path id="Path_504" data-name="Path 504" d="M196.847,351.831a64.4,64.4,0,0,1-5.078-7.464l35.8-5.879-38.715.288a65.416,65.416,0,0,1-1.249-51.721l51.945,26.958-47.909-35.239a65.272,65.272,0,1,1,107.783,73.04,64.265,64.265,0,0,1,7.448,11.9l-46.451,24.139,49.542-16.626a65.288,65.288,0,0,1-10.524,61.283,65.256,65.256,0,1,1-102.513,0,65.256,65.256,0,0,1,0-80.7Z" transform="translate(-182.88 -246.103)" fill="#fe9d2b"/>
        <path id="Path_505" data-name="Path 505" d="M313.38,337.661a64.984,64.984,0,0,1-13.967,40.348,65.256,65.256,0,1,1-102.513,0C188.09,366.909,313.38,330.341,313.38,337.661Z" transform="translate(-182.869 -191.585)" opacity="0.1"/>
      </g>
      <ellipse id="Ellipse_53" data-name="Ellipse 53" cx="877.765" cy="14.192" rx="877.765" ry="14.192" transform="translate(0 775.901)" fill="#fe9d2b" opacity="0.1"/>
      <ellipse id="Ellipse_54" data-name="Ellipse 54" cx="877.765" cy="14.192" rx="877.765" ry="14.192" transform="translate(0 892.429)" fill="#fe9d2b" opacity="0.1"/>
      <ellipse id="Ellipse_55" data-name="Ellipse 55" cx="877.765" cy="14.192" rx="877.765" ry="14.192" transform="translate(0 532.706)" fill="#fe9d2b" opacity="0.1"/>
      <ellipse id="Ellipse_56" data-name="Ellipse 56" cx="877.765" cy="14.192" rx="877.765" ry="14.192" transform="translate(0 654.295)" fill="#fe9d2b" opacity="0.1"/>
      <path id="Path_506" data-name="Path 506" d="M893.785,287.659a29.312,29.312,0,0,0-16.979,1.858,25.067,25.067,0,0,1-20.406,0,28.64,28.64,0,0,0-24.026.464,14.8,14.8,0,0,1-6.9,1.73c-9.739,0-17.828-9.8-19.509-22.729a19.028,19.028,0,0,0,4.805-5.238c5.7-9.194,14.528-15.1,24.459-15.1s18.645,5.83,24.347,14.928a18.708,18.708,0,0,0,16.162,8.874h.256C883.822,272.362,890.533,278.577,893.785,287.659Z" transform="translate(401.704 -110.657)" fill="#fe9d2b" opacity="0.1"/>
      <path id="Path_507" data-name="Path 507" d="M923.445,260.642l-15.729,9.963,9.611-17.363a15.538,15.538,0,0,0-9.515-3.38h-.256a18.181,18.181,0,0,1-3.2-.24L898.939,253l2.29-4.165a18.885,18.885,0,0,1-9.339-7.08l-9.61,6.055,6.023-10.956c-5.574-6.7-13.1-10.8-21.368-10.8-9.931,0-18.757,5.895-24.475,15.089a18.277,18.277,0,0,1-16.162,8.714h-.529c-10.956,0-19.83,12.414-19.83,27.727s8.874,27.743,19.83,27.743a15.041,15.041,0,0,0,6.9-1.73,28.607,28.607,0,0,1,24.026-.48,24.908,24.908,0,0,0,20.406,0,28.7,28.7,0,0,1,23.8.465,14.9,14.9,0,0,0,6.823,1.7c10.956,0,19.83-12.43,19.83-27.742A35.127,35.127,0,0,0,923.445,260.642Z" transform="translate(401.692 -124.244)" fill="#fe9d2b" opacity="0.1"/>
      <path id="Path_508" data-name="Path 508" d="M466.344,277.85a20.567,20.567,0,0,0-11.9,1.3,17.492,17.492,0,0,1-14.272,0,19.99,19.99,0,0,0-16.8.336,10.6,10.6,0,0,1-4.805,1.2c-6.808,0-12.478-6.855-13.663-15.905a13.326,13.326,0,0,0,3.412-3.668c3.988-6.407,10.171-10.572,17.123-10.572s13.054,4.084,17.043,10.443A13.119,13.119,0,0,0,453.8,267.2h.176C459.36,267.166,464.053,271.523,466.344,277.85Z" transform="translate(160.362 -109.513)" fill="#fe9d2b" opacity="0.1"/>
      <path id="Path_509" data-name="Path 509" d="M487.1,258.959l-11,6.984,6.679-12.157a10.812,10.812,0,0,0-6.647-2.371h-.192a12,12,0,0,1-2.274-.176l-3.732,2.371,1.6-2.915a13.3,13.3,0,0,1-6.535-4.949l-6.679,4.229,4.229-7.656a19.557,19.557,0,0,0-14.96-7.576c-6.952,0-13.134,4.133-17.123,10.572a12.814,12.814,0,0,1-11.324,6.1h-.368c-7.672,0-13.887,8.681-13.887,19.413s6.215,19.413,13.887,19.413a10.412,10.412,0,0,0,4.805-1.217,20.022,20.022,0,0,1,16.786-.32,17.2,17.2,0,0,0,14.288.1,20.086,20.086,0,0,1,16.658.32,10.38,10.38,0,0,0,4.805,1.185c7.656,0,13.871-8.7,13.871-19.413a24.555,24.555,0,0,0-2.883-11.933Z" transform="translate(160.35 -119.021)" fill="#fe9d2b" opacity="0.1"/>
      <path id="Path_510" data-name="Path 510" d="M321.59,356.26a20.535,20.535,0,0,1,11.885,1.3,17.523,17.523,0,0,0,14.288,0,20.054,20.054,0,0,1,16.8.32,10.364,10.364,0,0,0,4.805,1.217c6.808,0,12.478-6.872,13.647-15.922a13.055,13.055,0,0,1-3.4-3.668c-4-6.407-10.187-10.556-17.123-10.556s-13.054,4.068-17.059,10.443a13.119,13.119,0,0,1-11.308,6.215h-.176C328.558,345.64,323.849,349.981,321.59,356.26Z" transform="translate(110.229 -62.329)" fill="#fe9d2b" opacity="0.1"/>
      <path id="Path_511" data-name="Path 511" d="M309.7,337.393l11.02,6.984-6.7-12.141a10.875,10.875,0,0,1,6.663-2.387h.176a13.644,13.644,0,0,0,2.291-.16l3.732,2.355-1.6-2.9a13.28,13.28,0,0,0,6.519-4.95l6.679,4.229-4.165-7.672a19.541,19.541,0,0,1,14.96-7.56c6.936,0,13.134,4.132,17.123,10.572a12.814,12.814,0,0,0,11.309,6.1h.384c7.656,0,13.871,8.7,13.871,19.413s-6.215,19.413-13.871,19.413a10.394,10.394,0,0,1-4.805-1.2,19.99,19.99,0,0,0-16.8-.336,17.4,17.4,0,0,1-7.176,1.6,17.619,17.619,0,0,1-7.112-1.506,20.054,20.054,0,0,0-16.642.32,10.379,10.379,0,0,1-4.805,1.185c-7.672,0-13.887-8.682-13.887-19.413a24.732,24.732,0,0,1,2.835-11.949Z" transform="translate(101.363 -71.813)" fill="#fe9d2b" opacity="0.1"/>
      <path id="Path_512" data-name="Path 512" d="M723.063,716.966c4.181-7.753-.561-17.235-6.007-24.139s-12.109-14.1-11.965-22.889c.208-12.638,13.631-20.118,24.347-26.813A119.016,119.016,0,0,0,751.3,625.505a32.244,32.244,0,0,0,6.711-9c2.227-4.933,2.162-10.572,2.018-16.018q-.689-27.054-2.675-54.076" transform="translate(341.004 68.53)" fill="none" stroke="#3f3d56" stroke-miterlimit="10" stroke-width="4" opacity="0.3"/>
      <path id="Path_513" data-name="Path 513" d="M765.258,552.916a19.718,19.718,0,0,0-9.851-16.162l-4.421,8.73.144-10.572a19.718,19.718,0,1,0,14.128,18Z" transform="translate(353.493 61.127)" fill="#fe9d2b" opacity="0.3"/>
      <path id="Path_514" data-name="Path 514" d="M742.486,639.9a19.718,19.718,0,0,1-37.225-8.009,19.223,19.223,0,0,1,1.281-8.009,19.734,19.734,0,0,1,36.841.208l-12.318,10.027,13.551-3.2A19.6,19.6,0,0,1,742.486,639.9Z" transform="translate(341.09 107.599)" fill="#fe9d2b" opacity="0.3"/>
      <path id="Path_515" data-name="Path 515" d="M730.167,620.082A19.718,19.718,0,0,1,723.92,581.4l-.112,8.121,4.469-8.842h0a19.723,19.723,0,1,1,1.842,39.4Z" transform="translate(343.67 89.138)" fill="#fe9d2b" opacity="0.3"/>
      <path id="Path_516" data-name="Path 516" d="M760.09,600.186a19.718,19.718,0,1,1,8.714-36.84l-3.476,9.61,7.1-7.016a19.718,19.718,0,0,1-12.4,34.23Z" transform="translate(361.623 77.175)" fill="#fe9d2b" opacity="0.3"/>
      <path id="Path_517" data-name="Path 517" d="M762.61,554.107c-4.549.5-8.97,1.906-13.551,2.195s-9.61-.817-12.462-4.357a63.216,63.216,0,0,1-3.652-6.407,14.032,14.032,0,0,0-4.965-4.677,19.718,19.718,0,1,0,36.84,13.1C764.1,553.978,763.347,554.027,762.61,554.107Z" transform="translate(353.481 65.19)" opacity="0.1"/>
      <path id="Path_518" data-name="Path 518" d="M760.058,595.947A19.718,19.718,0,0,1,741.3,567.82a14.59,14.59,0,0,1,3.956,3.972,66.852,66.852,0,0,0,3.908,6.519c3.075,3.6,8.329,4.805,13.087,4.565s9.354-1.6,14.1-2c.657,0,1.314-.1,1.986-.112a19.718,19.718,0,0,1-18.276,15.185Z" transform="translate(361.655 81.414)" opacity="0.1"/>
      <path id="Path_519" data-name="Path 519" d="M730.164,615.7a19.718,19.718,0,0,1-18.917-27.759,16.017,16.017,0,0,1,4.18,4,66.056,66.056,0,0,0,4.277,6.647c3.316,3.7,8.922,5.013,13.951,4.805s9.611-1.3,14.416-1.6a19.749,19.749,0,0,1-17.907,13.9Z" transform="translate(343.673 93.521)" opacity="0.1"/>
      <path id="Path_520" data-name="Path 520" d="M742.486,635.188a19.718,19.718,0,0,1-37.225-8.009,19.222,19.222,0,0,1,1.281-8.009,19.681,19.681,0,0,1,4.325,3.86c1.874,2.275,3.107,4.805,5.286,7,4.021,3.956,10.54,5.59,16.322,5.734A82.831,82.831,0,0,0,742.486,635.188Z" transform="translate(341.09 112.314)" opacity="0.1"/>
      <path id="Path_521" data-name="Path 521" d="M113.063,644.966c4.181-7.753-.561-17.235-6.007-24.139S94.947,606.7,95.091,597.938c.208-12.638,13.631-20.118,24.347-26.813A119.017,119.017,0,0,0,141.3,553.5a32.248,32.248,0,0,0,6.711-9c2.226-4.933,2.162-10.572,2.018-16.018q-.7-27.054-2.675-54.075" transform="translate(-26.071 25.203)" fill="none" stroke="#3f3d56" stroke-miterlimit="10" stroke-width="4" opacity="0.3"/>
      <path id="Path_522" data-name="Path 522" d="M155.257,480.916a19.718,19.718,0,0,0-9.851-16.162l-4.421,8.73.144-10.572a19.718,19.718,0,1,0,14.128,18Z" transform="translate(-13.582 17.8)" fill="#fe9d2b" opacity="0.3"/>
      <path id="Path_523" data-name="Path 523" d="M132.485,567.9a19.718,19.718,0,0,1-37.225-8.009,19.221,19.221,0,0,1,1.281-8.009,19.734,19.734,0,0,1,36.84.208l-12.318,10.027,13.551-3.2a19.605,19.605,0,0,1-2.13,8.986Z" transform="translate(-25.984 64.272)" fill="#fe9d2b" opacity="0.3"/>
      <path id="Path_524" data-name="Path 524" d="M120.167,548.082A19.718,19.718,0,0,1,113.92,509.4l-.112,8.121,4.469-8.842h0a19.723,19.723,0,1,1,1.842,39.4Z" transform="translate(-23.405 45.811)" fill="#fe9d2b" opacity="0.3"/>
      <path id="Path_525" data-name="Path 525" d="M150.09,528.186a19.718,19.718,0,1,1,8.714-36.84l-3.476,9.611,7.1-7.016a19.718,19.718,0,0,1-12.4,34.23Z" transform="translate(-5.451 33.848)" fill="#fe9d2b" opacity="0.3"/>
      <path id="Path_526" data-name="Path 526" d="M152.61,482.107c-4.549.5-8.97,1.906-13.551,2.194s-9.611-.817-12.462-4.357a63.243,63.243,0,0,1-3.652-6.407,14.031,14.031,0,0,0-4.965-4.677,19.718,19.718,0,1,0,36.841,13.1C154.1,481.978,153.347,482.026,152.61,482.107Z" transform="translate(-13.593 21.863)" opacity="0.1"/>
      <path id="Path_527" data-name="Path 527" d="M150.058,523.947A19.718,19.718,0,0,1,131.3,495.82a14.593,14.593,0,0,1,3.956,3.972,66.835,66.835,0,0,0,3.908,6.519c3.075,3.6,8.329,4.805,13.086,4.565s9.354-1.6,14.1-2c.657,0,1.313-.1,1.986-.112A19.717,19.717,0,0,1,150.058,523.947Z" transform="translate(-5.419 38.087)" opacity="0.1"/>
      <path id="Path_528" data-name="Path 528" d="M120.164,543.7a19.718,19.718,0,0,1-18.917-27.759,16.018,16.018,0,0,1,4.181,4,66.054,66.054,0,0,0,4.277,6.647c3.316,3.7,8.922,5.014,13.951,4.805s9.611-1.3,14.416-1.6A19.75,19.75,0,0,1,120.164,543.7Z" transform="translate(-23.402 50.194)" opacity="0.1"/>
      <path id="Path_529" data-name="Path 529" d="M132.485,563.188a19.718,19.718,0,0,1-37.225-8.009,19.221,19.221,0,0,1,1.281-8.009,19.686,19.686,0,0,1,4.325,3.86c1.874,2.274,3.107,4.805,5.286,7,4.02,3.956,10.54,5.59,16.322,5.734A82.829,82.829,0,0,0,132.485,563.188Z" transform="translate(-25.984 68.987)" opacity="0.1"/>
      <path id="Path_530" data-name="Path 530" d="M526.428,562.584c-4.181-7.736.561-17.219,6.023-24.122s12.093-14.1,11.949-22.889c-.192-12.654-13.615-20.118-24.347-26.814a118.527,118.527,0,0,1-21.848-17.619,31.684,31.684,0,0,1-6.727-8.986c-2.21-4.949-2.146-10.572-2.018-16.018q.721-27.054,2.675-54.076" transform="translate(211.215 -24.352)" fill="none" stroke="#3f3d56" stroke-miterlimit="10" stroke-width="4" opacity="0.3"/>
      <path id="Path_531" data-name="Path 531" d="M478.4,398.555a19.7,19.7,0,0,1,9.835-16.162l4.421,8.73-.128-10.572a20.214,20.214,0,0,1,6.487-.785A19.718,19.718,0,1,1,478.4,398.555Z" transform="translate(204.577 -31.76)" fill="#fe9d2b" opacity="0.3"/>
      <path id="Path_532" data-name="Path 532" d="M501.159,485.6a19.718,19.718,0,1,0-.945-15.873l12.317,10.027-13.551-3.2a19.605,19.605,0,0,0,2.178,9.05Z" transform="translate(216.975 14.651)" fill="#fe9d2b" opacity="0.3"/>
      <path id="Path_533" data-name="Path 533" d="M513.482,465.722a19.718,19.718,0,0,0,6.263-38.683l.1,8.121-4.469-8.842h0a19.718,19.718,0,0,0-20.663,18.725,19.48,19.48,0,0,0,.849,6.727A19.7,19.7,0,0,0,513.482,465.722Z" transform="translate(214.391 -3.751)" fill="#fe9d2b" opacity="0.3"/>
      <path id="Path_534" data-name="Path 534" d="M483.62,445.806a19.718,19.718,0,1,0-8.73-36.841l3.492,9.611-7.176-6.872a19.557,19.557,0,0,0-6.407,13.615,19.077,19.077,0,0,0,.5,5.43,19.7,19.7,0,0,0,18.324,15.057Z" transform="translate(196.391 -15.725)" fill="#fe9d2b" opacity="0.3"/>
      <path id="Path_535" data-name="Path 535" d="M480.88,399.747c4.549.5,8.97,1.906,13.535,2.194s9.611-.817,12.478-4.357a63.116,63.116,0,0,0,3.636-6.407,14.078,14.078,0,0,1,4.981-4.677,19.718,19.718,0,1,1-36.84,13.087C479.391,399.6,480.128,399.667,480.88,399.747Z" transform="translate(204.754 -27.698)" opacity="0.1"/>
      <path id="Path_536" data-name="Path 536" d="M483.406,441.567a19.734,19.734,0,0,0,18.757-28.127,14.656,14.656,0,0,0-3.972,3.972,66.825,66.825,0,0,1-3.908,6.519c-3.059,3.6-8.313,4.805-13.07,4.565s-9.354-1.6-14.1-2c-.657,0-1.329-.1-1.986-.112A19.7,19.7,0,0,0,483.406,441.567Z" transform="translate(196.606 -11.486)" opacity="0.1"/>
      <path id="Path_537" data-name="Path 537" d="M513.148,461.339a19.7,19.7,0,0,0,18.917-27.758,15.746,15.746,0,0,0-4.165,4,66.032,66.032,0,0,1-4.277,6.647c-3.332,3.7-8.922,5.013-13.967,4.805s-9.611-1.3-14.416-1.6a19.7,19.7,0,0,0,17.908,13.9Z" transform="translate(214.725 0.633)" opacity="0.1"/>
      <path id="Path_538" data-name="Path 538" d="M500.34,480.828A19.718,19.718,0,0,0,536.3,464.81a18.934,18.934,0,0,0-4.325,3.86c-1.874,2.275-3.2,4.805-5.286,7-4.036,3.956-10.54,5.59-16.338,5.734A86.422,86.422,0,0,1,500.34,480.828Z" transform="translate(217.794 19.426)" opacity="0.1"/>
      <circle id="Ellipse_57" data-name="Ellipse 57" cx="160.112" cy="160.112" r="160.112" transform="translate(1088.83 221.611)" fill="#3f3d56" opacity="0.1"/>
      <path id="Path_539" data-name="Path 539" d="M927.878,469.521C922.3,463.947,908.9,455.537,902.25,452.4c-7.673-3.684-10.492-3.62-15.922.3-4.517,3.2-7.448,6.295-12.638,5.158s-15.473-8.89-25.42-18.8-17.668-20.134-18.773-25.4,1.938-8.137,5.174-12.654c3.908-5.43,4.02-8.249.3-15.921-3.2-6.647-11.517-20.022-17.139-25.628s-6.84-4.373-9.915-3.2a57.335,57.335,0,0,0-9.082,4.805c-5.574,3.732-8.7,6.839-10.892,11.517s-4.677,13.359,8.089,36.088a201.326,201.326,0,0,0,35.4,47.2h0A201.624,201.624,0,0,0,878.8,491.321c22.713,12.814,31.411,10.267,36.088,8.089s7.785-5.27,11.5-10.892a56.582,56.582,0,0,0,4.805-9.082C932.251,476.36,933.5,475.111,927.878,469.521Z" transform="translate(389.795 -46.504)" fill="#fe9d2b" opacity="0.3"/>
      <path id="Path_540" data-name="Path 540" d="M891.936,300.86a160.176,160.176,0,1,0,160.1,160.123A160.176,160.176,0,0,0,891.936,300.86Zm0,298.921a138.825,138.825,0,1,1,138.825-138.825A138.825,138.825,0,0,1,891.936,599.781Z" transform="translate(357.005 -79.233)" opacity="0.1"/>
      <circle id="Ellipse_58" data-name="Ellipse 58" cx="160.112" cy="160.112" r="160.112" transform="translate(720.985 464.807)" fill="#3f3d56" opacity="0.1"/>
      <path id="Path_541" data-name="Path 541" d="M727.946,522.568l-47.941,48.774a.865.865,0,0,0,0,1.249l33.637,35.767a5.788,5.788,0,1,1-8.185,8.185L672,580.9a.913.913,0,0,0-1.281,0l-8.153,8.233a35.831,35.831,0,0,1-25.628,10.78,36.616,36.616,0,0,1-26.077-11.084l-7.833-8.009a.913.913,0,0,0-1.281,0l-33.381,35.559a5.788,5.788,0,1,1-8.185-8.185l33.509-35.687a.961.961,0,0,0,0-1.249l-47.941-48.774a.881.881,0,0,0-1.506.625v97.6a14.288,14.288,0,0,0,14.24,14.24H715.244a14.288,14.288,0,0,0,14.24-14.24V523.193a.881.881,0,0,0-1.538-.625Z" transform="translate(244.211 53.978)" fill="#fe9d2b" opacity="0.3"/>
      <path id="Path_542" data-name="Path 542" d="M634.834,594.112a24.251,24.251,0,0,0,17.491-7.208l69.821-71.07a13.936,13.936,0,0,0-8.81-3.2H556.46a13.839,13.839,0,0,0-8.81,3.2l69.837,71.07A24.154,24.154,0,0,0,634.834,594.112Z" transform="translate(246.263 48.202)" fill="#fe9d2b" opacity="0.3"/>
      <path id="Path_543" data-name="Path 543" d="M661.026,452.69a160.176,160.176,0,1,0,160.1,160.123A160.176,160.176,0,0,0,661.026,452.69Zm0,298.921A138.825,138.825,0,1,1,799.851,612.786,138.825,138.825,0,0,1,661.026,751.611Z" transform="translate(218.053 12.133)" opacity="0.1"/>
      <circle id="Ellipse_59" data-name="Ellipse 59" cx="160.112" cy="160.112" r="160.112" transform="translate(340.999 345.235)" fill="#3f3d56" opacity="0.1"/>
      <path id="Path_544" data-name="Path 544" d="M388.83,430.16,325,577.426l5.959,5.958,57.888-25.532,57.888,25.532,5.959-5.958Z" transform="translate(112.281 -1.425)" fill="#fe9d2b" opacity="0.3"/>
      <path id="Path_545" data-name="Path 545" d="M425.056,378a160.083,160.083,0,1,0,.027,0Zm0,298.921a114.2,114.2,0,1,1,.016.064Z" transform="translate(76.055 -32.813)" opacity="0.1"/>
      <path id="Path_546" data-name="Path 546" d="M869.654,630.009q-2.178-5.318-4.469-10.6a31.475,31.475,0,0,0-5.462-9.434,10,10,0,0,0-3.2-2.4,13.671,13.671,0,0,0-4.181-.833,33.376,33.376,0,0,0-6.567-.176c-.849-.256-1.81-.593-2.755-.977a22.874,22.874,0,0,0,17.043-21.224c0-.32,0-.657,0-.977a22.825,22.825,0,0,0-22.729-22.921,22.426,22.426,0,0,0-11.933,3.412,21.415,21.415,0,0,0-24.026,11.581,26.477,26.477,0,0,0-8.169,19.7v1.009c.417,12.446,8.457,22.425,18.612,23.434a10.671,10.671,0,0,0-2.947,1.97c-3.107,3-3.62,7.753-3.956,12.077l-.24,3.2-5.382,1.922a.993.993,0,0,0-.24,1.746l5.142,3.668v.913a4.008,4.008,0,0,0,.1,1.041,7.353,7.353,0,0,0-1.986,2.835,13.1,13.1,0,0,0-.465,5.19l.192,4.469a35.09,35.09,0,0,0,1.361,9.947c.673,1.986,3.588,6.776,5.686,6.808-1.938,8.81-2.451,27.39-2.451,27.39-.24.24.433.464,1.6.657,1.153,8.842,4.918,33.637,11.6,44.545a93.9,93.9,0,0,1,2.515,10.828s1.906,23.562,4.421,30.562c2.146,5.958,3.844,20.663,4.309,24.923a2.451,2.451,0,0,0-1.778,1.826c-1.265,3.812-9.466,9.611-9.466,9.611a39.655,39.655,0,0,0-7.08,4.533c-2.579,2.323-2.483,4.421,8.97,3.108,22.1-2.547,25.884-9.611,25.884-9.611s-.352-1.185-.881-2.723a29.573,29.573,0,0,0-2.9-6.84c-.32-.3-.641.208-1.025,1.009a137.161,137.161,0,0,1-1.506-30.93s.625-10.828-2.531-18.468a34.967,34.967,0,0,1,0-12.093c1.265-5.094-5.046-29.937-5.046-29.937l-3.62-18.292a5.252,5.252,0,0,1,1.009,2.13l.1.368.1.529a1,1,0,0,0,.256.5c2.467,10.251,9.226,38.65,9.226,42.815,0,5.094,6.311,17.828,6.311,17.828s2.515,21.015,6.936,29.28c3.364,6.295,3.444,15.521,3.284,19.59h0s-.753,5.238-2.018,6.5a15.469,15.469,0,0,0-2.387,4.149l-.144.3s-1.89,3.828-.625,4.469a31.026,31.026,0,0,0,15.153,1.906s2.531-3.2,2.531-4.453a20.028,20.028,0,0,0-.288-2.275c-.464-3.011-1.329-7.752-1.346-7.8.529-2.05-1.6-7.753-1.6-7.753l-.641-17.828a82.3,82.3,0,0,0-4.421-35.671s-3.2-11.452-2.515-14.64-1.265-36.937-1.265-36.937l-.192-.481a36.475,36.475,0,0,1,.192-7.16c.625-7.641-1.89-23.562-2.531-24.187a20.979,20.979,0,0,1-.9-5.27c.144-1.329.577-5.222,1.169-10.059a180.8,180.8,0,0,0,18.612-1.6,2.323,2.323,0,0,0,1.6-.641,2.242,2.242,0,0,0,.368-1.3C876.8,648.2,873.29,638.882,869.654,630.009Zm-12.7,20.2c.657-4.565,1.361-8.986,2.066-12.27l.1.288a89.108,89.108,0,0,1,3.043,10.091A34.334,34.334,0,0,1,856.953,650.207Z" transform="translate(394.023 76.985)" fill="url(#linear-gradient)"/>
      <path id="Path_547" data-name="Path 547" d="M802.37,649.15s3.78,34.005,11.965,47.22a91.645,91.645,0,0,1,2.515,10.7s1.89,23.289,4.4,30.209,4.4,25.82,4.4,25.82,8.81,10.059,11.965,1.89a132.659,132.659,0,0,1-1.89-32.74s.625-10.7-2.515-18.26a34.146,34.146,0,0,1,0-11.949c1.249-5.046-5.046-29.585-5.046-29.585l-5.03-24.555Z" transform="translate(399.544 129.603)" fill="#be6f72"/>
      <path id="Path_548" data-name="Path 548" d="M840.7,728.516s-3.78,6.92-25.8,9.434c-11.437,1.3-11.517-.769-8.938-3.075A39.881,39.881,0,0,1,813,730.39s8.185-5.654,9.434-9.434,5.67-.625,5.67-.625c6.295,9.434,7.56-2.531,8.81-1.265a28.4,28.4,0,0,1,2.9,6.743C840.346,727.331,840.7,728.516,840.7,728.516Z" transform="translate(400.875 172.37)" fill="#ff6f61"/>
      <path id="Path_549" data-name="Path 549" d="M840.7,725.947s-3.78,6.92-25.8,9.434c-11.437,1.3-11.517-.769-8.938-3.075,1.794,1.137,5.414,1.6,12.7-1.329,10.492-4.293,18.1-6.775,21.159-7.737C840.346,724.762,840.7,725.947,840.7,725.947Z" transform="translate(400.875 174.939)" opacity="0.1"/>
      <path id="Path_550" data-name="Path 550" d="M829.567,732.249s.625-10.7-2.515-18.26a34.14,34.14,0,0,1,0-11.949c1.249-5.046-5.046-29.585-5.046-29.585l-5.03-24.555-4.357.256,4.981,24.3s6.295,24.539,5.046,29.585a34.149,34.149,0,0,0,0,11.949c3.2,7.56,2.515,18.26,2.515,18.26a132.651,132.651,0,0,0,1.89,32.74,5.511,5.511,0,0,1-1.826,2.595c2.339,1.057,4.805,1.009,6.231-2.595A132.665,132.665,0,0,1,829.567,732.249Z" transform="translate(405.712 129.603)" opacity="0.1"/>
      <path id="Path_551" data-name="Path 551" d="M837.2,562.42a22.425,22.425,0,0,0-11.885,3.38,21.384,21.384,0,0,0-24.026,11.453,26.077,26.077,0,0,0-8.153,19.477c0,13.391,9.018,24.235,20.134,24.235,8.009,0,15.025-5.7,18.244-13.951a22.1,22.1,0,0,0,5.67.737,22.665,22.665,0,1,0,0-45.33Z" transform="translate(393.982 78.164)" fill="#3f3d56"/>
      <path id="Path_552" data-name="Path 552" d="M841.736,650.65l1.89,5.03s1.89,33.365,1.249,36.52,2.531,14.416,2.531,14.416a80.585,80.585,0,0,1,4.4,35.239l.625,17.619s2.515,6.92,1.265,8.185-10.748-1.121-10.748-1.121,1.265-13.215-3.2-21.4-6.92-28.96-6.92-28.96-6.295-12.59-6.295-17.619S816.46,652.6,816.46,652.6Z" transform="translate(408.023 131.258)" fill="#be6f72"/>
      <path id="Path_553" data-name="Path 553" d="M801.6,665.148s.641-22.665,3.2-29.585a46.972,46.972,0,0,0,2.8-10.043s38.106,6.888,41.261,4.373c0,0,.625,8.81,1.265,9.434s3.2,16.37,2.515,23.93,0,7.544,0,7.544-25.82,3.78-26.445,0-2.515-3.764-2.515-3.764S800.349,666.333,801.6,665.148Z" transform="translate(399.05 116.135)" fill="#3f3d56"/>
      <g id="Group_50" data-name="Group 50" transform="translate(1200.648 746.028)" opacity="0.1">
        <path id="Path_554" data-name="Path 554" d="M822.355,650.747s-15.922-.432-20.727-1.3v1.3c-1.249,1.249,22.04,1.89,22.04,1.89a1.6,1.6,0,0,1,.865.352C823.684,650.747,822.355,650.747,822.355,650.747Z" transform="translate(-801.58 -615.493)"/>
        <path id="Path_555" data-name="Path 555" d="M840.913,637.684c-.641-.625-1.265-9.434-1.265-9.434a2.708,2.708,0,0,1-1.073.384c.224,2.659.657,6.743,1.073,7.16s3.2,16.37,2.515,23.93,0,7.544,0,7.544-20.422,3-25.372.993a7.612,7.612,0,0,0,.192.9c.625,3.78,26.445,0,26.445,0s-.641,0,0-7.544S841.537,638.325,840.913,637.684Z" transform="translate(-792.427 -628.25)"/>
        <path id="Path_556" data-name="Path 556" d="M822.355,650.747s-15.922-.432-20.727-1.3v1.3c-1.249,1.249,22.04,1.89,22.04,1.89a1.6,1.6,0,0,1,.865.352C823.684,650.747,822.355,650.747,822.355,650.747Z" transform="translate(-801.58 -615.493)"/>
        <path id="Path_557" data-name="Path 557" d="M840.913,637.684c-.641-.625-1.265-9.434-1.265-9.434a2.708,2.708,0,0,1-1.073.384c.224,2.659.657,6.743,1.073,7.16s3.2,16.37,2.515,23.93,0,7.544,0,7.544-20.422,3-25.372.993a7.612,7.612,0,0,0,.192.9c.625,3.78,26.445,0,26.445,0s-.641,0,0-7.544S841.537,638.325,840.913,637.684Z" transform="translate(-792.427 -628.25)"/>
      </g>
      <path id="Path_558" data-name="Path 558" d="M823.991,589.612a8.345,8.345,0,0,0,2.4,3.107,5.381,5.381,0,0,0,2.258.977c-1.409.817-2.947,1.426-4.356,2.242a77.474,77.474,0,0,0-6.407,4.805,13.036,13.036,0,0,1-7.352,2.851,9,9,0,0,0,1.025-8.954,8.362,8.362,0,0,1-1.121-3.107c0-1.81,1.6-3.2,3.092-4.165,1.2-.817,2.435-1.6,3.684-2.387.977-.609,2.451-1.89,3.684-1.842s1.378,1.137,1.6,2.258A17.759,17.759,0,0,0,823.991,589.612Z" transform="translate(404.4 90.632)" fill="#be6f72"/>
      <path id="Path_559" data-name="Path 559" d="M823.991,589.612a8.345,8.345,0,0,0,2.4,3.107,5.381,5.381,0,0,0,2.258.977c-1.409.817-2.947,1.426-4.356,2.242a77.474,77.474,0,0,0-6.407,4.805,13.036,13.036,0,0,1-7.352,2.851,9,9,0,0,0,1.025-8.954,8.362,8.362,0,0,1-1.121-3.107c0-1.81,1.6-3.2,3.092-4.165,1.2-.817,2.435-1.6,3.684-2.387.977-.609,2.451-1.89,3.684-1.842s1.378,1.137,1.6,2.258A17.759,17.759,0,0,0,823.991,589.612Z" transform="translate(404.4 90.632)" opacity="0.1"/>
      <circle id="Ellipse_60" data-name="Ellipse 60" cx="14.48" cy="14.48" r="14.48" transform="translate(1228.663 688.429)" fill="#be6f72"/>
      <path id="Path_560" data-name="Path 560" d="M847.663,735.266c0,1.265-2.515,4.4-2.515,4.4a31.171,31.171,0,0,1-15.1-1.89c-1.265-.625.625-4.4.625-4.4l.144-.3a15.284,15.284,0,0,1,2.387-4.1c1.249-1.249,2-6.407,2-6.407,3.908-6.407,10.844,2.771,10.844,2.771s.881,4.805,1.346,7.72A21.947,21.947,0,0,1,847.663,735.266Z" transform="translate(415.934 173.165)" fill="#ff6f61"/>
      <path id="Path_561" data-name="Path 561" d="M847.663,730.483c0,1.265-2.515,4.4-2.515,4.4a31.171,31.171,0,0,1-15.1-1.89c-1.265-.625.625-4.4.625-4.4l.144-.3a30.432,30.432,0,0,0,13.711,2.819l2.867-2.867C847.551,729.313,847.663,730.162,847.663,730.483Z" transform="translate(415.934 177.948)" opacity="0.1"/>
      <circle id="Ellipse_61" data-name="Ellipse 61" cx="14.16" cy="14.16" r="14.16" transform="translate(1200.024 658.524)" fill="#be6f72"/>
      <path id="Path_562" data-name="Path 562" d="M804.623,601.563c-3.107,2.963-3.62,7.657-3.94,11.933l-.48,6.263a31.6,31.6,0,0,0-.112,5.078c0,1.041.256,2.1.352,3.2s.128,2.5.144,3.764v9.258a10.922,10.922,0,0,0,1.025,5.558,3.78,3.78,0,0,0,4.805,1.73,5.478,5.478,0,0,0,1.986-3.075,47.816,47.816,0,0,0,3.2-11.725c.128-1.393.144-2.787.272-4.181s.368-2.851.577-4.261c.9-5.895,1.3-11.853,1.7-17.8.112-1.762,1.7-8.7-.609-9.466-1.121-.368-3.444.785-4.517,1.169a12.715,12.715,0,0,0-4.4,2.547Z" transform="translate(398.139 99.44)" fill="#be6f72"/>
      <path id="Path_563" data-name="Path 563" d="M804.623,601.563c-3.107,2.963-3.62,7.657-3.94,11.933l-.48,6.263a31.6,31.6,0,0,0-.112,5.078c0,1.041.256,2.1.352,3.2s.128,2.5.144,3.764v9.258a10.922,10.922,0,0,0,1.025,5.558,3.78,3.78,0,0,0,4.805,1.73,5.478,5.478,0,0,0,1.986-3.075,47.816,47.816,0,0,0,3.2-11.725c.128-1.393.144-2.787.272-4.181s.368-2.851.577-4.261c.9-5.895,1.3-11.853,1.7-17.8.112-1.762,1.7-8.7-.609-9.466-1.121-.368-3.444.785-4.517,1.169a12.715,12.715,0,0,0-4.4,2.547Z" transform="translate(398.139 99.44)" opacity="0.1"/>
      <path id="Path_564" data-name="Path 564" d="M831.316,588.16s-10.7,8.185-16.995,10.075c0,0-3.732,4.261-4.373,5.286s-1.922,12.334-3.2,14.864-4.4,8.185,0,13.839c0,0,1.25,5.67.625,7.56s-2.915,8.81-.833,9.13,8.393,4.709,14.048,3.46,26.766,4.805,26.766,4.805,3.492-32.436,6.023-38.17l-5.67-1.89s-15.729-9.434-6.295-23.914C841.391,593.206,832.549,591.316,831.316,588.16Z" transform="translate(400.807 93.653)" fill="#ff6f61"/>
      <path id="Path_565" data-name="Path 565" d="M796.991,613.362,810,622.573a.961.961,0,0,0,1.137,0l3.524-2.643a.993.993,0,0,0,0-1.506l-10.011-8.89a.961.961,0,0,0-.977-.192l-6.423,2.307a.977.977,0,0,0-.256,1.714Z" transform="translate(396.065 106.365)" fill="#3f3d56"/>
      <path id="Path_566" data-name="Path 566" d="M800.184,638.462a34.859,34.859,0,0,1-1.361-9.819l-.192-4.437a12.812,12.812,0,0,1,.464-5.126,8.377,8.377,0,0,1,5.4-4.725,18.641,18.641,0,0,1,7.352-.529,1.888,1.888,0,0,1,.945.256,1.761,1.761,0,0,1,.513.865,5.8,5.8,0,0,1,.288,4.629,4.8,4.8,0,0,1-1.474,1.522c-1.746,1.249-3.78,2.082-5.43,3.444a1.97,1.97,0,0,0-.737.929,2.162,2.162,0,0,0,0,1.009,16.143,16.143,0,0,0,.833,2.579,2.548,2.548,0,0,0,.721,1.089c.3.256.7.352,1.025.593.689.561,2.13,1.3,2.05,2.178-.24,3.2-2.162,6.792-2.915,9.963C806.222,649.081,801.113,641.169,800.184,638.462Z" transform="translate(397.245 109.008)" fill="#be6f72"/>
      <g id="Group_51" data-name="Group 51" transform="translate(1217.307 711.718)" opacity="0.1">
        <path id="Path_567" data-name="Path 567" d="M812.332,628.307h-.352a10.783,10.783,0,0,0,4.117,0h.4a14.416,14.416,0,0,0-4.165,0Z" transform="translate(-811.98 -593.997)"/>
        <path id="Path_568" data-name="Path 568" d="M835.153,606.83c-2.258,5.078-5.59,32.58-6.183,38.042,2.211.577,3.668.993,3.668.993s3.46-32.356,5.99-38.09Z" transform="translate(-801.756 -606.83)"/>
      </g>
      <path id="Path_569" data-name="Path 569" d="M838.357,608.1a4.805,4.805,0,0,0,2.066,3.123,27.733,27.733,0,0,1,3.668,3.716,26.32,26.32,0,0,1,3.636,7.288,89.312,89.312,0,0,1,3.027,9.963c-8.009,3.716-17.107,3.54-25.628,5.99a20.456,20.456,0,0,0-9.611,5.686,13.245,13.245,0,0,0-3.54,10.427,1.09,1.09,0,0,0,1.313,1.073,9.61,9.61,0,0,0,5.879-2.018,27.977,27.977,0,0,0,4.5-4.421,7.241,7.241,0,0,1,3.2-2.371c4.629-1.409,9.61-1.329,14.416-1.409a181.662,181.662,0,0,0,21.479-1.7,1.73,1.73,0,0,0,1.922-1.922c.7-9.45-2.8-18.677-6.407-27.438q-2.162-5.27-4.453-10.492a31.075,31.075,0,0,0-5.446-9.322,9.605,9.605,0,0,0-3.2-2.37,13.546,13.546,0,0,0-4.292-.8,30.438,30.438,0,0,0-7.032-.128,14.988,14.988,0,0,0-.673,3.636c.128,4.325,2.018,8.377,3.876,12.286C837.3,607.489,837.988,607.521,838.357,608.1Z" transform="translate(405.283 95.26)" fill="#be6f72"/>
      <path id="Path_570" data-name="Path 570" d="M813.013,606.67a11.74,11.74,0,0,0-1.6,6.119,8.243,8.243,0,0,0,.4,2.5,8.1,8.1,0,0,0,5.109,4.805" transform="translate(404.983 104.792)" fill="none" stroke="#000" stroke-miterlimit="10" stroke-width="1" opacity="0.1"/>
      <path id="Path_571" data-name="Path 571" d="M828.392,575.716a7.348,7.348,0,0,0-2.323.368c-2.1-3.2-7.032-5.414-12.814-5.414-7.656,0-13.855,3.956-13.855,8.826s6.2,8.81,13.855,8.81a19.49,19.49,0,0,0,8.313-1.762,7.544,7.544,0,1,0,6.792-10.828Z" transform="translate(397.757 83.129)" fill="#3f3d56"/>
      <path id="Path_572" data-name="Path 572" d="M829.029,586.655a7.529,7.529,0,0,1-6.792-4.278,19.5,19.5,0,0,1-8.312,1.763c-7.641,0-13.839-3.94-13.839-8.81a5.28,5.28,0,0,1,0-.881,5.973,5.973,0,0,0-.7,2.771c0,4.805,6.2,8.81,13.855,8.81a19.494,19.494,0,0,0,8.313-1.762,7.544,7.544,0,0,0,14.208-1.874,7.512,7.512,0,0,1-6.727,4.261Z" transform="translate(397.744 85.403)" opacity="0.1"/>
      <path id="Path_573" data-name="Path 573" d="M801.325,580.968a21.383,21.383,0,0,1,24.026-11.453,22.649,22.649,0,0,1,34.47,17.4v-1.89a22.649,22.649,0,0,0-34.55-19.221,21.384,21.384,0,0,0-24.026,11.453,26.077,26.077,0,0,0-8.153,19.477v1.89A25.628,25.628,0,0,1,801.325,580.968Z" transform="translate(393.957 78.164)" opacity="0.1"/>
      <path id="Path_574" data-name="Path 574" d="M895.143,641.07c4.181-7.737-.56-17.235-6.023-24.139s-12.093-14.08-11.949-22.889c.192-12.638,13.615-20.1,24.347-26.813a118.367,118.367,0,0,0,21.848-17.62,31.917,31.917,0,0,0,6.727-8.986c2.21-4.95,2.146-10.572,2.018-16.018q-.7-27.07-2.675-54.076" transform="translate(444.555 22.868)" fill="none" stroke="#3f3d56" stroke-miterlimit="10" stroke-width="4" opacity="0.3"/>
      <path id="Path_575" data-name="Path 575" d="M937.328,476.991a19.686,19.686,0,0,0-9.835-16.146l-4.421,8.73L923.2,459a19.347,19.347,0,0,0-6.487-.785,19.718,19.718,0,1,0,20.615,18.773Z" transform="translate(457.038 15.446)" fill="#fe9d2b" opacity="0.3"/>
      <path id="Path_576" data-name="Path 576" d="M914.566,564.055a19.718,19.718,0,1,1,.945-15.889l-12.318,10.027,13.551-3.2a19.6,19.6,0,0,1-2.179,9.066Z" transform="translate(444.641 61.857)" fill="#fe9d2b" opacity="0.3"/>
      <path id="Path_577" data-name="Path 577" d="M902.254,544.155a19.718,19.718,0,0,1-6.263-38.682l-.1,8.121,4.469-8.826h0a19.723,19.723,0,1,1,1.842,39.4Z" transform="translate(447.214 43.459)" fill="#fe9d2b" opacity="0.3"/>
      <path id="Path_578" data-name="Path 578" d="M932.155,524.276a19.718,19.718,0,1,1,8.73-36.841l-3.492,9.611,7.176-6.888a19.605,19.605,0,0,1,6.407,13.615,19.03,19.03,0,0,1-.5,5.43A19.718,19.718,0,0,1,932.155,524.276Z" transform="translate(465.174 31.495)" fill="#fe9d2b" opacity="0.3"/>
      <path id="Path_579" data-name="Path 579" d="M934.692,478.187c-4.549.513-8.986,1.922-13.551,2.21s-9.611-.817-12.478-4.373a61.194,61.194,0,0,1-3.636-6.407,14.176,14.176,0,0,0-4.965-4.677,19.718,19.718,0,1,0,36.84,13.086C936.166,478.059,935.429,478.107,934.692,478.187Z" transform="translate(457.03 19.504)" opacity="0.1"/>
      <path id="Path_580" data-name="Path 580" d="M932.124,520.037a19.734,19.734,0,0,1-18.757-28.127,14.6,14.6,0,0,1,3.972,3.956,63.164,63.164,0,0,0,3.908,6.519c3.059,3.62,8.313,4.805,13.07,4.581s9.354-1.6,14.1-2c.657,0,1.329-.112,1.986-.128A19.717,19.717,0,0,1,932.124,520.037Z" transform="translate(465.204 35.734)" opacity="0.1"/>
      <path id="Path_581" data-name="Path 581" d="M902.254,539.791A19.7,19.7,0,0,1,883.337,512a16.255,16.255,0,0,1,4.165,4c1.6,2.162,2.483,4.661,4.277,6.647,3.332,3.716,8.922,5.013,13.967,4.9s9.611-1.313,14.416-1.682a19.718,19.718,0,0,1-17.908,13.919Z" transform="translate(447.215 47.823)" opacity="0.1"/>
      <path id="Path_582" data-name="Path 582" d="M914.524,559.278a19.734,19.734,0,0,1-35.96-16.018,19.313,19.313,0,0,1,4.325,3.86c1.89,2.29,3.124,4.805,5.286,7.016,4.036,3.956,10.54,5.574,16.338,5.734a86.432,86.432,0,0,0,10.011-.593Z" transform="translate(444.683 66.634)" opacity="0.1"/>
      <path id="Path_583" data-name="Path 583" d="M1054.143,793.07c4.18-7.737-.561-17.235-6.023-24.139s-12.093-14.079-11.949-22.889c.192-12.638,13.615-20.1,24.347-26.814a118.36,118.36,0,0,0,21.848-17.619,31.926,31.926,0,0,0,6.727-8.986c2.21-4.949,2.146-10.572,2.018-16.018q-.689-27.07-2.675-54.076" transform="translate(540.235 114.336)" fill="none" stroke="#3f3d56" stroke-miterlimit="10" stroke-width="4" opacity="0.3"/>
      <path id="Path_584" data-name="Path 584" d="M1096.3,628.99a19.685,19.685,0,0,0-9.835-16.146l-4.421,8.73L1082.17,611a19.342,19.342,0,0,0-6.407-.785,19.718,19.718,0,1,0,20.615,18.773Z" transform="translate(552.748 106.915)" fill="#fe9d2b" opacity="0.3"/>
      <path id="Path_585" data-name="Path 585" d="M1073.566,716.055a19.717,19.717,0,1,1,.945-15.889l-12.318,10.027,13.551-3.2a19.6,19.6,0,0,1-2.178,9.066Z" transform="translate(540.321 153.325)" fill="#fe9d2b" opacity="0.3"/>
      <path id="Path_586" data-name="Path 586" d="M1061.254,696.155a19.718,19.718,0,0,1-6.263-38.682l-.1,8.121,4.469-8.826h0a19.723,19.723,0,1,1,1.842,39.4Z" transform="translate(542.894 134.926)" fill="#fe9d2b" opacity="0.3"/>
      <path id="Path_587" data-name="Path 587" d="M1091.155,676.276a19.718,19.718,0,1,1,8.73-36.841l-3.492,9.611,7.176-6.888a19.606,19.606,0,0,1,6.407,13.615,19.033,19.033,0,0,1-.5,5.43A19.717,19.717,0,0,1,1091.155,676.276Z" transform="translate(560.854 122.963)" fill="#fe9d2b" opacity="0.3"/>
      <path id="Path_588" data-name="Path 588" d="M1093.692,630.187c-4.549.513-8.986,1.922-13.551,2.21s-9.611-.817-12.478-4.373a61.179,61.179,0,0,1-3.636-6.407,14.176,14.176,0,0,0-4.965-4.677,19.718,19.718,0,1,0,36.84,13.087C1095.166,630.059,1094.429,630.106,1093.692,630.187Z" transform="translate(552.71 110.972)" opacity="0.1"/>
      <path id="Path_589" data-name="Path 589" d="M1091.124,672.037a19.734,19.734,0,0,1-18.757-28.127,14.593,14.593,0,0,1,3.972,3.956,63.209,63.209,0,0,0,3.909,6.519c3.059,3.62,8.313,4.805,13.07,4.581s9.354-1.6,14.1-2c.657,0,1.329-.112,1.986-.128A19.718,19.718,0,0,1,1091.124,672.037Z" transform="translate(560.885 127.202)" opacity="0.1"/>
      <path id="Path_590" data-name="Path 590" d="M1061.253,691.791A19.7,19.7,0,0,1,1042.337,664a16.258,16.258,0,0,1,4.164,4c1.6,2.162,2.483,4.661,4.277,6.647,3.332,3.716,8.922,5.014,13.967,4.9s9.611-1.313,14.416-1.682A19.718,19.718,0,0,1,1061.253,691.791Z" transform="translate(542.895 139.291)" opacity="0.1"/>
      <path id="Path_591" data-name="Path 591" d="M1073.524,711.278a19.734,19.734,0,0,1-35.96-16.018,19.313,19.313,0,0,1,4.325,3.86c1.89,2.29,3.2,4.805,5.286,7.016,4.036,3.956,10.54,5.574,16.338,5.734a86.389,86.389,0,0,0,10.011-.592Z" transform="translate(540.363 158.102)" opacity="0.1"/>
      <path id="Path_592" data-name="Path 592" d="M610.682,604.808a15.713,15.713,0,0,0-6.263-12.686,18.42,18.42,0,0,0-15.393-18.068,18.388,18.388,0,0,0-12.253-13.7h0a15.657,15.657,0,0,0-2.275-.529h-2.707a18.036,18.036,0,0,0-17.427,15.409c-5.622-1.3-10.764.384-11.709,3.94a4.806,4.806,0,0,0,.16,2.851c.961,2.755,4.085,5.4,8.265,6.7l.545.16.817.208h.176a14.161,14.161,0,0,0-1.345,6.071,14,14,0,0,0,7.544,12.494l-.368.224a5,5,0,0,0-1.218,1.7,25.413,25.413,0,0,0-2.355,5.67c-.4,1.7-.465,3.46-.961,5.142-.929,3.091-3.3,5.7-3.572,8.922-.128,1.442.112,3.2-.913,4.133a4.981,4.981,0,0,1-.817.577,6.617,6.617,0,0,0-1.778,1.874,6.217,6.217,0,0,1-1.249,1.794c-.929.689-2.451.625-2.9,1.7s.721,2.339.449,3.508-1.266,1.394-1.986,2.05a7.128,7.128,0,0,0-1.714,3.2,10.507,10.507,0,0,1-8.649-2.21,16.172,16.172,0,0,1,.9,3.2,14.03,14.03,0,0,0-4.661-2.339,14.719,14.719,0,0,1-4.965-3.684l2.659-.368L512.974,624.83l-3.476-.721,3.107,5.975a1.905,1.905,0,0,0-1.057,1.265,5.43,5.43,0,0,0-.112,2.034,36.422,36.422,0,0,0,.8,4.805l.9,4.2c.08.384.176.785.288,1.169a11.035,11.035,0,0,0-3.476.385,30.245,30.245,0,0,0-7.224-1.714,4,4,0,0,0-1.6,0,4.149,4.149,0,0,0-1.522,1.233,49.271,49.271,0,0,0-5.366,7.56c-6.407,10.988-14.752,20.583-22.649,30.514-5.446,2.21-10.94,4.309-16.434,6.407l-11.821,4.517a17.924,17.924,0,0,1-7.336,1.6c-1.121,0-2.515-.24-3.2.721a6.749,6.749,0,0,0-.721,1.6l-1.217.128h0a14,14,0,0,0-2.835-5.222,1.794,1.794,0,0,0-1.329,1.025c-.288.529-.464,1.105-.8,1.6-.625.929-1.73,1.377-2.515,2.162s-1.281,2-2.146,2.8a8.489,8.489,0,0,1-4.02,1.6,25.37,25.37,0,0,0-6.295,2.387,10.136,10.136,0,0,1-2.323,1.073,8.726,8.726,0,0,1-2.739.1l-6.247-.464a4.935,4.935,0,0,0-1.682.08,3.2,3.2,0,0,0-1.986,3.2,5.046,5.046,0,0,0,1.986,3.444,12.718,12.718,0,0,0,3.556,1.842,104.361,104.361,0,0,0,16.658,4.934v1.265a28.432,28.432,0,0,0,12.814,3.043,1.988,1.988,0,0,0,.961-.176,2.114,2.114,0,0,0,.8-1.249,51.531,51.531,0,0,0,2.5-12.27h0a6.407,6.407,0,0,0,2.259-.576c2.146-.593,4.293.881,6.519,1.121,2.739.3,5.27-1.3,7.865-2.275l1.121-.368a12.3,12.3,0,0,1-2.595,2.483c-1.073.769-2.275,1.346-3.316,2.146a22.841,22.841,0,0,1-2.819,2.178,17.7,17.7,0,0,1-2.162.833,14.262,14.262,0,0,0-3.091,1.6,6.262,6.262,0,0,0-2.1,2.05,3.076,3.076,0,0,0-.176,2.883,3.044,3.044,0,0,0,2.066,1.442,8.478,8.478,0,0,0,2.547,0c3.4-.256,6.776-.561,10.155-.865a27.072,27.072,0,0,0,4.245-.609c.737-.176,1.474-.416,2.21-.625a19.728,19.728,0,0,1,3.86-.577,3.2,3.2,0,0,1,1.121.112c.785.256,1.345,1.057,2.146,1.217a3.2,3.2,0,0,0,1.6-.208,35.728,35.728,0,0,1,7.512-.8c1.105,0,2.4-.272,2.915-1.3s-.417-2.675-.833-4.036a12.347,12.347,0,0,1-.352-2.659,16.645,16.645,0,0,0-1.858-6.311,16.475,16.475,0,0,1-1.394-2.883,72.842,72.842,0,0,0,13.823-7.016,24.716,24.716,0,0,1,7.881-3.8,21.433,21.433,0,0,1,9.9,1.153,225.2,225.2,0,0,1,22.7,7.913c3.54,1.458,7.064,3,10.716,4.1a16.707,16.707,0,0,0,3.812,3.7,17.621,17.621,0,0,0,8.249,2.258,108.11,108.11,0,0,0,11.613.432,19.589,19.589,0,0,0,8.65-1.6,8.891,8.891,0,0,0,1.81-1.2,7.176,7.176,0,0,0,5.7-2.1,13.824,13.824,0,0,0,4.341-6.856c.945-3.652.224-8.009,2.467-10.924.593-.8,1.378-1.442,1.97-2.242a6.313,6.313,0,0,0,1.025-3.7.741.741,0,0,1,.1-.144,13.572,13.572,0,0,0,.961-3.684,21.057,21.057,0,0,1,1.041-2.915,89.98,89.98,0,0,0,2.979-8.633,50.466,50.466,0,0,0,1.377-5.927c.24-1.6.384-3.2.513-4.805a29.835,29.835,0,0,1,1.458-7.416,60.359,60.359,0,0,0,3.364-17.747v-.352a11.9,11.9,0,0,0,10.539-12.109,12.636,12.636,0,0,0-1.1-5.174,16.016,16.016,0,0,0,2.147-8.073ZM553.37,674.436c.176.625.384,1.234.593,1.842-.945-.913-1.858-1.858-2.8-2.787.368.128.753.24,1.105.384a5.958,5.958,0,0,1,1.057.56Zm-4.533-3.075c-5.542-4.805-11.949-8.537-17.619-13.2,3.091,1.522,6.1,3.3,9.082,5q5.3,3.027,10.748,5.814a8.8,8.8,0,0,1-2.259,2.387Zm2.354-12.109.272-.272v1.906l-1.49-.513a13.267,13.267,0,0,0,1.169-1.121Zm-48.742,12.974a45.858,45.858,0,0,0,5.894-8.409c2.195,3.828,5.766,6.6,8.794,9.819C512.253,673.011,507.352,672.482,502.451,672.226Z" transform="translate(154.961 76.605)" fill="url(#linear-gradient-2)"/>
      <path id="Path_593" data-name="Path 593" d="M415.35,438.25l3.492.7,11.9,17.6-5.238.7Z" transform="translate(249.942 263.938)" fill="#2f2e41"/>
      <path id="Path_594" data-name="Path 594" d="M414.49,645.526a68.535,68.535,0,0,0,3.492,9.082,86.478,86.478,0,0,0,11.613-3.316,36.594,36.594,0,0,0-2.419-3.2,11.948,11.948,0,0,0-3.284-2.515,9.035,9.035,0,0,0-3.988,0C418.11,645.526,416.3,645.558,414.49,645.526Z" transform="translate(166.133 128.069)" fill="#fbbebe"/>
      <path id="Path_595" data-name="Path 595" d="M435.15,652.115a7.24,7.24,0,0,1-3.972-4.517,14.545,14.545,0,0,0-3.027-5.4,1.73,1.73,0,0,0-1.345,1.009c-.288.512-.464,1.089-.785,1.6-.641.913-1.762,1.361-2.563,2.13s-1.281,1.97-2.146,2.755a8.52,8.52,0,0,1-4.052,1.6,26.275,26.275,0,0,0-6.407,2.354,11.057,11.057,0,0,1-2.355,1.057,9.321,9.321,0,0,1-2.755,0l-6.311-.449a4.939,4.939,0,0,0-1.6,0,3.059,3.059,0,0,0-2,3.2,4.806,4.806,0,0,0,2,3.4,13.3,13.3,0,0,0,3.588,1.826,105.564,105.564,0,0,0,16.915,4.805v1.25a29.28,29.28,0,0,0,12.894,3,2.178,2.178,0,0,0,.961-.16,2.113,2.113,0,0,0,.8-1.249,49.976,49.976,0,0,0,2.643-13.711,10.921,10.921,0,0,0-.272-3.54c-.352-1.137.833-.657-.256-1.105" transform="translate(154.891 126.173)" fill="#2f2e41"/>
      <path id="Path_596" data-name="Path 596" d="M542.6,635.416c-18.709,1.121-37.193-4.357-55.933-4.933a27.309,27.309,0,0,0-6.952.433,35.014,35.014,0,0,0-6.888,2.675c-10.043,4.677-20.438,8.554-30.818,12.414l-11.933,4.437a18.067,18.067,0,0,1-7.384,1.6c-1.137,0-2.531-.24-3.2.7-1.938,2.883-1.025,7.1.256,10.331.416,1.041,1.121,2.178,2.242,2.291a6.517,6.517,0,0,0,2.275-.577c2.162-.577,4.325.881,6.567,1.121,2.755.288,5.318-1.281,7.929-2.242,4.325-1.6,9.034-1.6,13.583-2.307,7.608-1.265,14.672-4.805,21.271-8.826a24.825,24.825,0,0,1,7.929-3.748,21.944,21.944,0,0,1,9.979,1.137,229.044,229.044,0,0,1,22.889,7.785,106.693,106.693,0,0,0,11.949,4.373,43.246,43.246,0,0,0,26.8-1.6c3-1.185,6.247-3.2,6.407-6.5.112-1.842-1.329-3.46-2.274-5.046-.609-1.009-1.233-2.018-1.89-3C552.2,641.294,548.288,635.079,542.6,635.416Z" transform="translate(168.469 119.086)" fill="#2f2e41"/>
      <path id="Path_597" data-name="Path 597" d="M542.6,635.416c-18.709,1.121-37.193-4.357-55.933-4.933a27.309,27.309,0,0,0-6.952.433,35.014,35.014,0,0,0-6.888,2.675c-10.043,4.677-20.438,8.554-30.818,12.414l-11.933,4.437a18.067,18.067,0,0,1-7.384,1.6c-1.137,0-2.531-.24-3.2.7-1.938,2.883-1.025,7.1.256,10.331.416,1.041,1.121,2.178,2.242,2.291a6.517,6.517,0,0,0,2.275-.577c2.162-.577,4.325.881,6.567,1.121,2.755.288,5.318-1.281,7.929-2.242,4.325-1.6,9.034-1.6,13.583-2.307,7.608-1.265,14.672-4.805,21.271-8.826a24.825,24.825,0,0,1,7.929-3.748,21.944,21.944,0,0,1,9.979,1.137,229.044,229.044,0,0,1,22.889,7.785,106.693,106.693,0,0,0,11.949,4.373,43.246,43.246,0,0,0,26.8-1.6c3-1.185,6.247-3.2,6.407-6.5.112-1.842-1.329-3.46-2.274-5.046-.609-1.009-1.233-2.018-1.89-3C552.2,641.294,548.288,635.079,542.6,635.416Z" transform="translate(168.469 119.086)" opacity="0.1"/>
      <path id="Path_598" data-name="Path 598" d="M436.92,648.926q4.389,1.49,8.858,2.755c1.6-2.739,4.805-4.645,5.494-7.785a.737.737,0,0,0,0-.417.769.769,0,0,0-.336-.3,16.784,16.784,0,0,0-6.952-2.034c-1.922-.112-2.8,1.89-3.668,3.3C439.979,645.066,437.7,649.231,436.92,648.926Z" transform="translate(179.63 125.533)" fill="#fbbebe"/>
      <path id="Path_599" data-name="Path 599" d="M450.349,646.449a6.406,6.406,0,0,1-4.309-2.835c-.4-.721-.849-1.7-1.682-1.6s-1.105.961-1.281,1.714a48.052,48.052,0,0,1-2.419,8.313,15.6,15.6,0,0,1-5.174,6.807c-1.089.753-2.291,1.313-3.364,2.114a23.1,23.1,0,0,1-2.835,2.146,16.849,16.849,0,0,1-2.178.8,15.091,15.091,0,0,0-3.107,1.6,6.166,6.166,0,0,0-2.13,2.034,2.931,2.931,0,0,0-.16,2.835,3.027,3.027,0,0,0,2.066,1.41,8.72,8.72,0,0,0,2.579,0c3.412-.24,6.824-.545,10.235-.849a29.561,29.561,0,0,0,4.277-.593l2.227-.609a17.715,17.715,0,0,1,3.892-.576,3.026,3.026,0,0,1,1.137.112c.785.256,1.345,1.041,2.162,1.2a3.621,3.621,0,0,0,1.6-.208,35.367,35.367,0,0,1,7.576-.785c1.121,0,2.435-.288,2.947-1.281.641-1.249-.416-2.643-.849-3.988a12.81,12.81,0,0,1-.352-2.611,15.92,15.92,0,0,0-1.874-6.215c-.865-1.6-2.05-3.364-1.442-5.062a4.806,4.806,0,0,0,.577-1.746C458.229,645.825,451.919,646.8,450.349,646.449Z" transform="translate(170.302 126.056)" fill="#2f2e41"/>
      <path id="Path_600" data-name="Path 600" d="M484.342,620.98a14.608,14.608,0,0,1-7.464-7.4c-.3-.7-.561-1.458-.865-2.162a16.435,16.435,0,0,0-4.453-6.2,2.194,2.194,0,0,0-1.6-.689,1.746,1.746,0,0,0-1.2,1.3,4.95,4.95,0,0,0-.128,2,35.668,35.668,0,0,0,.8,4.677l.913,4.133a9.066,9.066,0,0,0,.561,1.842,6.406,6.406,0,0,0,1.522,1.81c.833.769,1.682,1.506,2.531,2.242a8.69,8.69,0,0,0,1.6,1.105,9.3,9.3,0,0,0,2.835.833,24.127,24.127,0,0,1,10.636,4.1V625.5a4.068,4.068,0,0,0-.8-2.227,14.2,14.2,0,0,0-4.886-2.291Z" transform="translate(198.682 103.504)" fill="#fbbebe"/>
      <path id="Path_601" data-name="Path 601" d="M484.342,620.98a14.608,14.608,0,0,1-7.464-7.4c-.3-.7-.561-1.458-.865-2.162a16.435,16.435,0,0,0-4.453-6.2,2.194,2.194,0,0,0-1.6-.689,1.746,1.746,0,0,0-1.2,1.3,4.95,4.95,0,0,0-.128,2,35.668,35.668,0,0,0,.8,4.677l.913,4.133a9.066,9.066,0,0,0,.561,1.842,6.406,6.406,0,0,0,1.522,1.81c.833.769,1.682,1.506,2.531,2.242a8.69,8.69,0,0,0,1.6,1.105,9.3,9.3,0,0,0,2.835.833,24.127,24.127,0,0,1,10.636,4.1V625.5a4.068,4.068,0,0,0-.8-2.227,14.2,14.2,0,0,0-4.886-2.291Z" transform="translate(198.682 103.504)" opacity="0.1"/>
      <ellipse id="Ellipse_62" data-name="Ellipse 62" cx="4.549" cy="4.581" rx="4.549" ry="4.581" transform="translate(716.564 683.704)" fill="#2f2e41"/>
      <path id="Path_602" data-name="Path 602" d="M512.265,590.531a4.918,4.918,0,0,0-3.588.513,4.983,4.983,0,0,0-1.233,1.682,24.434,24.434,0,0,0-2.371,5.574c-.4,1.6-.465,3.412-.977,5.062-.929,3.043-3.316,5.622-3.588,8.794-.128,1.426.112,3.091-.929,4.053a5.887,5.887,0,0,1-.817.593,6.151,6.151,0,0,0-1.794,1.842,6.037,6.037,0,0,1-1.266,1.746c-.929.689-2.467.625-2.915,1.6s.721,2.307.448,3.46-1.281,1.378-2,2.018a7,7,0,0,0-1.73,3.2,10.685,10.685,0,0,1-8.713-2.162,27.741,27.741,0,0,1,1.361,9.963,4.069,4.069,0,0,1-.8,3.075,55.482,55.482,0,0,1,10.684,1.858,7.367,7.367,0,0,0,4.661,0,7.786,7.786,0,0,0,2.146-1.7c1.922-1.954,3.94-4.085,4.4-6.792a39.913,39.913,0,0,0,.08-4.6,25.916,25.916,0,0,1,1.169-5.59,66.524,66.524,0,0,0,2.034-11.5c.208-2.4,2.29-4.325,3.38-6.407,2.05-4.052,4.165-8.265,4.309-12.814C514.283,592.533,513.77,590.691,512.265,590.531Z" transform="translate(206.029 94.998)" fill="#2f2e41"/>
      <path id="Path_603" data-name="Path 603" d="M512.265,590.531a4.918,4.918,0,0,0-3.588.513,4.983,4.983,0,0,0-1.233,1.682,24.434,24.434,0,0,0-2.371,5.574c-.4,1.6-.465,3.412-.977,5.062-.929,3.043-3.316,5.622-3.588,8.794-.128,1.426.112,3.091-.929,4.053a5.887,5.887,0,0,1-.817.593,6.151,6.151,0,0,0-1.794,1.842,6.037,6.037,0,0,1-1.266,1.746c-.929.689-2.467.625-2.915,1.6s.721,2.307.448,3.46-1.281,1.378-2,2.018a7,7,0,0,0-1.73,3.2,10.685,10.685,0,0,1-8.713-2.162,27.741,27.741,0,0,1,1.361,9.963,4.069,4.069,0,0,1-.8,3.075,55.482,55.482,0,0,1,10.684,1.858,7.367,7.367,0,0,0,4.661,0,7.786,7.786,0,0,0,2.146-1.7c1.922-1.954,3.94-4.085,4.4-6.792a39.913,39.913,0,0,0,.08-4.6,25.916,25.916,0,0,1,1.169-5.59,66.524,66.524,0,0,0,2.034-11.5c.208-2.4,2.29-4.325,3.38-6.407,2.05-4.052,4.165-8.265,4.309-12.814C514.283,592.533,513.77,590.691,512.265,590.531Z" transform="translate(206.029 94.998)" opacity="0.1"/>
      <path id="Path_604" data-name="Path 604" d="M532.878,650.477c-3.892-1.858-6.743-5.3-9.9-8.265-6.007-5.654-13.359-9.611-19.686-14.945-4.2-3.508-8.009-7.592-12.542-10.54a31.346,31.346,0,0,0-13.439-4.693,3.573,3.573,0,0,0-1.6,0,3.685,3.685,0,0,0-1.522,1.2,48.4,48.4,0,0,0-5.43,7.448c-8.009,13.615-19.4,25.052-28.832,37.705a2.4,2.4,0,0,0-.464.9,2.227,2.227,0,0,0,.352,1.394l1.922,3.748c1.073,2.114,2.8,4.565,5.11,4.148a5.589,5.589,0,0,0,2.675-1.714l8.617-8.249,9.034-8.634c5.286-5.046,10.668-10.219,14.128-16.69,2.691,4.677,7.48,7.737,10.748,12.013,1.249,1.6,2.275,3.412,3.4,5.142,1.778,2.755,3.812,5.35,5.83,8.009l10.363,13.215a19.83,19.83,0,0,0,4.805,4.805,18.339,18.339,0,0,0,8.313,2.226,109.835,109.835,0,0,0,11.709.417,20.186,20.186,0,0,0,8.73-1.6,7.912,7.912,0,0,0,4.725-7.032,10.315,10.315,0,0,0-1.49-4.373C544.682,659.43,539.845,653.792,532.878,650.477Z" transform="translate(181.156 107.965)" fill="#2f2e41"/>
      <ellipse id="Ellipse_63" data-name="Ellipse 63" cx="3.508" cy="3.524" rx="3.508" ry="3.524" transform="translate(720.408 687.932)" fill="#e8e8f0"/>
      <path id="Path_605" data-name="Path 605" d="M505.275,596.664a6.744,6.744,0,0,1,.384,5.061,20.536,20.536,0,0,1-2.258,4.661,22.187,22.187,0,0,1-2.931,4.164c5.414.256,10.652-1.858,15.409-4.421,3.844-2.066,7.672-4.613,9.723-8.473a4.484,4.484,0,0,1-3.588-.673,12.815,12.815,0,0,1-2.739-2.547l-2.707-3.043a12.194,12.194,0,0,1-1.6-2.194,6.056,6.056,0,0,1-.721-3.54,20.614,20.614,0,0,1-3.588,2.979c-1.938,1.265-4.068,2.178-6.023,3.428-.673.449-2.21,1.153-1.81,2.05S504.731,595.7,505.275,596.664Z" transform="translate(217.872 92.149)" fill="#fbbebe"/>
      <path id="Path_606" data-name="Path 606" d="M505.275,596.664a6.744,6.744,0,0,1,.384,5.061,20.536,20.536,0,0,1-2.258,4.661,22.187,22.187,0,0,1-2.931,4.164c5.414.256,10.652-1.858,15.409-4.421,3.844-2.066,7.672-4.613,9.723-8.473a4.484,4.484,0,0,1-3.588-.673,12.815,12.815,0,0,1-2.739-2.547l-2.707-3.043a12.194,12.194,0,0,1-1.6-2.194,6.056,6.056,0,0,1-.721-3.54,20.614,20.614,0,0,1-3.588,2.979c-1.938,1.265-4.068,2.178-6.023,3.428-.673.449-2.21,1.153-1.81,2.05S504.731,595.7,505.275,596.664Z" transform="translate(217.872 92.149)" opacity="0.1"/>
      <path id="Path_607" data-name="Path 607" d="M511.52,593.073a4.565,4.565,0,0,0,0,5.286c.16.192.737,1.394.977,1.41a.881.881,0,0,0,.609-.32,40.21,40.21,0,0,0,3.428-4.085,7.624,7.624,0,0,1,4.357-2.851,9.418,9.418,0,0,1,6.007,1.874,5.7,5.7,0,0,1,2.066,1.6,5.591,5.591,0,0,1,.673,2.291,110.355,110.355,0,0,1,.609,14.56,57.375,57.375,0,0,1-.689,10.492c-.352,1.778-.865,3.524-1.105,5.334a34.034,34.034,0,0,0-.224,4.805v6.7a17.622,17.622,0,0,0,.256,3.668c.32,1.458,1.009,2.819,1.474,4.245a27.76,27.76,0,0,1,.977,5.014l.913,6.92c.288,2.178.513,4.565-.817,6.407-.593.785-1.378,1.426-1.986,2.21-2.258,2.947-1.6,7.16-2.483,10.764a13.423,13.423,0,0,1-4.389,6.727,7.256,7.256,0,0,1-5.782,2.066c-2.819-.529-4.5-3.46-5.27-6.231s-1.041-5.782-2.707-8.121a21.539,21.539,0,0,0-5.35-4.469,9.241,9.241,0,0,1-4.181-5.43c-.176-1.009,0-2.05-.176-3.075a7.256,7.256,0,0,0-4.469-5.878c-1.442-.561-3.2-.769-4.037-2.082a9.723,9.723,0,0,0,4.213-5.654,29.043,29.043,0,0,0,1.025-7.144l.481-8.009c.224-3.6.32-7.16,1.906-10.4.7-1.442,1.6-2.8,2.323-4.229a45.912,45.912,0,0,0,2.483-6.2c1.153-3.3,2.306-6.6,3.332-9.931a18.709,18.709,0,0,1,1.826-4.629C508.652,595.2,509.9,593.394,511.52,593.073Z" transform="translate(211.692 96.268)" fill="#e8e8f0"/>
      <path id="Path_608" data-name="Path 608" d="M492.446,645.9h2.13l.448-3.2a6.672,6.672,0,0,1,.448-1.874,11.2,11.2,0,0,1,1.233-1.794c2.082-2.963,1.938-6.888,2.451-10.492a53.382,53.382,0,0,1,4.677-13.711l4.132-9.21a12.719,12.719,0,0,0,.9-2.355,14.123,14.123,0,0,0,.256-2.723c0-1.426.448-6.615.5-8.009,0-.529-1.169-.24-1.41-.7-.513-1.025-1.217,1.746-2.194,2.354a5.382,5.382,0,0,0-1.906,2.787c-.9,2.307-1.442,4.805-2.274,7.1a14.5,14.5,0,0,1-3.86,6.279c-.849.737-1.826,1.33-2.627,2.13-2.563,2.531-2.819,6.551-2.9,10.171C492.382,624.853,491.965,645.9,492.446,645.9Z" transform="translate(212.906 95.723)" fill="#2f2e41"/>
      <path id="Path_609" data-name="Path 609" d="M518.8,590.552a7.271,7.271,0,0,0-3.8,5.206,26.342,26.342,0,0,1-1.922,6.407c-2.595,4.517-9.21,5.831-11.052,10.716a19.7,19.7,0,0,0-.737,5.045c-.32,3.508-1.474,6.888-1.826,10.38a46.242,46.242,0,0,0,.192,8.153l2.323,27.582a36.84,36.84,0,0,1-.689,12.141,11.693,11.693,0,0,0,6.952-1.153c2.162-.993,4.148-2.355,6.247-3.508,3.588-1.986,7.56-3.38,10.716-6.023a6.55,6.55,0,0,0,1.442-1.6,13.852,13.852,0,0,0,.961-3.62,19.545,19.545,0,0,1,1.041-2.851,83.977,83.977,0,0,0,3.011-8.521,48.941,48.941,0,0,0,1.378-5.83c.256-1.6.4-3.2.529-4.805a28.194,28.194,0,0,1,1.474-7.288,58.707,58.707,0,0,0,3.38-17.491,9.149,9.149,0,0,0-.176-2.563,13.718,13.718,0,0,0-1.41-2.931c-.961-1.81-1.6-3.8-2.435-5.638a27.726,27.726,0,0,0-9.466-9.947C523.076,591.144,520.9,589.8,518.8,590.552Z" transform="translate(217.21 94.962)" fill="#2f2e41"/>
      <path id="Path_610" data-name="Path 610" d="M490.712,622.064a16.7,16.7,0,0,1-4.4-3.348c-.577-.673-1.057-1.426-1.6-2.1a10.909,10.909,0,0,0-5.542-3.2,27.075,27.075,0,0,0-6.407-.625,11.625,11.625,0,0,0-4.277.513,4.357,4.357,0,0,0-2.835,3.043,5.046,5.046,0,0,0,2.162,4.485,10.188,10.188,0,0,0,4.309,2.082,34.458,34.458,0,0,0,3.892.464c7.656.8,14.5,4.965,21.207,8.762q8.842,5.029,18.036,9.354a37.493,37.493,0,0,0,.3-5.526c0-1.378-.112-3.492-1.41-4.309a28.3,28.3,0,0,0-5.734-1.714,90.261,90.261,0,0,1-11.549-4.677A57.453,57.453,0,0,1,490.712,622.064Z" transform="translate(196.909 108.459)" fill="#fbbebe"/>
      <ellipse id="Ellipse_64" data-name="Ellipse 64" cx="13.647" cy="13.727" rx="13.647" ry="13.727" transform="translate(707.466 659.789)" fill="#fbbebe"/>
      <path id="Path_611" data-name="Path 611" d="M526.571,600.834a21.875,21.875,0,0,0-2.643,4.949c-1.6,3.46-4.325,6.407-5.654,10.075s-1.346,8.377-4.084,11.373a3.988,3.988,0,0,0-1.2,1.73,8.276,8.276,0,0,1-.128,1.25c-.4,1.089-2.178,1.137-2.515,2.259-.1.32,0,.673-.16.993-.272.721-1.233.833-1.858,1.265-1.329.9-1.057,2.979-2,4.277a3.6,3.6,0,0,1-3.412,1.2,12.014,12.014,0,0,1-3.54-1.33,3.415,3.415,0,0,0-1.282-.4,2.641,2.641,0,0,0-1.473.513,9.082,9.082,0,0,0-3.684,7.769,25.371,25.371,0,0,0,2.114,8.7,3.49,3.49,0,0,0,.689,1.3,3.059,3.059,0,0,0,3.4.256,16.025,16.025,0,0,1,3.316-1.49c2.114-.384,4.181,1.073,6.327.945a8.794,8.794,0,0,0,4.261-1.874,23.548,23.548,0,0,0,5.734-4.805c.929-1.233,1.6-2.627,2.435-3.94a50.533,50.533,0,0,1,3.444-4.6l7.881-9.611a22.123,22.123,0,0,0,2.114-2.915,20.541,20.541,0,0,0,1.6-4.4,33.746,33.746,0,0,0,1.6-7.833,30.108,30.108,0,0,0-.577-6.567,23.215,23.215,0,0,0-1.6-6.263C533.955,600.033,529.791,597.086,526.571,600.834Z" transform="translate(213.33 100.233)" fill="#2f2e41"/>
      <path id="Path_612" data-name="Path 612" d="M556.863,605.732a15.377,15.377,0,0,0-6.311-12.494,18.276,18.276,0,0,0-15.521-17.8,17.731,17.731,0,0,0-34.935.945c-5.67-1.281-10.86.385-11.8,3.876s3.059,8.009,9.034,9.61a16.832,16.832,0,0,0,5.8.577,17.748,17.748,0,0,0,12.205,7.608A18.212,18.212,0,0,0,528.656,611.8a15.3,15.3,0,0,0,4.116,5.686v1.329a11.549,11.549,0,1,0,23.1,0,12.331,12.331,0,0,0-1.105-5.11A15.44,15.44,0,0,0,556.863,605.732Z" transform="translate(210.461 77.427)" fill="#f86d70"/>
      <path id="Path_613" data-name="Path 613" d="M492.142,581c.945-3.492,6.135-5.158,11.805-3.876a18.036,18.036,0,0,1,17.619-15.185h1.169a17.362,17.362,0,0,0-5.03-.753,18.036,18.036,0,0,0-17.619,15.185c-5.67-1.281-10.86.385-11.8,3.876s3.059,8.009,9.034,9.611a17.612,17.612,0,0,0,3.428.593C495.025,588.74,491.2,584.576,492.142,581Z" transform="translate(210.455 77.424)" opacity="0.1"/>
      <path id="Path_614" data-name="Path 614" d="M530.8,608.277a11.994,11.994,0,0,1,0-1.313,14.958,14.958,0,0,1-4.117-5.686,18.164,18.164,0,0,1-13.327-13.759,17.7,17.7,0,0,1-12.221-7.592,15.367,15.367,0,0,1-3.412-.1,17.8,17.8,0,0,0,11.773,7,18.212,18.212,0,0,0,13.327,13.743,15.3,15.3,0,0,0,4.117,5.686v1.329a11.757,11.757,0,0,0,11.485,11.949A11.949,11.949,0,0,1,530.8,608.277Z" transform="translate(216.217 88.641)" opacity="0.1"/>
      <ellipse id="Ellipse_65" data-name="Ellipse 65" cx="2.098" cy="2.803" rx="2.098" ry="2.803" transform="translate(722.313 675.359) rotate(-37.22)" fill="#fbbebe"/>
    </g>
  </g>
</svg>
