<?xml version="1.0" encoding="utf-8"?>
<!-- Generator: Adobe Illustrator 19.0.0, SVG Export Plug-In . SVG Version: 6.00 Build 0)  -->
<svg version="1.1" id="_x39_c167f13-7fe2-4e7b-a8cb-8bb79342b68a"
	 xmlns="http://www.w3.org/2000/svg" xmlns:xlink="http://www.w3.org/1999/xlink" x="0px" y="0px" viewBox="-23 -55.2 951.8 610.2"
	 style="enable-background:new -23 -55.2 951.8 610.2;" xml:space="preserve">
<style type="text/css">
	.st0{opacity:0.5;fill:url(#SVGID_1_);enable-background:new    ;}
	.st1{fill:#CE8A28;}
	.st2{opacity:0.6;fill:#CE8A28;enable-background:new    ;}
	.st3{opacity:0.6;fill:none;stroke:#535461;stroke-miterlimit:10;enable-background:new    ;}
	.st4{fill:url(#SVGID_2_);}
	.st5{fill:#FFFFFF;}
	.st6{fill:#EEEEEE;}
	.st7{fill:#FF5252;}
	.st8{fill:#FFFF00;}
	.st9{fill:#69F0AE;}
	.st10{opacity:0.5;fill:#CE8A28;enable-background:new    ;}
	.st11{opacity:0.5;fill:url(#SVGID_3_);enable-background:new    ;}
	.st12{fill:#FDB797;}
	.st13{opacity:5.000000e-002;}
	.st14{fill:#F9CE43;}
	.st15{fill:#0D134D;}
	.st16{opacity:0.1;}
	.st17{fill:#E23553;}
	.st18{opacity:0.1;fill:none;stroke:#000000;stroke-miterlimit:10;enable-background:new    ;}
	.st19{fill:#F4F4F4;}
	.st20{fill:url(#SVGID_4_);}
	.st21{fill:#72351C;}
	.st22{fill:#333333;}
	.st23{fill:#4D8AF0;}
	.st24{fill:#F55F44;}
	.st25{opacity:0.1;enable-background:new    ;}
	.st26{fill:#F0E4E4;}
</style>
<title>website setup</title>
<linearGradient id="SVGID_1_" gradientUnits="userSpaceOnUse" x1="549.9163" y1="-200.2562" x2="549.9163" y2="29.5214" gradientTransform="matrix(1 0 0 -1 -124.06 354.7401)">
	<stop  offset="0" style="stop-color:#808080;stop-opacity:0.25"/>
	<stop  offset="0.54" style="stop-color:#808080;stop-opacity:0.12"/>
	<stop  offset="1" style="stop-color:#808080;stop-opacity:0.1"/>
</linearGradient>
<path class="st0" d="M871.3,467.1c-1.7-7.1-7.4-12.5-11.5-18.5c-10.2-15.1-11.4-34.5-3.1-50.7c4-7.6,10.3-15.5,8-23.8
	c-1.5-5.6-6.6-9.4-11.5-12.4c-18.8-11.3-40.6-16.9-62.6-16.1c-26.9,1.1-53.8,11.9-80.2,6.5c-25.7-5.2-47.5-18.1-74.4-19.6
	c-20.1-1.1-40,0.1-60.2-2.1c-49.8-5.4-99.9-6.6-149.9-3.6c-50-3-100.1-1.8-149.9,3.6c-20.1,2.2-40,0.9-60.1,2.1
	c-27,1.5-48.8,14.4-74.5,19.6c-26.4,5.3-53.3-5.4-80.2-6.5c-22-0.9-43.7,4.7-62.6,16.1c-5,3-10,6.8-11.5,12.4
	c-2.3,8.3,4,16.2,8,23.8c8.3,16.2,7.1,35.6-3.1,50.7c-4.2,6-9.8,11.4-11.5,18.5c-3.5,14.3,10.4,26.9,24,32.5
	c37.1,15.5,82.1,8,116,29.6c15.2,9.7,28.5,25.2,46.5,25.8c12.2,0.4,23.2-6.4,33.9-12.3c15.9-8.9,32.5-16.5,49.7-22.6
	c15-5.3,30.9-9.6,46.7-7.8c24.2,2.7,128.7,53.1,175.8,23.3c32.3-20.5,57.4-20.6,81.7-23.3c15.8-1.8,31.7,2.5,46.7,7.8
	c17.2,6.1,33.8,13.7,49.7,22.6c10.6,6,21.7,12.7,33.9,12.3c18-0.6,31.3-16.1,46.5-25.8c33.9-21.6,78.9-14.1,116-29.6
	C860.9,493.9,874.8,481.4,871.3,467.1z"/>
<path class="st1" d="M866.4,466.8c-1.7-7-7.3-12.3-11.4-18.3c-10-14.9-11.2-34.1-3-50.2c4-7.5,10.2-15.3,7.9-23.5
	c-1.5-5.5-6.5-9.3-11.4-12.3c-18.6-11.2-40.1-16.8-61.9-15.9c-26.6,1.1-53.2,11.7-79.3,6.5c-25.5-5.1-47-17.9-73.7-19.4
	c-19.9-1.1-39.6,0.1-59.5-2c-49.2-5.3-98.8-6.5-148.3-3.5c-49.4-3-99-1.8-148.3,3.5c-19.9,2.2-39.6,0.9-59.5,2
	c-26.7,1.5-48.2,14.3-73.7,19.4c-26.1,5.3-52.7-5.4-79.3-6.5c-21.7-0.8-43.2,4.7-61.9,15.9c-4.9,3-9.9,6.8-11.4,12.3
	c-2.2,8.2,4,16,7.9,23.5c8.2,16,7,35.2-3,50.2c-4.1,5.9-9.7,11.2-11.4,18.3c-3.5,14.1,10.2,26.6,23.6,32.1
	c36.7,15.3,81.2,7.9,114.7,29.2c15,9.6,28.2,25,46,25.5c12,0.4,23-6.3,33.5-12.2c15.7-8.8,32.2-16.3,49.2-22.3
	c14.9-5.3,30.5-9.5,46.2-7.8c24,2.7,127.3,52.6,173.8,23.1c31.9-20.2,56.8-20.4,80.8-23.1c15.7-1.8,31.4,2.5,46.2,7.8
	c17,6,33.4,13.5,49.2,22.3c10.5,5.9,21.5,12.6,33.5,12.2c17.8-0.6,31-15.9,46-25.5c33.5-21.3,78.1-13.9,114.7-29.2
	C856.1,493.4,869.8,480.9,866.4,466.8z"/>
<path class="st2" d="M11.9,164.1c2.9-1,5.9-2,8.9-1.4c5,0.9,8.5,5.6,10,10.5s1.4,10,2.4,15s3.2,10.2,7.7,12.6s9.8,1.5,14.7,0.9
	c6.5-0.8,13.1-0.8,19.6-0.2c5.5,0.5,11.9,2.4,13.5,7.6c1.3,4.3-1.3,8.7-3,12.8c-3.3,7.8-3.5,16.9,0.2,24.5s11.3,13.2,14.4,21.1
	c0.9,2,1.2,4.2,0.8,6.4c-0.5,1.5-1.2,2.9-2.3,4.1c-2.5,3.2-5.4,6-7.7,9.4c-4.7,7-6,15.7-6.5,24.1c-0.5,8.3-0.5,16.6,0.1,24.8
	c-6.1-2-12.9-0.2-19.3-1.5C52.2,331.9,43.8,316,30,315c-6.5-0.5-13.5,2.6-19.3-0.4c-2.8-1.6-4.9-4.1-6.2-7c-2.4-5.2-3-11.1-1.6-16.7
	c1-3.9,3-7.6,2.6-11.6c-0.3-3.4-2.4-6.4-4.7-8.9c-6.7-7.1-16.4-11.4-21.1-19.9c-4.5-8.2-3.4-18.4,2.7-25.5c1.7-1.7,3.3-3.4,4.9-5.3
	c2.3-3.2,3-7.3,3.3-11.3c0.7-9.5-1-19.6,2.1-28.8C-4.5,171.3,4.1,166.9,11.9,164.1z"/>
<path class="st3" d="M12.1,164.3c0,0,27.3,151.7,62.8,169.8"/>
<path class="st3" d="M88.1,206.3c0,0-29.3,4-58.5,34"/>
<path class="st3" d="M34.7,258c0,0-22.5-22-57.7-18.3"/>
<path class="st3" d="M100.9,267.6c0,0-41.1,3.5-56.3,19.3"/>
<path class="st3" d="M50.8,301.5c0,0-23-4-44.2,9.5"/>
<path class="st2" d="M857.4,44.9c-4.6-1.6-9.5-3.1-14.3-2.3c-8,1.4-13.6,9-16,16.8c-2.4,7.8-2.3,16.1-3.8,24.1s-5.2,16.3-12.3,20.1
	s-15.7,2.3-23.6,1.4c-10.4-1.2-21-1.3-31.4-0.3c-8.8,0.9-19.1,3.8-21.7,12.3c-2.1,6.9,2.1,13.9,4.9,20.6c5.2,12.4,5.7,27.1-0.3,39.2
	c-6.1,12.3-18.1,21.1-23.2,33.9c-1.3,3.2-2.1,6.8-1.2,10.2c0.8,2.4,2,4.7,3.6,6.6c4,5.1,8.7,9.6,12.3,15
	c7.5,11.2,9.6,25.2,10.5,38.6c0.9,13.3,0.8,26.5-0.2,39.8c9.8-3.2,20.7-0.3,30.9-2.4c21.6-4.5,35.1-30,57.1-31.6
	c10.4-0.7,21.6,4.2,30.9-0.6c4.5-2.3,7.7-6.6,9.9-11.3c3.9-8.4,4.7-17.8,2.4-26.7c-1.6-6.2-4.8-12.2-4.2-18.6
	c0.5-5.5,3.8-10.3,7.5-14.2c10.7-11.4,26.2-18.3,33.9-31.9c7.2-12.7,5.4-29.9-4.3-40.9c-2.5-2.9-5.6-5.3-7.8-8.5
	c-3.7-5.2-4.9-11.8-5.3-18.1c-1.1-15.3,1.5-31.4-3.4-46.2C883.7,56.5,870,49.3,857.4,44.9z"/>
<path class="st3" d="M857.2,45.3c0,0-43.8,243.1-100.6,272.1"/>
<path class="st3" d="M735.4,112.6c0,0,46.9,6.4,93.7,54.6"/>
<path class="st3" d="M820.9,195.4c0,0,36.1-35.3,92.5-29.3"/>
<path class="st3" d="M714.8,210.8c0,0,65.8,5.6,90.2,30.9"/>
<path class="st3" d="M795.1,265.2c0,0,36.9-6.5,70.9,15.3"/>
<linearGradient id="SVGID_2_" gradientUnits="userSpaceOnUse" x1="415.375" y1="59.63" x2="415.375" y2="554.83" gradientTransform="matrix(1 0 0 -1 0 499.66)">
	<stop  offset="0" style="stop-color:#808080;stop-opacity:0.25"/>
	<stop  offset="0.54" style="stop-color:#808080;stop-opacity:0.12"/>
	<stop  offset="1" style="stop-color:#808080;stop-opacity:0.1"/>
</linearGradient>
<path class="st4" d="M55.3-55.2c-1.9,0-3.4,1.5-3.4,3.4v21.6v466.8c0,1.9,1.5,3.4,3.4,3.4h720.1c1.9,0,3.4-1.5,3.4-3.4V-30.2v-21.6
	c0-1.9-1.5-3.4-3.4-3.4H55.3z"/>
<path class="st5" d="M66.1-32.7h701.6c1.9,0,3.4,1.5,3.4,3.4v456.9c0,1.9-1.5,3.4-3.4,3.4H66.1c-1.9,0-3.4-1.5-3.4-3.4V-29.3
	C62.7-31.2,64.2-32.7,66.1-32.7z"/>
<rect x="62.7" y="-54.8" class="st6" width="708.5" height="34.1"/>
<circle class="st7" cx="89.7" cy="-38.2" r="8.3"/>
<circle class="st8" cx="112.4" cy="-38.2" r="8.3"/>
<circle class="st9" cx="135.1" cy="-38.2" r="8.3"/>
<path class="st10" d="M95.3,34h253c3,0,5.5,2.5,5.5,5.5v0c0,3-2.5,5.5-5.5,5.5h-253c-3,0-5.5-2.5-5.5-5.5v0
	C89.8,36.5,92.3,34,95.3,34z"/>
<path class="st10" d="M95.3,56h253c3,0,5.5,2.5,5.5,5.5v0c0,3-2.5,5.5-5.5,5.5h-253c-3,0-5.5-2.5-5.5-5.5v0
	C89.8,58.5,92.3,56,95.3,56z"/>
<path class="st10" d="M95.3,78h253c3,0,5.5,2.5,5.5,5.5v0c0,3-2.5,5.5-5.5,5.5h-253c-3,0-5.5-2.5-5.5-5.5v0
	C89.8,80.5,92.3,78,95.3,78z"/>
<path class="st10" d="M186.3,100h162c3,0,5.5,2.5,5.5,5.5v0c0,3-2.5,5.5-5.5,5.5h-162c-3,0-5.5-2.5-5.5-5.5v0
	C180.8,102.5,183.3,100,186.3,100z"/>
<path class="st10" d="M95.3,122h128c3,0,5.5,2.5,5.5,5.5v0c0,3-2.5,5.5-5.5,5.5h-128c-3,0-5.5-2.5-5.5-5.5v0
	C89.8,124.5,92.3,122,95.3,122z"/>
<path class="st10" d="M170.3,144h96c3,0,5.5,2.5,5.5,5.5l0,0c0,3-2.5,5.5-5.5,5.5h-96c-3,0-5.5-2.5-5.5-5.5l0,0
	C164.8,146.5,167.3,144,170.3,144z"/>
<path class="st10" d="M392.3,111h304c1.9,0,3.5,1.6,3.5,3.5v172c0,1.9-1.6,3.5-3.5,3.5h-304c-1.9,0-3.5-1.6-3.5-3.5v-172
	C388.8,112.6,390.4,111,392.3,111z"/>
<path class="st6" d="M429.1,128h304.5c1.8,0,3.2,1.5,3.2,3.2v172.5c0,1.8-1.5,3.2-3.2,3.2H429.1c-1.8,0-3.2-1.5-3.2-3.2V131.3
	C425.8,129.5,427.3,128,429.1,128z"/>
<linearGradient id="SVGID_3_" gradientUnits="userSpaceOnUse" x1="953.1577" y1="-154.2372" x2="953.1577" y2="249.6558" gradientTransform="matrix(1 0 0 -1 -124.06 354.7401)">
	<stop  offset="0" style="stop-color:#808080;stop-opacity:0.25"/>
	<stop  offset="0.54" style="stop-color:#808080;stop-opacity:0.12"/>
	<stop  offset="1" style="stop-color:#808080;stop-opacity:0.1"/>
</linearGradient>
<path class="st11" d="M923.8,293.2c0.6-0.8,1-1.8,1-2.9c0,0,0-0.1,0-0.1c0,0,0.1-0.2,0.1-0.3v-0.1c0-0.1,0-0.2,0-0.3
	c0,0,0-0.1,0-0.1c0-0.1,0-0.2,0-0.4c-0.6-4-24.4-30.1-30.3-61.9c-0.7-3.5-1.6-6.9-2.9-10.1c0.2-1.6,0.1-3.3-0.3-4.9
	c-1-4.1-3-8.2-2-12.3c0.1-0.5,0.3-1,0.6-1.5c1.2-1.8,2.4-3.7,3.4-5.7c0.4-0.6,0.7-1.3,1-2c3.7-9.6-7.7-19.5-5.6-29.6
	c0.9-4.4,4.3-8.1,4.2-12.6c-0.1-5.1-4.8-9-9.6-10.9s-10.2-2.4-14.9-4.5c-10.4-4.6-16.1-15.7-25.6-21.9c-12.1-7.9-27.8-6.5-42.3-4.4
	c-1,0.1-1.8,0.8-2.2,1.6l0,0h-0.1c-0.1,0.3-0.2,0.6-0.4,0.9c-2,3.4-5.4,6-8.7,8.4c-4.1,2.9-8.4,5.7-10.9,9.9c-0.4,0.6-0.7,1.2-1,1.8
	c-5.4,9.6,1.1,13.8,9,16.1c-0.2,1.4-0.4,2.8-0.4,4.2c0,14,11.7,25.4,26.1,25.4c1.1,0,2.3-0.1,3.4-0.2l0.8,0.5h0.2
	c2.7,1.9,5,4.4,6,7.2l-8.4,6.4c0,0,0.3,0.9,0.8,2.3L782,206.5c-12.5,0.6-32.7-38.7-32.7-38.7s-3-22.5-13.7-26.6
	c-3.2-1.2-4.5,1.3-4.7,5.5c-4.8,5,3.2,33.1,3.2,33.1l25.5,45.1c2.4,4.6,3,7.5,14.3,9.3c9.3,1.4,38.2-8.8,48.2-12.6l0.5,4
	c-1.2,3-1.7,6.3-1.5,9.6c0,7.4,3.3,18.1,19.3,26.6c0,0,16.6,21.4,14.7,41.7c0,0,0.8,0.8,2.1,1.9c-0.2,5.7-1,12.7-3.9,15.5
	c-0.4,0.4-0.6,0.9-0.5,1.4c-0.1,0.6,0.2,1.2,0.7,1.5l-20.9,36.7c-0.8,1-1.6,2-2.4,3c-3.9,5-8.2,9.6-12.9,13.8
	c-3.5,3.1-7.1,6.5-7.8,7.8c-1.1,2-3.9,8.5-2.7,13.8c1.5,6.5,2.2,13.1,1.9,19.7l-2.7,47.4c-0.9,5.3-2.2,10.5-3.8,15.7h-0.4
	c0,0-10.1,12.1-26.1,15s-15.5,11-10.7,12.1s62.4-1.2,62.4-1.2s2.2-4.3,1.6-8.1c18.4-1.8,43.9-4.8,43.9-4.8s3.5-8.4-1.6-12
	c-1.9-1.5-3.3-3.5-4.1-5.8c-0.3-1.3-0.6-2.7-1-4.3c-0.1-0.8-0.1-1.2-0.1-1.2h-0.2c-0.9-4.5-1.6-9.3-1.2-11.8
	c1.5-6.7,5.3-45.1-4.2-56.1c-4.3-5-3.7-10.7-1.8-15.4c11.4-7.5,27.4-23.5,36.6-33.3c0.5,0.4,1,0.9,1.4,1.3l0.3,0.3
	c0,0,31.4-15.5,31.5-43C928.8,306.3,927.1,299.4,923.8,293.2z M823.2,486.8c-0.1-1,0-2,0.1-3l-1-0.1c0.6-4.4,2-9.2,5.2-12.6
	c5.5-9.9,9.3-20.6,11.4-31.7l5.8,21.8c0,0,0.6,4.5,0.7,9.3h-0.1C845.4,470.5,837.3,482,823.2,486.8z"/>
<path class="st12" d="M849.3,204.1c0,0-14.1,5.1-22,13.5c0,0-38.4,15.2-49.1,13.5s-11.3-4.5-13.5-9l-24.3-44c0,0-10.2-36.7,0-32.8
	s13,26,13,26s19.2,38.4,31,37.8l32.2-15.3c0,0,7.3-10.7,10.7-10.2S849.3,204.1,849.3,204.1z"/>
<g class="st13">
	<path d="M849.3,204.1c0,0-14.1,5.1-22,13.5c0,0-38.4,15.2-49.1,13.5s-11.3-4.5-13.5-9l-24.3-44c0,0-10.2-36.7,0-32.8s13,26,13,26
		s19.2,38.4,31,37.8l32.2-15.3c0,0,7.3-10.7,10.7-10.2S849.3,204.1,849.3,204.1z"/>
</g>
<path class="st14" d="M826.1,183.2l-11.3,8.8c0,0,5.6,14.7,4.2,19.9s22.5-8.1,22.5-8.1l-9.8-22.1L826.1,183.2z"/>
<g class="st13">
	<path d="M826.1,183.2l-11.3,8.8c0,0,5.6,14.7,4.2,19.9s22.5-8.1,22.5-8.1l-9.8-22.1L826.1,183.2z"/>
</g>
<path class="st12" d="M806.7,173.4c0,0,25.1,8.2,13.5,22.6l36.1-17.5c0,0-15.2,1.1-24.8-22L806.7,173.4z"/>
<path class="st12" d="M854.1,320.8L823,376.7l20.9,81.3c0,0,2.3,18.1-1.1,19.8h23.7c0,0-4.6-16-3.4-21.5c1.4-6.5,5.1-44-4-54.8
	s4.5-24.8,4.5-24.8l27.1-42.9L854.1,320.8z"/>
<g class="st13">
	<path d="M854.1,320.8L823,376.7l20.9,81.3c0,0,2.3,18.1-1.1,19.8h23.7c0,0-4.2-16.1-3.4-21.5s5.1-44-4-54.8s4.5-24.8,4.5-24.8
		l27.1-42.9L854.1,320.8z"/>
</g>
<path class="st15" d="M844.5,467c0,0-8.6,12.7-23.6,16.7s-13.8,11.9-9.2,12.6s59-5.8,59-5.8s3.3-8.2-1.5-11.8s-4.8-11-4.8-11
	L844.5,467z"/>
<g class="st16">
	<path d="M855.8,298.2c0,0,1.3,18.4-3.5,23.2c-0.6,0.6-0.6,1.5-0.1,2.1c0.1,0.1,0.2,0.2,0.4,0.3l14.5,7.8l13-24.8L855.8,298.2z"/>
</g>
<path class="st17" d="M855.8,297.6c0,0,1.3,18.4-3.5,23.2c-0.6,0.6-0.6,1.5-0.1,2.1c0.1,0.1,0.2,0.2,0.4,0.3l14.5,7.8l13-24.8
	L855.8,297.6z"/>
<g class="st16">
	<path d="M855.8,298.6c0,0,1.3,18.4-3.5,23.2c-0.6,0.6-0.6,1.5-0.1,2.1c0.1,0.1,0.2,0.2,0.4,0.3l14.5,7.8l13-24.8L855.8,298.6z"/>
</g>
<path class="st12" d="M856.3,333.7c0,0-8.4,5.6-26,28.7c-3.7,4.8-7.8,9.3-12.3,13.4c-3.3,3-6.8,6.4-7.5,7.6
	c-1.1,1.9-3.7,8.3-2.6,13.5c1.5,6.3,2,12.8,1.8,19.3l-2.6,46.3c0,0-3.4,20.9-7.9,23.2l23.2,4c0,0-1.7-14.7,5.1-22
	c0,0,15.8-27.1,11.9-57.6c0,0-1.7-13.5,13.5-20.9s46.3-42.9,46.3-42.9L856.3,333.7z"/>
<path class="st15" d="M803.3,477.7c0,0-9.6,11.9-24.8,14.7s-14.7,10.7-10.2,11.9s59.3-1.1,59.3-1.1s4-7.9-0.6-11.9
	s-3.4-11.3-3.4-11.3L803.3,477.7z"/>
<g class="st16">
	<path d="M870.5,303.8c0,0-6.9,23.1-15.6,29.9c-0.5,0.4-0.6,1.1-0.2,1.6c0.1,0.2,0.3,0.3,0.5,0.4c7.2,2.6,30.4,11.5,38.5,19.5
		l0.3,0.3c0,0,48.3-24.6,22.3-66.3L870.5,303.8z"/>
</g>
<path class="st17" d="M870.5,303.3c0,0-6.9,23.1-15.6,29.9c-0.5,0.4-0.6,1.1-0.2,1.6c0.1,0.2,0.3,0.3,0.5,0.4
	c7.2,2.6,30.4,11.5,38.5,19.5l0.3,0.3c0,0,48.3-24.6,22.3-66.3L870.5,303.3z"/>
<g class="st16">
	<path d="M830.8,188.5c-3.6,2.4-7.5,4.3-11.6,5.6l3.9,34.5c0,0-9.1,20.3,16.9,34.5c0,0,15.8,20.9,14,40.7c0,0,8.5,9.1,14.1,6.8
		s0.6,1.1,1.7,0.6s3.4,4.5,20.9,0c17.5-4.5,30-16.3,29.4-20.3c-0.6-4-23.1-29.4-28.6-60.5s-38.8-53.2-38.8-53.2s-1.1,0.6-3,1.4
		C843.1,181.5,836.8,184.8,830.8,188.5z"/>
</g>
<g class="st16">
	<path d="M854.4,333.9c0,0.5,0.3,1,0.7,1.1c6.2,2.3,24.3,9.2,34.3,16.2C880.8,344.2,862.3,336.9,854.4,333.9z"/>
	<path d="M916.2,288.6l-1,0.3c22.2,38.8-19.6,62.2-23.3,64.2c0.6,0.5,1.2,1,1.7,1.5l0.3,0.3C894,354.9,942.2,330.4,916.2,288.6z"/>
</g>
<path class="st14" d="M890.8,310c-17.5,4.5-19.8-0.6-20.9,0s4-2.8-1.7-0.6s-14.1-6.8-14.1-6.8c0.1-1,0.1-1.9,0.1-2.9
	c0.1-18.9-14.3-37.8-14.3-37.8c-26-14.1-16.9-34.4-16.9-34.4l-1.1-9.3l-2.9-25.3c4.1-1.3,8-3.2,11.6-5.6c6-3.8,12.2-7.1,18.7-9.8
	c1.9-0.8,3-1.4,3-1.4s33.3,22,39,53.1s28.2,56.5,28.8,60.4S908.3,305.5,890.8,310z"/>
<g class="st16">
	<path d="M832.1,157L807.2,174c3.4,1.2,6.7,2.8,9.7,4.8c8.5-1.2,13.6-7.3,17.1-14.7C832.7,161.9,833.3,160,832.1,157z"/>
</g>
<circle class="st12" cx="812.9" cy="153.7" r="24.8"/>
<g class="st16">
	<path d="M894.7,307.2c-17.5,4.5-19.8-0.6-20.9,0s4-2.8-1.7-0.6s-14.1-6.8-14.1-6.8c0.1-1,0.1-1.9,0.1-2.9
		c0.1-18.9-14.2-37.8-14.2-37.8c-26-14.1-16.9-34.4-16.9-34.4l-1.1-9.3l-2.8-23.9c-1.3,0.6-2.7,1.1-4.1,1.5l2.9,25.3l1.1,9.3
		c0,0-9,20.3,16.9,34.4c0,0,14.3,18.9,14.2,37.8c0,1,0,1.9-0.1,2.9c0,0,8.5,9,14.1,6.8c5.6-2.2,0.6,1.1,1.7,0.6s3.4,4.5,20.9,0
		c7.9-2.1,15.4-5.7,21.9-10.7C907.1,302.9,901.1,305.6,894.7,307.2z"/>
</g>
<path class="st12" d="M847.9,209c0,0-14.1,5.1-22,13.5c0,0-38.4,15.2-49.1,13.5s-11.3-4.5-13.5-9l-24.3-44c0,0-10.2-36.7,0-32.8
	s13,26,13,26s19.2,38.4,31,37.8l32.2-15.3c0,0,7.3-10.7,10.7-10.2S847.9,209,847.9,209z"/>
<g class="st16">
	<path d="M828.8,188.3c0,0-11.7-1.1-15.1,13.6s26,23.7,26,23.7l15.8-22L828.8,188.3z"/>
</g>
<path class="st14" d="M829.4,188.3c0,0-11.7-1.1-15.1,13.6s26,23.7,26,23.7l15.8-22L829.4,188.3z"/>
<g class="st16">
	<path d="M824.6,190.9c-1.8,0.9-3.6,1.6-5.5,2.1l0.1,0.9C821,193,822.9,192,824.6,190.9z"/>
	<path d="M920.1,289.7c-0.6-4-23.2-29.4-28.8-60.4s-39-53.1-39-53.1s-1.1,0.6-3,1.4c-5.1,2.2-10,4.7-14.8,7.5
		c3.2-1.7,6.4-3.2,9.7-4.6c1.9-0.8,3-1.4,3-1.4s33.3,22,39,53.1s28.2,56.5,28.8,60.4c0.4,2.5-4.4,8.1-12.4,13.1
		C913.6,300.2,920.6,292.7,920.1,289.7z"/>
</g>
<path class="st18" d="M836.1,188.5c0,0,14.6,7.2,17.3,21.1"/>
<g class="st16">
	<path d="M800.4,152.3c2.3,0.5,4.9,1.3,6.1,3.3c0.8,1.5,0.7,3.4,1.5,5c2.1,3.9,8.2,2.6,12,4.9c7,4.2,2.4,17.4,9.4,21.6
		c1.3,0.8,2.9,1.1,4.2,1.9c5.9,3.2,5.1,11.7,4,18.4s0.2,15.7,6.8,16.6c3.7,0.5,7.8-1.9,10.8,0.1c1.6,1.1,2.3,3,3.7,4.4
		c1.9,1.9,4.7,2.5,7.2,1.5c2.3-0.9,3.9-3.1,6.2-3.8c3.8-1.1,8,2,11.6,0.5s4.5-6.7,3.5-10.6s-2.9-8-1.9-12c0.8-3.3,3.5-5.8,4.7-9
		c3.5-9.4-7.3-19.1-5.3-28.9c0.9-4.3,4.1-8,4-12.3c-0.1-5-4.5-8.8-9.1-10.6s-9.7-2.4-14.2-4.4c-9.9-4.5-15.3-15.4-24.3-21.4
		c-4-2.6-8.6-4.4-13.4-5.1c-12.5-2-25.2,1.5-34.9,9.5c-0.9,0.7-1.8,1.4-2.7,2.1c-3.9,2.8-8,5.5-10.3,9.7
		C771.5,148.5,791.2,150.2,800.4,152.3z"/>
</g>
<path class="st1" d="M801.1,150.8c2.3,0.5,4.9,1.3,6.1,3.3c0.8,1.5,0.7,3.4,1.5,5c2.1,3.9,8.2,2.6,12,4.9c7,4.2,2.4,17.4,9.4,21.6
	c1.3,0.8,2.9,1.1,4.2,1.9c5.9,3.2,5.1,11.7,4,18.4s0.2,15.7,6.8,16.6c3.7,0.5,7.8-1.9,10.8,0.1c1.6,1.1,2.3,3,3.7,4.4
	c1.9,1.9,4.7,2.5,7.2,1.5c2.3-0.9,3.9-3.1,6.2-3.8c3.8-1.1,8,2,11.6,0.5s4.5-6.7,3.5-10.6s-2.9-8-1.9-12c0.8-3.3,3.5-5.8,4.7-9
	c3.5-9.4-7.3-19.1-5.3-28.9c0.9-4.3,4.1-8,4-12.3c-0.1-5-4.5-8.8-9.1-10.6s-9.7-2.4-14.2-4.4c-9.9-4.5-15.3-15.4-24.3-21.4
	c-3.7-2.4-7.8-4.1-12.1-4.9c-12.9-2.5-26.2,0.9-36.3,9.3c-0.9,0.7-1.8,1.4-2.7,2c-3.9,2.8-8,5.5-10.3,9.7
	C772.2,147.1,791.9,148.8,801.1,150.8z"/>
<path class="st1" d="M591.6,307H429.1c-1.8,0-3.2-1.5-3.2-3.2v-27.5c0-1.3,0.7-2.4,1.9-2.9c41.2-18.7,103-28.6,166,28
	C596,303.3,594.6,307,591.6,307z"/>
<g class="st16">
	<path d="M734.8,302.3v4.7h-217v-1C517.8,306,624.6,202,734.8,302.3z"/>
</g>
<path class="st1" d="M736.8,303.8L736.8,303.8c0,1.8-1.5,3.2-3.2,3.2H519.8v-1c0,0,106.1-103.3,215.9-4.7
	C736.4,302,736.8,302.8,736.8,303.8z"/>
<circle class="st1" cx="461.8" cy="160" r="16"/>
<path class="st19" d="M598.1,147.9c-1.8,0-3.9,0-5.3,0.1c-0.6,0-1.2,0.2-1.8,0.4l-9.4,3.4c7.6,0.2,15.5,0.1,23.3,0.1l43.7-0.3
	c4.5,0,9.1-0.1,12.8-0.3c2.5-0.2,4.3-0.4,6.6-0.6c8.3-0.7,20.3-0.6,31.1-0.6s23.8-0.2,27.6-1.3h-23.1c-2.5,0-5.1,0-7.3-0.1
	c-2.6-0.1-4.1-0.4-6.4-0.6c-3.7-0.3-8.9-0.4-13.7-0.4C649.8,147.4,623.8,148,598.1,147.9z"/>
<path class="st19" d="M623.9,167.3c-0.4,0-0.8,0-1.1,0c-0.1,0-0.3,0-0.4,0.1l-2,0.7c1.7,0,3.4,0,5,0l9.5-0.1c1,0,2,0,2.8-0.1
	c0.5,0,0.9-0.1,1.4-0.1c1.8-0.2,4.4-0.1,6.7-0.1c2,0.1,4,0,6-0.3h-5c-0.5,0-1.1,0-1.6,0s-0.9-0.1-1.4-0.1c-0.8-0.1-1.9-0.1-3-0.1
	C635.2,167.2,629.5,167.3,623.9,167.3z"/>
<path class="st19" d="M556.9,195.3c-0.4,0-0.8,0-1.1,0c-0.1,0-0.3,0-0.4,0.1l-2,0.7c1.7,0,3.4,0,5,0l9.5-0.1c1,0,2,0,2.8-0.1
	c0.5,0,0.9-0.1,1.4-0.1c1.8-0.2,4.4-0.1,6.7-0.1c2,0.1,4,0,6-0.3h-5c-0.5,0-1.1,0-1.6,0s-0.9-0.1-1.4-0.1c-0.8-0.1-1.9-0.1-3-0.1
	C568.2,195.2,562.5,195.3,556.9,195.3z"/>
<path class="st1" d="M519.3,298.1h-7.5c0,0-2.3-82.2,7.5-107.6h1.9C521.2,190.5,514.7,283.6,519.3,298.1z"/>
<path class="st1" d="M514.2,186.3c0,0-6.1,16.9-3.3,24.4c0,0,4.2-15.5,9.2-17.9s10.1,17.9,10.1,17.9s2.8-12.7-2.3-23
	c0,0,10.3,5.6,15.5,16.5c0,0,0.9-7-11.3-21.6c0,0,10.8,2.8,17.9,9.4c0,0,2.3-5.2-12.2-13.6c0,0,1.9-6.1,13.2-3.3c0,0,0-8-17.9-6.6
	c0,0,0-5.2,11.8-4.2c0,0,0-6.6-13.6-4.2c0,0,2.8-4.2,4.7-5.2c-2.4-0.2-4.7,0.5-6.6,1.9c0,0,0.5-8.5-6.6-11.8l-0.9,11.8
	c0,0-7.9-9.3-6.1-7.5c0.5,0.5,1.9,6.1,1.4,8.9c0,0-8-6.6-17.9,0.5c0,0,12.2,0.9,14.1,5.2c0,0-10.3-1.9-12.7-0.5c0,0,8,2.8,7.5,4.7
	c0,0-14.1,0-16,5.2c0,0,14.6,1.9,15.5,3.3c0,0-16.9,12.2-17.9,15.5c0,0,17.4-10.3,20.2-10.3s-12.7,15-11.8,18.8
	C498.2,200.4,510.9,185.4,514.2,186.3z"/>
<path class="st1" d="M612.1,295.1h5.7c0,0,1.8-62.8-5.7-82.2h-1.4C610.7,212.8,615.7,283.9,612.1,295.1z"/>
<path class="st1" d="M616,209.6c0,0,4.7,12.9,2.5,18.7c0,0-3.2-11.9-7-13.6s-7.7,13.6-7.7,13.6s-2.2-9.7,1.8-17.6
	c-5.1,3-9.2,7.3-11.8,12.6c0,0-0.7-5.4,8.6-16.5c0,0-8.3,2.1-13.6,7.2c0,0-1.8-4,9.3-10.4c0,0-1.4-4.7-10-2.5c0,0,0-6.1,13.6-5
	c0,0,0-4-9-3.2c0,0,0-5,10.4-3.2c0,0-2.2-3.2-3.6-4c1.8-0.2,3.6,0.4,5,1.4c0,0-0.4-6.5,5-9l0.7,9c0,0,6-7.1,4.7-5.7
	c-0.9,2.2-1.2,4.5-1.1,6.8c0,0,6.1-5,13.6,0.4c0,0-9.3,0.7-10.8,4c0,0,7.9-1.4,9.7-0.4c0,0-6.1,2.1-5.7,3.6c0,0,10.8,0,12.2,4
	c0,0-11.1,1.4-11.8,2.5c0,0,12.9,9.3,13.6,11.9c0,0-13.3-7.9-15.4-7.9s9.7,11.5,9,14.4C628.3,220.4,618.6,208.9,616,209.6z"/>
<path class="st1" d="M680.8,282.8h3.6c0,0,1.1-38.9-3.6-50.9h-0.9C679.9,231.9,683,275.9,680.8,282.8z"/>
<path class="st1" d="M683.3,229.9c0,0,2.9,8,1.6,11.6c0,0-2-7.3-4.3-8.5s-4.8,8.5-4.8,8.5s-1.3-6,1.1-10.9c-3.1,1.9-5.7,4.5-7.3,7.8
	c0,0-0.4-3.3,5.3-10.2c-3.1,0.9-6,2.4-8.5,4.5c0,0-1.1-2.5,5.8-6.5c0,0-0.9-2.9-6.2-1.6c0,0,0-3.8,8.5-3.1c0,0,0-2.5-5.6-2
	c0,0,0-3.1,6.5-2c-0.6-0.9-1.3-1.8-2.2-2.5c1.1-0.1,2.2,0.2,3.1,0.9c0,0-0.2-4,3.1-5.6l0.4,5.6c0,0,3.7-4.4,2.9-3.6
	c-0.5,1.3-0.8,2.8-0.7,4.2c2.5-1.9,6-1.8,8.5,0.2c0,0-5.8,0.4-6.7,2.5c0,0,4.9-0.9,6-0.2c0,0-3.8,1.3-3.6,2.2c0,0,6.7,0,7.6,2.5
	c0,0-6.9,0.9-7.3,1.6c0,0,8,5.8,8.5,7.3c0,0-8.2-4.9-9.6-4.9s6,7.1,5.6,8.9C690.8,236.5,684.8,229.4,683.3,229.9z"/>
<linearGradient id="SVGID_4_" gradientUnits="userSpaceOnUse" x1="664.7618" y1="77.2866" x2="664.7618" y2="132.6266" gradientTransform="matrix(1 0 0 -1 -124.06 354.7401)">
	<stop  offset="0" style="stop-color:#808080;stop-opacity:0.25"/>
	<stop  offset="0.54" style="stop-color:#808080;stop-opacity:0.12"/>
	<stop  offset="1" style="stop-color:#808080;stop-opacity:0.1"/>
</linearGradient>
<path class="st20" d="M550.8,238.8L550.8,238.8l-0.8-4c0-0.6-0.2-1.2-0.7-1.6l-3.5-1.7l0,0c-0.3-0.3-0.5-0.6-0.6-1l0.1-0.1
	c0.2-0.2,0.3-0.5,0.4-0.8c0-0.1,0-0.2,0-0.2h0c0.7,0.1,1.3-0.3,1.4-1v-0.1c-0.1,0.6-0.6,1-1.2,1c1-0.7,1.6-1.8,1.6-2.9
	c0,0,0-0.1,0-0.1c0.3-0.2,0.5-0.5,0.6-0.9v-0.1c-0.1,0.3-0.3,0.6-0.6,0.8c0-0.3-0.1-0.7-0.2-1h0.1c0.7,0,1.3-0.6,1.3-1.3
	c0,0,0-0.1,0-0.1c0,0.7-0.6,1.2-1.3,1.2h-0.2v-0.1c0.8-0.2,1.4-0.9,1.5-1.7c0,0,0-0.1,0-0.1c0,0.3-0.1,0.5-0.3,0.7
	c0-0.7-0.5-1.3-1.2-1.4c-0.6,0-1.2,0.4-1.3,1l-0.2-0.1c0.1-0.5,0.6-0.9,1.2-0.9h-0.1c-0.6,0-1,0.3-1.2,0.9c-1.6-0.7-3.5-0.2-4.5,1.3
	c-0.3,0.2-0.6,0.5-0.6,0.7c-0.1,0.1-0.2,0.2-0.3,0.4c-0.4,0.8-0.5,1.8-0.4,2.7c0.1,0.9-0.2,1.8-0.9,2.5c0.3,0.1,0.6,0.1,0.9,0
	c0.3-0.1,0.6-0.3,0.8-0.5c0.2-0.1,0.4-0.3,0.6-0.6v0c0.2,0.1,0.3,0.2,0.5,0.3c0.1,0.6,0.1,1.3-0.2,1.5l0,0l0,0l0-0.1
	c-0.6,0.5-1.4,0.7-2.3,0.6c-1,0.1-1.9,0.6-2.3,1.5l-1.1,4.5l0,0v0.1l0,0v0.1l0,0c0,0.1,0.1,0.2,0.3,0.3l0.3,0.1
	c0.1,0.8,0,1.6-0.2,2.3c-0.2,1.1-0.4,2.3-0.4,3.4c0.1,0.6,0.2,3.5,0.3,5c-0.1,0.5-0.2,1-0.3,1.5l-1.6,9.7c0,0-1.2,7.7-1.1,10.1
	l-0.2,1.3c0,0-3.3,4.1-2.3,4.7c1,0.6,2.4,0.8,3.8-1.3c0.2-0.5,0.5-1,0.9-1.4c0.3-0.3,0.5-0.7,0.5-1.1l-0.1-1l0.2,0.1l0,0h0.1
	c0,0,1.6-5.3,1.4-9c0,0,3-10.6,5.3-12.3v-0.1l0.2-0.1l0.5,10.3l-0.5,11.3l-0.1,0.7c0,0-3.3,4.1-2.3,4.7c1,0.6,2.4,0.8,3.8-1.3
	c0.2-0.5,0.5-1,0.9-1.4c0.3-0.3,0.5-0.7,0.5-1.1l-0.2-1.5c0.6-1.9,2-7.4,1.4-10.6l1-6.8c1-1.1,0.9-4,0.9-4c0.8-1.6,1-8.1,1-8.1
	l0.2-3.2c0.1,0,0.3,0,0.5,0h0.1h0.1V239C550.7,238.9,550.8,238.9,550.8,238.8L550.8,238.8L550.8,238.8L550.8,238.8L550.8,238.8z
	 M548,245.3c-0.1-0.2-0.2-0.4-0.3-0.7h-0.1v-0.1c0,0,0-0.1,0-0.1v-0.1c0-0.1,0.1-0.2,0.1-0.3c0.1-0.2,0.2-0.4,0.2-0.7
	C548.1,244,548.1,244.6,548,245.3z M547.7,242.5l-0.2-2.1l0.1-0.2l0.3,2.7L547.7,242.5z M538.3,242.8c-0.1,0.2-0.2,0.4-0.2,0.6
	c0,0,0,0,0,0.1c0,0.2,0,0.4,0.1,0.6l-0.3,1.3v-2.6c0.2-0.3,0.4-0.6,0.5-0.9C538.4,242.3,538.4,242.6,538.3,242.8L538.3,242.8z"/>
<path class="st21" d="M540.3,226.3c-0.4,0.8-0.5,1.7-0.4,2.6c0.1,0.9-0.2,1.8-0.9,2.4c0.3,0.1,0.6,0.1,0.9,0
	c0.3-0.1,0.6-0.3,0.8-0.5c0.2-0.1,0.4-0.3,0.6-0.5c0.1-0.3,0.2-0.7,0.1-1.1c0-0.7,0.1-1.3,0.2-2c0.1-0.4,0.4-1.5,0-1.7
	S540.5,226,540.3,226.3z"/>
<path class="st22" d="M533.7,268.8l-0.3,2c0,0-3.2,4-2.2,4.5s2.3,0.8,3.7-1.3c0.2-0.5,0.5-0.9,0.9-1.3l0,0c0.3-0.3,0.5-0.7,0.4-1.1
	l-0.3-3L533.7,268.8z"/>
<path class="st22" d="M543.1,269.6l-0.3,2c0,0-3.2,4-2.2,4.5s2.3,0.8,3.7-1.3c0.2-0.5,0.5-0.9,0.9-1.3l0,0c0.3-0.3,0.5-0.7,0.4-1.1
	l-0.3-3L543.1,269.6z"/>
<path class="st23" d="M538.2,245.7c0,0-1.5,1.1-2,4.8l-1.5,9.3c0,0-1.3,8.4-1.1,10.1l2.6,0.9c0,0,1.5-5.1,1.4-8.6
	c0,0,3.2-11.2,5.4-12l0.5,9.9l-0.5,11.2l2.2,0.5c0,0,2.3-7.1,1.5-10.9l1.2-8c0,0,1.3-4.3-0.5-8L538.2,245.7z"/>
<g class="st16">
	<path d="M542.7,250.3v-0.2c-2.2,0.8-5.4,12-5.4,12c-0.1,2.9-0.5,5.8-1.3,8.6l0.3,0.1c0,0,1.5-5.1,1.4-8.6
		C537.7,262.1,540.6,251.9,542.7,250.3z"/>
	<path d="M547.5,244.8h-0.3c1.1,2.5,1.3,5.3,0.5,7.9l-1.2,8c0.7,3.6-1.3,10.1-1.5,10.8l0.3,0.1c0,0,2.3-7.1,1.5-10.9l1.2-8
		C548,252.7,549.3,248.5,547.5,244.8z"/>
</g>
<path class="st24" d="M536.2,238.4c0,0.2,0.1,0.3,0.3,0.3c0.7,0.2,1.4,0.5,2,1c1.1,0.9-1.2-1.7-1.2-1.7l-0.8,0.2L536.2,238.4
	L536.2,238.4z"/>
<path class="st25" d="M536.2,238.4c0,0.2,0.1,0.3,0.3,0.3c0.7,0.2,1.4,0.5,2,1c1.1,0.9-1.2-1.7-1.2-1.7l-0.8,0.2L536.2,238.4
	L536.2,238.4z"/>
<path class="st24" d="M547,240.7c0.9-0.7,2-1.1,3.1-1.2c0.2,0,0.3-0.1,0.3-0.3l0,0C550.4,239.2,547.8,238.1,547,240.7z"/>
<path class="st25" d="M550.5,239.2c0,0-2.6-1-3.4,1.5c0,0,1.9-1.5,3.3-1.2"/>
<circle class="st21" cx="544" cy="227.1" r="3.4"/>
<path class="st12" d="M541.7,229.5c0,0,0.5,2,0,2.4s-1.5,1.2-0.7,1.8s3.3,1.6,4.2,1.1s1.9-0.3,1.6-1.3s-2.1-0.8-2.2-5.8L541.7,229.5
	z"/>
<path class="st25" d="M536.8,237.8c0.1,1.1,0,2.2-0.2,3.2c-0.2,1.1-0.3,2.2-0.4,3.3c0.1,0.7,0.3,5.5,0.3,5.5s-0.4,4.2,1.7,3.8
	s-0.3-4.8-0.3-4.8l0.1-5.7c0.6-0.7,0.9-1.6,1-2.5C539.1,239.2,536.8,237.8,536.8,237.8z"/>
<path class="st12" d="M536.8,237.8c0.1,1.1,0,2.2-0.2,3.2c-0.2,1.1-0.3,2.2-0.4,3.3c0.1,0.7,0.3,5.5,0.3,5.5s-0.4,4.2,1.7,3.8
	s-0.3-4.8-0.3-4.8l0.1-5.7c0.6-0.7,0.9-1.6,1-2.5C539.1,239.2,536.8,237.8,536.8,237.8z"/>
<path class="st25" d="M549.8,238.1l-0.3,4.5c0,0-0.2,6.2-0.9,7.8c0,0,0.2,4.4-1.8,4.3s0.3-4.8,0.3-4.8s1.1-4.9,0.5-6.4l-0.5-5.3
	H549.8z"/>
<path class="st12" d="M549.8,238.1l-0.3,4.5c0,0-0.2,6.2-0.9,7.8c0,0,0.2,4.4-1.8,4.3s0.3-4.8,0.3-4.8s1.1-4.9,0.5-6.4l-0.5-5.3
	H549.8z"/>
<path class="st25" d="M543.2,233.8c0,0,1.7,0.8,2.5-1.5l3.3,1.6c0.4,0.4,0.7,0.9,0.7,1.5l0.7,3.9c0,0-2.5-0.8-3.2,1.5l0.2,2.2l0,0
	c0.2,0.5,0.1,1.1-0.1,1.6c0,0.1,0,0.2,0,0.3c0.2,0.6-0.1,1.2-0.7,1.3c-0.1,0-0.2,0-0.3,0c-0.9,0-1.8,0.1-2.7,0.2
	c-0.7,0.2-2.9-0.4-3.6,0s-2.2-0.3-2.2-0.3l0.4-1.8c0,0-0.3-0.9,0.1-1.2s0.1-3-0.2-3.8c0,0-1.2-1.2-2-1l1-4.5
	c0.4-0.8,1.3-1.4,2.2-1.5c0.8,0.1,1.5-0.2,2.2-0.6C541.5,231.9,540.8,233.6,543.2,233.8z"/>
<path class="st25" d="M543.4,233.7c0.5,0.1,1.7,0.3,2.4-1.6l3.3,1.6c0.4,0.4,0.7,0.9,0.7,1.5l0.7,3.9c0,0-2.5-0.8-3.2,1.5l0.2,2.2
	l0.1,0.4c0.1,0.4,0.1,0.8-0.2,1.1c-0.1,0.1-0.1,0.3-0.1,0.4c0.2,0.6-0.1,1.2-0.7,1.3c-0.1,0-0.2,0-0.3,0c-0.9,0-1.8,0.1-2.7,0.2
	c-0.7,0.2-2.9-0.4-3.6,0s-2.2-0.3-2.2-0.3l0.4-1.8c0,0-0.3-0.9,0.1-1.2s0.1-3-0.2-3.8c0,0-1.2-1.2-2-1l1-4.5
	c0.4-0.8,1.3-1.4,2.2-1.5c0.8,0.1,1.5-0.2,2.2-0.6c0,0-0.8,1.5,1.3,1.8L543.4,233.7z"/>
<path class="st24" d="M543.4,233.8c0.5,0.1,1.7,0.3,2.4-1.6l3.3,1.6c0.4,0.4,0.7,0.9,0.7,1.5l0.7,3.9c0,0-2.5-0.8-3.2,1.5l0.2,2.2
	l0,0c0.2,0.5,0.1,1.1-0.1,1.6c0,0.1,0,0.2,0,0.3c0.2,0.6-0.1,1.2-0.7,1.3c-0.1,0-0.2,0-0.3,0c-0.9,0-1.8,0.1-2.7,0.2
	c-0.7,0.2-2.9-0.4-3.6,0s-2.2-0.3-2.2-0.3l0.4-1.8c0,0-0.3-0.9,0.1-1.2s0.1-3-0.2-3.8c0,0-1.2-1.2-2-1l1-4.5
	c0.4-0.8,1.3-1.4,2.2-1.5c0.8,0.1,1.5-0.2,2.2-0.6c0,0-0.8,1.5,1.3,1.8L543.4,233.8z"/>
<path class="st25" d="M544.6,227.9l-2.9,1.8c0.1,0.3,0.1,0.7,0.2,1c0.3,0.1,0.7,0.2,1,0.2c0.7-0.1,1.4-0.4,1.9-0.9
	C544.7,229.3,544.6,228.6,544.6,227.9z"/>
<circle class="st12" cx="542.9" cy="227.8" r="2.8"/>
<circle class="st21" cx="547" cy="224.4" r="1.2"/>
<path class="st21" d="M547.3,225.7c-0.7,0-1.2-0.5-1.2-1.1c0,0,0,0.1,0,0.1c0,0.7,0.6,1.2,1.2,1.2c0.7,0,1.2-0.6,1.2-1.2
	c0,0,0,0,0,0c0,0,0-0.1,0-0.1C548.5,225.2,547.9,225.7,547.3,225.7z"/>
<path class="st21" d="M546.6,226.9c-0.6-0.1-1.1-0.7-1-1.4v0.1c-0.1,0.7,0.3,1.3,1,1.4s1.3-0.3,1.4-1l0,0V226
	C547.9,226.6,547.2,227,546.6,226.9z"/>
<path class="st21" d="M545.6,229.9c-0.6-0.1-1.1-0.7-1-1.4v0.1c-0.1,0.7,0.3,1.3,1,1.4s1.3-0.3,1.4-1V229
	C546.9,229.6,546.3,230,545.6,229.9z"/>
<path class="st21" d="M547.3,225.1c-0.7,0-1.2-0.5-1.2-1.2c0,0,0,0.1,0,0.1c0,0.7,0.6,1.2,1.2,1.2c0.7,0,1.2-0.6,1.2-1.2
	c0,0,0,0,0,0c0,0,0-0.1,0-0.1C548.5,224.6,547.9,225.1,547.3,225.1z"/>
<path class="st21" d="M545.5,224.4c0-0.7,0.5-1.2,1.2-1.2h-0.1c-0.7,0-1.2,0.6-1.2,1.2c0,0.7,0.6,1.2,1.2,1.2l0,0h0.1
	C546.1,225.6,545.5,225.1,545.5,224.4z"/>
<path class="st25" d="M546.8,236.1c0.1,0.6,0.1,1.2,0,1.9c0,0-0.2,1.6,0.1,1.9"/>
<path class="st25" d="M538.4,236.5c0.1,0.6,0.1,1.2,0,1.9c0,0-0.2,1.6,0.1,1.9"/>
<path class="st25" d="M538.3,243.1c0.3,0.1,0.6,0.1,0.8,0c0.3-0.1,0.7-0.1,1,0"/>
<path class="st25" d="M538.8,240.7c1,0,1.9-0.1,2.9-0.5c0,0,3.5,0.9,4.5,0.2"/>
<path class="st12" d="M536.9,255.6h0.8c0.4,0,0.7,0.3,0.7,0.7v0c0,0.4-0.3,0.7-0.7,0.7h-0.8c-0.4,0-0.7-0.3-0.7-0.7v0
	C536.2,255.9,536.5,255.6,536.9,255.6z"/>
<path class="st26" d="M536.2,255.9l1.2,0l1,0.2H538L536.2,255.9z"/>
<path class="st26" d="M544,250.3h1.2l1,0.1h-0.3L544,250.3z"/>
<path class="st26" d="M544,250.5h1.2l1,0.1h-0.3L544,250.5z"/>
<path class="st26" d="M544,250.8h1.2l1,0.1h-0.3L544,250.8z"/>
<path class="st26" d="M544,251h1.2l1,0.1h-0.3L544,251z"/>
<path class="st26" d="M536.2,256.8h1.2l1,0.1H538L536.2,256.8z"/>
<path class="st26" d="M536.2,256.7h1.2l1,0.1H538L536.2,256.7z"/>
<path class="st26" d="M536.2,256.6h1.2l1,0.1H538L536.2,256.6z"/>
<path class="st26" d="M536.2,256.5h1.2l1,0.1H538L536.2,256.5z"/>
<path class="st26" d="M536.2,255.7l1.2,0l1,0.2H538L536.2,255.7z"/>
<path class="st26" d="M536.2,255.5l1.2,0l1,0.2H538L536.2,255.5z"/>
<path class="st25" d="M543.3,226c-0.1,1.1,0,2.1,0.4,3.1c0.4,1,0.3,2.1-0.2,3c0.3,0.1,0.6,0,0.9-0.2c0.2-0.2,0.5-0.5,0.6-0.8
	c0.2-0.2,0.3-0.5,0.4-0.8c0-0.4,0-0.9-0.2-1.3c-0.2-0.8-0.3-1.5-0.4-2.3c-0.1-0.5,0-1.9-0.5-2S543.5,225.6,543.3,226z"/>
<path class="st21" d="M543.4,226c-0.1,1.1,0,2.1,0.4,3.1c0.4,1,0.3,2.1-0.2,3c0.3,0.1,0.6,0,0.9-0.2c0.2-0.2,0.5-0.5,0.6-0.8
	c0.2-0.2,0.3-0.5,0.4-0.8c0-0.4,0-0.9-0.2-1.3c-0.2-0.8-0.3-1.5-0.4-2.3c-0.1-0.5,0-1.9-0.5-2S543.5,225.6,543.4,226z"/>
<path class="st25" d="M542.2,226.7c0.2,0.3,0.3,0.6,0.5,0.9c0.4,0.4,0.9,0.6,1.4,0.6c0.1,0,0.3,0,0.4,0.1c0.2,0.1,0.2,0.5,0.4,0.7
	c0.3,0.3,0.8,0.3,1.1,0c0,0,0,0,0,0c0.3-0.3,0.4-0.8,0.5-1.2c0-0.5,0-1,0-1.5c0-0.6-0.2-1.1-0.6-1.5c-0.3-0.2-0.7-0.4-1.1-0.5
	c-0.5-0.2-1.1-0.2-1.7-0.1c-0.3,0.1-0.5,0.2-0.8,0.4c-0.3,0.2-0.7,0.4-1,0.7c-0.4,0.3-1.1,0.8-0.4,1.1
	C541.3,226.4,541.8,226.3,542.2,226.7z"/>
<path class="st21" d="M542.3,226.7c0.2,0.3,0.3,0.6,0.5,0.9c0.4,0.4,0.9,0.6,1.4,0.6c0.1,0,0.3,0,0.4,0.1c0.2,0.1,0.2,0.5,0.4,0.7
	c0.3,0.3,0.8,0.3,1.1,0c0,0,0,0,0,0c0.3-0.3,0.4-0.8,0.5-1.2c0-0.5,0-1,0-1.5c0-0.6-0.2-1.1-0.6-1.5c-0.3-0.2-0.7-0.4-1.1-0.5
	c-0.5-0.2-1.1-0.2-1.7-0.1c-0.3,0.1-0.5,0.2-0.8,0.4c-0.3,0.2-0.7,0.4-1,0.7c-0.4,0.3-1.1,0.8-0.4,1.1
	C541.4,226.4,541.9,226.3,542.3,226.7z"/>
<path class="st26" d="M544.1,250.3h1.2l1,0.1h-0.3L544.1,250.3z"/>
<path class="st26" d="M544.1,250.5h1.2l1,0.1h-0.3L544.1,250.5z"/>
<path class="st26" d="M544.1,250.8h1.2l1,0.1h-0.3L544.1,250.8z"/>
<path class="st26" d="M544.1,251h1.2l1,0.1h-0.3L544.1,251z"/>
<path class="st26" d="M543.6,264.3h1.2l1,0.1h-0.3L543.6,264.3z"/>
<path class="st26" d="M543.6,264.6h1.2l1,0.1h-0.3L543.6,264.6z"/>
<path class="st26" d="M543.6,264.8h1.2l1,0.1h-0.3L543.6,264.8z"/>
<path class="st26" d="M543.6,265h1.2l1,0.1h-0.3L543.6,265z"/>
</svg>
